%TF.GenerationSoftware,KiCad,Pcbnew,9.0.7*%
%TF.CreationDate,2026-02-11T10:07:39-06:00*%
%TF.ProjectId,GrizzlySimHW,4772697a-7a6c-4795-9369-6d48572e6b69,rev?*%
%TF.SameCoordinates,Original*%
%TF.FileFunction,Soldermask,Top*%
%TF.FilePolarity,Negative*%
%FSLAX46Y46*%
G04 Gerber Fmt 4.6, Leading zero omitted, Abs format (unit mm)*
G04 Created by KiCad (PCBNEW 9.0.7) date 2026-02-11 10:07:39*
%MOMM*%
%LPD*%
G01*
G04 APERTURE LIST*
G04 Aperture macros list*
%AMRoundRect*
0 Rectangle with rounded corners*
0 $1 Rounding radius*
0 $2 $3 $4 $5 $6 $7 $8 $9 X,Y pos of 4 corners*
0 Add a 4 corners polygon primitive as box body*
4,1,4,$2,$3,$4,$5,$6,$7,$8,$9,$2,$3,0*
0 Add four circle primitives for the rounded corners*
1,1,$1+$1,$2,$3*
1,1,$1+$1,$4,$5*
1,1,$1+$1,$6,$7*
1,1,$1+$1,$8,$9*
0 Add four rect primitives between the rounded corners*
20,1,$1+$1,$2,$3,$4,$5,0*
20,1,$1+$1,$4,$5,$6,$7,0*
20,1,$1+$1,$6,$7,$8,$9,0*
20,1,$1+$1,$8,$9,$2,$3,0*%
G04 Aperture macros list end*
%ADD10R,1.800000X1.800000*%
%ADD11O,1.800000X1.800000*%
%ADD12C,3.200000*%
%ADD13R,1.700000X1.700000*%
%ADD14C,1.700000*%
%ADD15C,3.250000*%
%ADD16RoundRect,0.250000X-0.510000X-0.510000X0.510000X-0.510000X0.510000X0.510000X-0.510000X0.510000X0*%
%ADD17C,1.520000*%
%ADD18RoundRect,0.250000X0.325000X0.450000X-0.325000X0.450000X-0.325000X-0.450000X0.325000X-0.450000X0*%
%ADD19RoundRect,0.102000X-0.765000X0.765000X-0.765000X-0.765000X0.765000X-0.765000X0.765000X0.765000X0*%
%ADD20C,1.734000*%
%ADD21C,6.000000*%
%ADD22O,1.700000X1.700000*%
G04 APERTURE END LIST*
D10*
%TO.C,J31*%
X-205359000Y-110413800D03*
D11*
X-207899000Y-110413800D03*
X-210439000Y-110413800D03*
X-212979000Y-110413800D03*
%TD*%
D10*
%TO.C,J8*%
X-254815300Y-110175000D03*
D11*
X-257355300Y-110175000D03*
X-259895300Y-110175000D03*
X-262435300Y-110175000D03*
%TD*%
D10*
%TO.C,J5*%
X-175285400Y-110515400D03*
D11*
X-177825400Y-110515400D03*
X-180365400Y-110515400D03*
X-182905400Y-110515400D03*
%TD*%
D12*
%TO.C,REF\u002A\u002A*%
X-411170000Y-43770000D03*
%TD*%
D10*
%TO.C,W14*%
X-285365700Y-110109000D03*
D11*
X-287905700Y-110109000D03*
%TD*%
D12*
%TO.C,REF\u002A\u002A*%
X-145950000Y-34100000D03*
%TD*%
%TO.C,REF\u002A\u002A*%
X-470670000Y-30900000D03*
%TD*%
D10*
%TO.C,W7*%
X-330865700Y-110109000D03*
D11*
X-333405700Y-110109000D03*
%TD*%
D10*
%TO.C,W5*%
X-343865700Y-110109000D03*
D11*
X-346405700Y-110109000D03*
%TD*%
D13*
%TO.C,J1*%
X-161721800Y-110464600D03*
D14*
X-164261800Y-110464600D03*
%TD*%
D10*
%TO.C,J14*%
X-221691200Y-110359200D03*
D11*
X-224231200Y-110359200D03*
X-226771200Y-110359200D03*
X-229311200Y-110359200D03*
%TD*%
D10*
%TO.C,W11*%
X-304865700Y-110109000D03*
D11*
X-307405700Y-110109000D03*
%TD*%
D10*
%TO.C,W1*%
X-369633200Y-110109000D03*
D11*
X-372173200Y-110109000D03*
%TD*%
D10*
%TO.C,W3*%
X-356865700Y-110109000D03*
D11*
X-359405700Y-110109000D03*
%TD*%
D10*
%TO.C,J6*%
X-378256800Y-110058200D03*
D11*
X-380796800Y-110058200D03*
X-383336800Y-110058200D03*
X-385876800Y-110058200D03*
X-388416800Y-110058200D03*
X-390956800Y-110058200D03*
X-393496800Y-110058200D03*
X-396036800Y-110058200D03*
%TD*%
D12*
%TO.C,REF\u002A\u002A*%
X-139920000Y-41410000D03*
%TD*%
D10*
%TO.C,W13*%
X-291865700Y-110109000D03*
D11*
X-294405700Y-110109000D03*
%TD*%
D10*
%TO.C,W6*%
X-337365700Y-110109000D03*
D11*
X-339905700Y-110109000D03*
%TD*%
D10*
%TO.C,J9*%
X-269965600Y-110072600D03*
D11*
X-272505600Y-110072600D03*
X-275045600Y-110072600D03*
X-277585600Y-110072600D03*
%TD*%
D10*
%TO.C,W10*%
X-311213200Y-110109000D03*
D11*
X-313753200Y-110109000D03*
%TD*%
D10*
%TO.C,W4*%
X-350365700Y-110109000D03*
D11*
X-352905700Y-110109000D03*
%TD*%
D10*
%TO.C,W8*%
X-324365700Y-110109000D03*
D11*
X-326905700Y-110109000D03*
%TD*%
D10*
%TO.C,J26*%
X-189331600Y-110540800D03*
D11*
X-191871600Y-110540800D03*
X-194411600Y-110540800D03*
X-196951600Y-110540800D03*
%TD*%
D15*
%TO.C,J7*%
X-412673800Y-103555800D03*
X-402513800Y-103555800D03*
D16*
X-410773800Y-94665800D03*
D17*
X-409503800Y-97205800D03*
X-408233800Y-94665800D03*
X-406963800Y-97205800D03*
X-405693800Y-94665800D03*
X-404423800Y-97205800D03*
%TD*%
D12*
%TO.C,REF\u002A\u002A*%
X-140420000Y-99680000D03*
%TD*%
D10*
%TO.C,W2*%
X-363133200Y-110109000D03*
D11*
X-365673200Y-110109000D03*
%TD*%
D10*
%TO.C,GND2*%
X-439880000Y-109820000D03*
D11*
X-437340000Y-109820000D03*
X-434800000Y-109820000D03*
X-432260000Y-109820000D03*
X-429720000Y-109820000D03*
X-427180000Y-109820000D03*
X-424640000Y-109820000D03*
X-422100000Y-109820000D03*
%TD*%
D18*
%TO.C,D23*%
X-159592500Y-94672500D03*
X-161642500Y-94672500D03*
%TD*%
D13*
%TO.C,J5*%
X-168427400Y-110515400D03*
D14*
X-170967400Y-110515400D03*
%TD*%
D13*
%TO.C,J3*%
X-153855000Y-110460000D03*
D14*
X-156395000Y-110460000D03*
%TD*%
D19*
%TO.C,J37*%
X-412530000Y-50870000D03*
D20*
X-409990000Y-50870000D03*
X-412530000Y-53410000D03*
X-409990000Y-53410000D03*
X-412530000Y-55950000D03*
X-409990000Y-55950000D03*
X-412530000Y-58490000D03*
X-409990000Y-58490000D03*
X-412530000Y-61030000D03*
X-409990000Y-61030000D03*
X-412530000Y-63570000D03*
X-409990000Y-63570000D03*
X-412530000Y-66110000D03*
X-409990000Y-66110000D03*
%TD*%
D18*
%TO.C,D35*%
X-175462500Y-94702500D03*
X-177512500Y-94702500D03*
%TD*%
D10*
%TO.C,J15*%
X-237617200Y-110363000D03*
D11*
X-240157200Y-110363000D03*
X-242697200Y-110363000D03*
X-245237200Y-110363000D03*
%TD*%
D10*
%TO.C,W12*%
X-298365700Y-110109000D03*
D11*
X-300905700Y-110109000D03*
%TD*%
D12*
%TO.C,REF\u002A\u002A*%
X-470670000Y-107420000D03*
%TD*%
%TO.C,REF\u002A\u002A*%
X-146050000Y-80750000D03*
%TD*%
D10*
%TO.C,W9*%
X-317865700Y-110109000D03*
D11*
X-320405700Y-110109000D03*
%TD*%
D13*
%TO.C,J10*%
X-144983200Y-110159800D03*
D14*
X-147523200Y-110159800D03*
%TD*%
D21*
%TO.C,P1*%
X-447405000Y-90185000D03*
X-447405000Y-32185000D03*
D13*
X-425675000Y-37055000D03*
D22*
X-423135000Y-37055000D03*
X-425675000Y-39595000D03*
X-423135000Y-39595000D03*
X-425675000Y-42135000D03*
X-423135000Y-42135000D03*
X-425675000Y-44675000D03*
X-423135000Y-44675000D03*
X-425675000Y-47215000D03*
X-423135000Y-47215000D03*
X-425675000Y-49755000D03*
X-423135000Y-49755000D03*
X-425675000Y-52295000D03*
X-423135000Y-52295000D03*
X-425675000Y-54835000D03*
X-423135000Y-54835000D03*
X-425675000Y-57375000D03*
X-423135000Y-57375000D03*
X-425675000Y-59915000D03*
X-423135000Y-59915000D03*
X-425675000Y-62455000D03*
X-423135000Y-62455000D03*
X-425675000Y-64995000D03*
X-423135000Y-64995000D03*
X-425675000Y-67535000D03*
X-423135000Y-67535000D03*
X-425675000Y-70075000D03*
X-423135000Y-70075000D03*
X-425675000Y-72615000D03*
X-423135000Y-72615000D03*
X-425675000Y-75155000D03*
X-423135000Y-75155000D03*
X-425675000Y-77695000D03*
X-423135000Y-77695000D03*
X-425675000Y-80235000D03*
X-423135000Y-80235000D03*
X-425675000Y-82775000D03*
X-423135000Y-82775000D03*
X-425675000Y-85315000D03*
X-423135000Y-85315000D03*
%TD*%
M02*
