%TF.GenerationSoftware,KiCad,Pcbnew,9.0.7*%
%TF.CreationDate,2026-02-11T10:07:39-06:00*%
%TF.ProjectId,GrizzlySimHW,4772697a-7a6c-4795-9369-6d48572e6b69,rev?*%
%TF.SameCoordinates,Original*%
%TF.FileFunction,Legend,Top*%
%TF.FilePolarity,Positive*%
%FSLAX46Y46*%
G04 Gerber Fmt 4.6, Leading zero omitted, Abs format (unit mm)*
G04 Created by KiCad (PCBNEW 9.0.7) date 2026-02-11 10:07:39*
%MOMM*%
%LPD*%
G01*
G04 APERTURE LIST*
%ADD10C,0.150000*%
%ADD11C,0.300000*%
%ADD12C,0.200000*%
%ADD13C,0.400000*%
%ADD14C,0.600000*%
%ADD15C,0.250000*%
%ADD16C,0.240000*%
%ADD17C,0.260000*%
%ADD18C,0.120000*%
%ADD19C,0.127000*%
G04 APERTURE END LIST*
D10*
X-374645000Y-98495000D02*
X-283375000Y-98495000D01*
X-283375000Y-112505000D01*
X-374645000Y-112505000D01*
X-374645000Y-98495000D01*
D11*
X-279690000Y-96646200D02*
X-187430000Y-96646200D01*
X-187430000Y-112460000D01*
X-279690000Y-112460000D01*
X-279690000Y-96646200D01*
D12*
X-399350000Y-94940000D02*
X-376090000Y-94940000D01*
X-376090000Y-112150000D01*
X-399350000Y-112150000D01*
X-399350000Y-94940000D01*
D10*
X-184980000Y-104553100D02*
X-166330000Y-104553100D01*
X-166330000Y-112525400D01*
X-184980000Y-112525400D01*
X-184980000Y-104553100D01*
X-440382561Y-107099411D02*
X-440430180Y-107194649D01*
X-440430180Y-107194649D02*
X-440430180Y-107337506D01*
X-440430180Y-107337506D02*
X-440382561Y-107480363D01*
X-440382561Y-107480363D02*
X-440287323Y-107575601D01*
X-440287323Y-107575601D02*
X-440192085Y-107623220D01*
X-440192085Y-107623220D02*
X-440001609Y-107670839D01*
X-440001609Y-107670839D02*
X-439858752Y-107670839D01*
X-439858752Y-107670839D02*
X-439668276Y-107623220D01*
X-439668276Y-107623220D02*
X-439573038Y-107575601D01*
X-439573038Y-107575601D02*
X-439477800Y-107480363D01*
X-439477800Y-107480363D02*
X-439430180Y-107337506D01*
X-439430180Y-107337506D02*
X-439430180Y-107242268D01*
X-439430180Y-107242268D02*
X-439477800Y-107099411D01*
X-439477800Y-107099411D02*
X-439525419Y-107051792D01*
X-439525419Y-107051792D02*
X-439858752Y-107051792D01*
X-439858752Y-107051792D02*
X-439858752Y-107242268D01*
X-439430180Y-106623220D02*
X-440430180Y-106623220D01*
X-440430180Y-106623220D02*
X-440430180Y-106242268D01*
X-440430180Y-106242268D02*
X-440382561Y-106147030D01*
X-440382561Y-106147030D02*
X-440334942Y-106099411D01*
X-440334942Y-106099411D02*
X-440239704Y-106051792D01*
X-440239704Y-106051792D02*
X-440096847Y-106051792D01*
X-440096847Y-106051792D02*
X-440001609Y-106099411D01*
X-440001609Y-106099411D02*
X-439953990Y-106147030D01*
X-439953990Y-106147030D02*
X-439906371Y-106242268D01*
X-439906371Y-106242268D02*
X-439906371Y-106623220D01*
X-439430180Y-105623220D02*
X-440430180Y-105623220D01*
X-440430180Y-104956554D02*
X-440430180Y-104766078D01*
X-440430180Y-104766078D02*
X-440382561Y-104670840D01*
X-440382561Y-104670840D02*
X-440287323Y-104575602D01*
X-440287323Y-104575602D02*
X-440096847Y-104527983D01*
X-440096847Y-104527983D02*
X-439763514Y-104527983D01*
X-439763514Y-104527983D02*
X-439573038Y-104575602D01*
X-439573038Y-104575602D02*
X-439477800Y-104670840D01*
X-439477800Y-104670840D02*
X-439430180Y-104766078D01*
X-439430180Y-104766078D02*
X-439430180Y-104956554D01*
X-439430180Y-104956554D02*
X-439477800Y-105051792D01*
X-439477800Y-105051792D02*
X-439573038Y-105147030D01*
X-439573038Y-105147030D02*
X-439763514Y-105194649D01*
X-439763514Y-105194649D02*
X-440096847Y-105194649D01*
X-440096847Y-105194649D02*
X-440287323Y-105147030D01*
X-440287323Y-105147030D02*
X-440382561Y-105051792D01*
X-440382561Y-105051792D02*
X-440430180Y-104956554D01*
X-440096847Y-103670840D02*
X-439430180Y-103670840D01*
X-440477800Y-103908935D02*
X-439763514Y-104147030D01*
X-439763514Y-104147030D02*
X-439763514Y-103527983D01*
X-437682561Y-107149411D02*
X-437730180Y-107244649D01*
X-437730180Y-107244649D02*
X-437730180Y-107387506D01*
X-437730180Y-107387506D02*
X-437682561Y-107530363D01*
X-437682561Y-107530363D02*
X-437587323Y-107625601D01*
X-437587323Y-107625601D02*
X-437492085Y-107673220D01*
X-437492085Y-107673220D02*
X-437301609Y-107720839D01*
X-437301609Y-107720839D02*
X-437158752Y-107720839D01*
X-437158752Y-107720839D02*
X-436968276Y-107673220D01*
X-436968276Y-107673220D02*
X-436873038Y-107625601D01*
X-436873038Y-107625601D02*
X-436777800Y-107530363D01*
X-436777800Y-107530363D02*
X-436730180Y-107387506D01*
X-436730180Y-107387506D02*
X-436730180Y-107292268D01*
X-436730180Y-107292268D02*
X-436777800Y-107149411D01*
X-436777800Y-107149411D02*
X-436825419Y-107101792D01*
X-436825419Y-107101792D02*
X-437158752Y-107101792D01*
X-437158752Y-107101792D02*
X-437158752Y-107292268D01*
X-436730180Y-106673220D02*
X-437730180Y-106673220D01*
X-437730180Y-106673220D02*
X-437730180Y-106292268D01*
X-437730180Y-106292268D02*
X-437682561Y-106197030D01*
X-437682561Y-106197030D02*
X-437634942Y-106149411D01*
X-437634942Y-106149411D02*
X-437539704Y-106101792D01*
X-437539704Y-106101792D02*
X-437396847Y-106101792D01*
X-437396847Y-106101792D02*
X-437301609Y-106149411D01*
X-437301609Y-106149411D02*
X-437253990Y-106197030D01*
X-437253990Y-106197030D02*
X-437206371Y-106292268D01*
X-437206371Y-106292268D02*
X-437206371Y-106673220D01*
X-436730180Y-105673220D02*
X-437730180Y-105673220D01*
X-437730180Y-105006554D02*
X-437730180Y-104816078D01*
X-437730180Y-104816078D02*
X-437682561Y-104720840D01*
X-437682561Y-104720840D02*
X-437587323Y-104625602D01*
X-437587323Y-104625602D02*
X-437396847Y-104577983D01*
X-437396847Y-104577983D02*
X-437063514Y-104577983D01*
X-437063514Y-104577983D02*
X-436873038Y-104625602D01*
X-436873038Y-104625602D02*
X-436777800Y-104720840D01*
X-436777800Y-104720840D02*
X-436730180Y-104816078D01*
X-436730180Y-104816078D02*
X-436730180Y-105006554D01*
X-436730180Y-105006554D02*
X-436777800Y-105101792D01*
X-436777800Y-105101792D02*
X-436873038Y-105197030D01*
X-436873038Y-105197030D02*
X-437063514Y-105244649D01*
X-437063514Y-105244649D02*
X-437396847Y-105244649D01*
X-437396847Y-105244649D02*
X-437587323Y-105197030D01*
X-437587323Y-105197030D02*
X-437682561Y-105101792D01*
X-437682561Y-105101792D02*
X-437730180Y-105006554D01*
X-437634942Y-104197030D02*
X-437682561Y-104149411D01*
X-437682561Y-104149411D02*
X-437730180Y-104054173D01*
X-437730180Y-104054173D02*
X-437730180Y-103816078D01*
X-437730180Y-103816078D02*
X-437682561Y-103720840D01*
X-437682561Y-103720840D02*
X-437634942Y-103673221D01*
X-437634942Y-103673221D02*
X-437539704Y-103625602D01*
X-437539704Y-103625602D02*
X-437444466Y-103625602D01*
X-437444466Y-103625602D02*
X-437301609Y-103673221D01*
X-437301609Y-103673221D02*
X-436730180Y-104244649D01*
X-436730180Y-104244649D02*
X-436730180Y-103625602D01*
X-437730180Y-103292268D02*
X-437730180Y-102673221D01*
X-437730180Y-102673221D02*
X-437349228Y-103006554D01*
X-437349228Y-103006554D02*
X-437349228Y-102863697D01*
X-437349228Y-102863697D02*
X-437301609Y-102768459D01*
X-437301609Y-102768459D02*
X-437253990Y-102720840D01*
X-437253990Y-102720840D02*
X-437158752Y-102673221D01*
X-437158752Y-102673221D02*
X-436920657Y-102673221D01*
X-436920657Y-102673221D02*
X-436825419Y-102720840D01*
X-436825419Y-102720840D02*
X-436777800Y-102768459D01*
X-436777800Y-102768459D02*
X-436730180Y-102863697D01*
X-436730180Y-102863697D02*
X-436730180Y-103149411D01*
X-436730180Y-103149411D02*
X-436777800Y-103244649D01*
X-436777800Y-103244649D02*
X-436825419Y-103292268D01*
X-275358458Y-106919819D02*
X-274739411Y-106919819D01*
X-274739411Y-106919819D02*
X-275072744Y-107300771D01*
X-275072744Y-107300771D02*
X-274929887Y-107300771D01*
X-274929887Y-107300771D02*
X-274834649Y-107348390D01*
X-274834649Y-107348390D02*
X-274787030Y-107396009D01*
X-274787030Y-107396009D02*
X-274739411Y-107491247D01*
X-274739411Y-107491247D02*
X-274739411Y-107729342D01*
X-274739411Y-107729342D02*
X-274787030Y-107824580D01*
X-274787030Y-107824580D02*
X-274834649Y-107872200D01*
X-274834649Y-107872200D02*
X-274929887Y-107919819D01*
X-274929887Y-107919819D02*
X-275215601Y-107919819D01*
X-275215601Y-107919819D02*
X-275310839Y-107872200D01*
X-275310839Y-107872200D02*
X-275358458Y-107824580D01*
X-257660839Y-107215057D02*
X-257613220Y-107167438D01*
X-257613220Y-107167438D02*
X-257517982Y-107119819D01*
X-257517982Y-107119819D02*
X-257279887Y-107119819D01*
X-257279887Y-107119819D02*
X-257184649Y-107167438D01*
X-257184649Y-107167438D02*
X-257137030Y-107215057D01*
X-257137030Y-107215057D02*
X-257089411Y-107310295D01*
X-257089411Y-107310295D02*
X-257089411Y-107405533D01*
X-257089411Y-107405533D02*
X-257137030Y-107548390D01*
X-257137030Y-107548390D02*
X-257708458Y-108119819D01*
X-257708458Y-108119819D02*
X-257089411Y-108119819D01*
D13*
X-212980652Y-106114438D02*
X-212980652Y-104114438D01*
X-212980652Y-104114438D02*
X-212504462Y-104114438D01*
X-212504462Y-104114438D02*
X-212218747Y-104209676D01*
X-212218747Y-104209676D02*
X-212028271Y-104400152D01*
X-212028271Y-104400152D02*
X-211933033Y-104590628D01*
X-211933033Y-104590628D02*
X-211837795Y-104971580D01*
X-211837795Y-104971580D02*
X-211837795Y-105257295D01*
X-211837795Y-105257295D02*
X-211933033Y-105638247D01*
X-211933033Y-105638247D02*
X-212028271Y-105828723D01*
X-212028271Y-105828723D02*
X-212218747Y-106019200D01*
X-212218747Y-106019200D02*
X-212504462Y-106114438D01*
X-212504462Y-106114438D02*
X-212980652Y-106114438D01*
X-211075890Y-105543009D02*
X-210123509Y-105543009D01*
X-211266366Y-106114438D02*
X-210599700Y-104114438D01*
X-210599700Y-104114438D02*
X-209933033Y-106114438D01*
X-208123509Y-105923961D02*
X-208218747Y-106019200D01*
X-208218747Y-106019200D02*
X-208504461Y-106114438D01*
X-208504461Y-106114438D02*
X-208694937Y-106114438D01*
X-208694937Y-106114438D02*
X-208980652Y-106019200D01*
X-208980652Y-106019200D02*
X-209171128Y-105828723D01*
X-209171128Y-105828723D02*
X-209266366Y-105638247D01*
X-209266366Y-105638247D02*
X-209361604Y-105257295D01*
X-209361604Y-105257295D02*
X-209361604Y-104971580D01*
X-209361604Y-104971580D02*
X-209266366Y-104590628D01*
X-209266366Y-104590628D02*
X-209171128Y-104400152D01*
X-209171128Y-104400152D02*
X-208980652Y-104209676D01*
X-208980652Y-104209676D02*
X-208694937Y-104114438D01*
X-208694937Y-104114438D02*
X-208504461Y-104114438D01*
X-208504461Y-104114438D02*
X-208218747Y-104209676D01*
X-208218747Y-104209676D02*
X-208123509Y-104304914D01*
X-204885413Y-104781104D02*
X-204885413Y-106114438D01*
X-205361604Y-104019200D02*
X-205837794Y-105447771D01*
X-205837794Y-105447771D02*
X-204599699Y-105447771D01*
D10*
X-385475419Y-107291792D02*
X-385427800Y-107339411D01*
X-385427800Y-107339411D02*
X-385380180Y-107482268D01*
X-385380180Y-107482268D02*
X-385380180Y-107577506D01*
X-385380180Y-107577506D02*
X-385427800Y-107720363D01*
X-385427800Y-107720363D02*
X-385523038Y-107815601D01*
X-385523038Y-107815601D02*
X-385618276Y-107863220D01*
X-385618276Y-107863220D02*
X-385808752Y-107910839D01*
X-385808752Y-107910839D02*
X-385951609Y-107910839D01*
X-385951609Y-107910839D02*
X-386142085Y-107863220D01*
X-386142085Y-107863220D02*
X-386237323Y-107815601D01*
X-386237323Y-107815601D02*
X-386332561Y-107720363D01*
X-386332561Y-107720363D02*
X-386380180Y-107577506D01*
X-386380180Y-107577506D02*
X-386380180Y-107482268D01*
X-386380180Y-107482268D02*
X-386332561Y-107339411D01*
X-386332561Y-107339411D02*
X-386284942Y-107291792D01*
X-385380180Y-106863220D02*
X-386380180Y-106863220D01*
X-385903990Y-106863220D02*
X-385903990Y-106291792D01*
X-385380180Y-106291792D02*
X-386380180Y-106291792D01*
X-386380180Y-105910839D02*
X-386380180Y-105291792D01*
X-386380180Y-105291792D02*
X-385999228Y-105625125D01*
X-385999228Y-105625125D02*
X-385999228Y-105482268D01*
X-385999228Y-105482268D02*
X-385951609Y-105387030D01*
X-385951609Y-105387030D02*
X-385903990Y-105339411D01*
X-385903990Y-105339411D02*
X-385808752Y-105291792D01*
X-385808752Y-105291792D02*
X-385570657Y-105291792D01*
X-385570657Y-105291792D02*
X-385475419Y-105339411D01*
X-385475419Y-105339411D02*
X-385427800Y-105387030D01*
X-385427800Y-105387030D02*
X-385380180Y-105482268D01*
X-385380180Y-105482268D02*
X-385380180Y-105767982D01*
X-385380180Y-105767982D02*
X-385427800Y-105863220D01*
X-385427800Y-105863220D02*
X-385475419Y-105910839D01*
X-229084649Y-107603152D02*
X-229084649Y-108269819D01*
X-229322744Y-107222200D02*
X-229560839Y-107936485D01*
X-229560839Y-107936485D02*
X-228941792Y-107936485D01*
X-162313220Y-98538866D02*
X-161551316Y-98538866D01*
X-161932268Y-98919819D02*
X-161932268Y-98157914D01*
X-160598935Y-97919819D02*
X-161075125Y-97919819D01*
X-161075125Y-97919819D02*
X-161122744Y-98396009D01*
X-161122744Y-98396009D02*
X-161075125Y-98348390D01*
X-161075125Y-98348390D02*
X-160979887Y-98300771D01*
X-160979887Y-98300771D02*
X-160741792Y-98300771D01*
X-160741792Y-98300771D02*
X-160646554Y-98348390D01*
X-160646554Y-98348390D02*
X-160598935Y-98396009D01*
X-160598935Y-98396009D02*
X-160551316Y-98491247D01*
X-160551316Y-98491247D02*
X-160551316Y-98729342D01*
X-160551316Y-98729342D02*
X-160598935Y-98824580D01*
X-160598935Y-98824580D02*
X-160646554Y-98872200D01*
X-160646554Y-98872200D02*
X-160741792Y-98919819D01*
X-160741792Y-98919819D02*
X-160979887Y-98919819D01*
X-160979887Y-98919819D02*
X-161075125Y-98872200D01*
X-161075125Y-98872200D02*
X-161122744Y-98824580D01*
X-160265601Y-97919819D02*
X-159932268Y-98919819D01*
X-159932268Y-98919819D02*
X-159598935Y-97919819D01*
X-377817219Y-107291792D02*
X-377769600Y-107339411D01*
X-377769600Y-107339411D02*
X-377721980Y-107482268D01*
X-377721980Y-107482268D02*
X-377721980Y-107577506D01*
X-377721980Y-107577506D02*
X-377769600Y-107720363D01*
X-377769600Y-107720363D02*
X-377864838Y-107815601D01*
X-377864838Y-107815601D02*
X-377960076Y-107863220D01*
X-377960076Y-107863220D02*
X-378150552Y-107910839D01*
X-378150552Y-107910839D02*
X-378293409Y-107910839D01*
X-378293409Y-107910839D02*
X-378483885Y-107863220D01*
X-378483885Y-107863220D02*
X-378579123Y-107815601D01*
X-378579123Y-107815601D02*
X-378674361Y-107720363D01*
X-378674361Y-107720363D02*
X-378721980Y-107577506D01*
X-378721980Y-107577506D02*
X-378721980Y-107482268D01*
X-378721980Y-107482268D02*
X-378674361Y-107339411D01*
X-378674361Y-107339411D02*
X-378626742Y-107291792D01*
X-377721980Y-106863220D02*
X-378721980Y-106863220D01*
X-378245790Y-106863220D02*
X-378245790Y-106291792D01*
X-377721980Y-106291792D02*
X-378721980Y-106291792D01*
X-378721980Y-105625125D02*
X-378721980Y-105529887D01*
X-378721980Y-105529887D02*
X-378674361Y-105434649D01*
X-378674361Y-105434649D02*
X-378626742Y-105387030D01*
X-378626742Y-105387030D02*
X-378531504Y-105339411D01*
X-378531504Y-105339411D02*
X-378341028Y-105291792D01*
X-378341028Y-105291792D02*
X-378102933Y-105291792D01*
X-378102933Y-105291792D02*
X-377912457Y-105339411D01*
X-377912457Y-105339411D02*
X-377817219Y-105387030D01*
X-377817219Y-105387030D02*
X-377769600Y-105434649D01*
X-377769600Y-105434649D02*
X-377721980Y-105529887D01*
X-377721980Y-105529887D02*
X-377721980Y-105625125D01*
X-377721980Y-105625125D02*
X-377769600Y-105720363D01*
X-377769600Y-105720363D02*
X-377817219Y-105767982D01*
X-377817219Y-105767982D02*
X-377912457Y-105815601D01*
X-377912457Y-105815601D02*
X-378102933Y-105863220D01*
X-378102933Y-105863220D02*
X-378341028Y-105863220D01*
X-378341028Y-105863220D02*
X-378531504Y-105815601D01*
X-378531504Y-105815601D02*
X-378626742Y-105767982D01*
X-378626742Y-105767982D02*
X-378674361Y-105720363D01*
X-378674361Y-105720363D02*
X-378721980Y-105625125D01*
D13*
X-229030652Y-106044438D02*
X-229030652Y-104044438D01*
X-229030652Y-104044438D02*
X-228554462Y-104044438D01*
X-228554462Y-104044438D02*
X-228268747Y-104139676D01*
X-228268747Y-104139676D02*
X-228078271Y-104330152D01*
X-228078271Y-104330152D02*
X-227983033Y-104520628D01*
X-227983033Y-104520628D02*
X-227887795Y-104901580D01*
X-227887795Y-104901580D02*
X-227887795Y-105187295D01*
X-227887795Y-105187295D02*
X-227983033Y-105568247D01*
X-227983033Y-105568247D02*
X-228078271Y-105758723D01*
X-228078271Y-105758723D02*
X-228268747Y-105949200D01*
X-228268747Y-105949200D02*
X-228554462Y-106044438D01*
X-228554462Y-106044438D02*
X-229030652Y-106044438D01*
X-227125890Y-105473009D02*
X-226173509Y-105473009D01*
X-227316366Y-106044438D02*
X-226649700Y-104044438D01*
X-226649700Y-104044438D02*
X-225983033Y-106044438D01*
X-224173509Y-105853961D02*
X-224268747Y-105949200D01*
X-224268747Y-105949200D02*
X-224554461Y-106044438D01*
X-224554461Y-106044438D02*
X-224744937Y-106044438D01*
X-224744937Y-106044438D02*
X-225030652Y-105949200D01*
X-225030652Y-105949200D02*
X-225221128Y-105758723D01*
X-225221128Y-105758723D02*
X-225316366Y-105568247D01*
X-225316366Y-105568247D02*
X-225411604Y-105187295D01*
X-225411604Y-105187295D02*
X-225411604Y-104901580D01*
X-225411604Y-104901580D02*
X-225316366Y-104520628D01*
X-225316366Y-104520628D02*
X-225221128Y-104330152D01*
X-225221128Y-104330152D02*
X-225030652Y-104139676D01*
X-225030652Y-104139676D02*
X-224744937Y-104044438D01*
X-224744937Y-104044438D02*
X-224554461Y-104044438D01*
X-224554461Y-104044438D02*
X-224268747Y-104139676D01*
X-224268747Y-104139676D02*
X-224173509Y-104234914D01*
X-221983032Y-104044438D02*
X-220744937Y-104044438D01*
X-220744937Y-104044438D02*
X-221411604Y-104806342D01*
X-221411604Y-104806342D02*
X-221125889Y-104806342D01*
X-221125889Y-104806342D02*
X-220935413Y-104901580D01*
X-220935413Y-104901580D02*
X-220840175Y-104996819D01*
X-220840175Y-104996819D02*
X-220744937Y-105187295D01*
X-220744937Y-105187295D02*
X-220744937Y-105663485D01*
X-220744937Y-105663485D02*
X-220840175Y-105853961D01*
X-220840175Y-105853961D02*
X-220935413Y-105949200D01*
X-220935413Y-105949200D02*
X-221125889Y-106044438D01*
X-221125889Y-106044438D02*
X-221697318Y-106044438D01*
X-221697318Y-106044438D02*
X-221887794Y-105949200D01*
X-221887794Y-105949200D02*
X-221983032Y-105853961D01*
D10*
X-260308458Y-107069819D02*
X-259689411Y-107069819D01*
X-259689411Y-107069819D02*
X-260022744Y-107450771D01*
X-260022744Y-107450771D02*
X-259879887Y-107450771D01*
X-259879887Y-107450771D02*
X-259784649Y-107498390D01*
X-259784649Y-107498390D02*
X-259737030Y-107546009D01*
X-259737030Y-107546009D02*
X-259689411Y-107641247D01*
X-259689411Y-107641247D02*
X-259689411Y-107879342D01*
X-259689411Y-107879342D02*
X-259737030Y-107974580D01*
X-259737030Y-107974580D02*
X-259784649Y-108022200D01*
X-259784649Y-108022200D02*
X-259879887Y-108069819D01*
X-259879887Y-108069819D02*
X-260165601Y-108069819D01*
X-260165601Y-108069819D02*
X-260260839Y-108022200D01*
X-260260839Y-108022200D02*
X-260308458Y-107974580D01*
X-212884649Y-107453152D02*
X-212884649Y-108119819D01*
X-213122744Y-107072200D02*
X-213360839Y-107786485D01*
X-213360839Y-107786485D02*
X-212741792Y-107786485D01*
X-422432561Y-107129411D02*
X-422480180Y-107224649D01*
X-422480180Y-107224649D02*
X-422480180Y-107367506D01*
X-422480180Y-107367506D02*
X-422432561Y-107510363D01*
X-422432561Y-107510363D02*
X-422337323Y-107605601D01*
X-422337323Y-107605601D02*
X-422242085Y-107653220D01*
X-422242085Y-107653220D02*
X-422051609Y-107700839D01*
X-422051609Y-107700839D02*
X-421908752Y-107700839D01*
X-421908752Y-107700839D02*
X-421718276Y-107653220D01*
X-421718276Y-107653220D02*
X-421623038Y-107605601D01*
X-421623038Y-107605601D02*
X-421527800Y-107510363D01*
X-421527800Y-107510363D02*
X-421480180Y-107367506D01*
X-421480180Y-107367506D02*
X-421480180Y-107272268D01*
X-421480180Y-107272268D02*
X-421527800Y-107129411D01*
X-421527800Y-107129411D02*
X-421575419Y-107081792D01*
X-421575419Y-107081792D02*
X-421908752Y-107081792D01*
X-421908752Y-107081792D02*
X-421908752Y-107272268D01*
X-421480180Y-106653220D02*
X-422480180Y-106653220D01*
X-422480180Y-106653220D02*
X-421480180Y-106081792D01*
X-421480180Y-106081792D02*
X-422480180Y-106081792D01*
X-421480180Y-105605601D02*
X-422480180Y-105605601D01*
X-422480180Y-105605601D02*
X-422480180Y-105367506D01*
X-422480180Y-105367506D02*
X-422432561Y-105224649D01*
X-422432561Y-105224649D02*
X-422337323Y-105129411D01*
X-422337323Y-105129411D02*
X-422242085Y-105081792D01*
X-422242085Y-105081792D02*
X-422051609Y-105034173D01*
X-422051609Y-105034173D02*
X-421908752Y-105034173D01*
X-421908752Y-105034173D02*
X-421718276Y-105081792D01*
X-421718276Y-105081792D02*
X-421623038Y-105129411D01*
X-421623038Y-105129411D02*
X-421527800Y-105224649D01*
X-421527800Y-105224649D02*
X-421480180Y-105367506D01*
X-421480180Y-105367506D02*
X-421480180Y-105605601D01*
X-425082561Y-107129411D02*
X-425130180Y-107224649D01*
X-425130180Y-107224649D02*
X-425130180Y-107367506D01*
X-425130180Y-107367506D02*
X-425082561Y-107510363D01*
X-425082561Y-107510363D02*
X-424987323Y-107605601D01*
X-424987323Y-107605601D02*
X-424892085Y-107653220D01*
X-424892085Y-107653220D02*
X-424701609Y-107700839D01*
X-424701609Y-107700839D02*
X-424558752Y-107700839D01*
X-424558752Y-107700839D02*
X-424368276Y-107653220D01*
X-424368276Y-107653220D02*
X-424273038Y-107605601D01*
X-424273038Y-107605601D02*
X-424177800Y-107510363D01*
X-424177800Y-107510363D02*
X-424130180Y-107367506D01*
X-424130180Y-107367506D02*
X-424130180Y-107272268D01*
X-424130180Y-107272268D02*
X-424177800Y-107129411D01*
X-424177800Y-107129411D02*
X-424225419Y-107081792D01*
X-424225419Y-107081792D02*
X-424558752Y-107081792D01*
X-424558752Y-107081792D02*
X-424558752Y-107272268D01*
X-424130180Y-106653220D02*
X-425130180Y-106653220D01*
X-425130180Y-106653220D02*
X-425130180Y-106272268D01*
X-425130180Y-106272268D02*
X-425082561Y-106177030D01*
X-425082561Y-106177030D02*
X-425034942Y-106129411D01*
X-425034942Y-106129411D02*
X-424939704Y-106081792D01*
X-424939704Y-106081792D02*
X-424796847Y-106081792D01*
X-424796847Y-106081792D02*
X-424701609Y-106129411D01*
X-424701609Y-106129411D02*
X-424653990Y-106177030D01*
X-424653990Y-106177030D02*
X-424606371Y-106272268D01*
X-424606371Y-106272268D02*
X-424606371Y-106653220D01*
X-424130180Y-105653220D02*
X-425130180Y-105653220D01*
X-425130180Y-104986554D02*
X-425130180Y-104796078D01*
X-425130180Y-104796078D02*
X-425082561Y-104700840D01*
X-425082561Y-104700840D02*
X-424987323Y-104605602D01*
X-424987323Y-104605602D02*
X-424796847Y-104557983D01*
X-424796847Y-104557983D02*
X-424463514Y-104557983D01*
X-424463514Y-104557983D02*
X-424273038Y-104605602D01*
X-424273038Y-104605602D02*
X-424177800Y-104700840D01*
X-424177800Y-104700840D02*
X-424130180Y-104796078D01*
X-424130180Y-104796078D02*
X-424130180Y-104986554D01*
X-424130180Y-104986554D02*
X-424177800Y-105081792D01*
X-424177800Y-105081792D02*
X-424273038Y-105177030D01*
X-424273038Y-105177030D02*
X-424463514Y-105224649D01*
X-424463514Y-105224649D02*
X-424796847Y-105224649D01*
X-424796847Y-105224649D02*
X-424987323Y-105177030D01*
X-424987323Y-105177030D02*
X-425082561Y-105081792D01*
X-425082561Y-105081792D02*
X-425130180Y-104986554D01*
X-424130180Y-103605602D02*
X-424130180Y-104177030D01*
X-424130180Y-103891316D02*
X-425130180Y-103891316D01*
X-425130180Y-103891316D02*
X-424987323Y-103986554D01*
X-424987323Y-103986554D02*
X-424892085Y-104081792D01*
X-424892085Y-104081792D02*
X-424844466Y-104177030D01*
X-424701609Y-103034173D02*
X-424749228Y-103129411D01*
X-424749228Y-103129411D02*
X-424796847Y-103177030D01*
X-424796847Y-103177030D02*
X-424892085Y-103224649D01*
X-424892085Y-103224649D02*
X-424939704Y-103224649D01*
X-424939704Y-103224649D02*
X-425034942Y-103177030D01*
X-425034942Y-103177030D02*
X-425082561Y-103129411D01*
X-425082561Y-103129411D02*
X-425130180Y-103034173D01*
X-425130180Y-103034173D02*
X-425130180Y-102843697D01*
X-425130180Y-102843697D02*
X-425082561Y-102748459D01*
X-425082561Y-102748459D02*
X-425034942Y-102700840D01*
X-425034942Y-102700840D02*
X-424939704Y-102653221D01*
X-424939704Y-102653221D02*
X-424892085Y-102653221D01*
X-424892085Y-102653221D02*
X-424796847Y-102700840D01*
X-424796847Y-102700840D02*
X-424749228Y-102748459D01*
X-424749228Y-102748459D02*
X-424701609Y-102843697D01*
X-424701609Y-102843697D02*
X-424701609Y-103034173D01*
X-424701609Y-103034173D02*
X-424653990Y-103129411D01*
X-424653990Y-103129411D02*
X-424606371Y-103177030D01*
X-424606371Y-103177030D02*
X-424511133Y-103224649D01*
X-424511133Y-103224649D02*
X-424320657Y-103224649D01*
X-424320657Y-103224649D02*
X-424225419Y-103177030D01*
X-424225419Y-103177030D02*
X-424177800Y-103129411D01*
X-424177800Y-103129411D02*
X-424130180Y-103034173D01*
X-424130180Y-103034173D02*
X-424130180Y-102843697D01*
X-424130180Y-102843697D02*
X-424177800Y-102748459D01*
X-424177800Y-102748459D02*
X-424225419Y-102700840D01*
X-424225419Y-102700840D02*
X-424320657Y-102653221D01*
X-424320657Y-102653221D02*
X-424511133Y-102653221D01*
X-424511133Y-102653221D02*
X-424606371Y-102700840D01*
X-424606371Y-102700840D02*
X-424653990Y-102748459D01*
X-424653990Y-102748459D02*
X-424701609Y-102843697D01*
D13*
X-196830652Y-106144438D02*
X-196830652Y-104144438D01*
X-196830652Y-104144438D02*
X-196354462Y-104144438D01*
X-196354462Y-104144438D02*
X-196068747Y-104239676D01*
X-196068747Y-104239676D02*
X-195878271Y-104430152D01*
X-195878271Y-104430152D02*
X-195783033Y-104620628D01*
X-195783033Y-104620628D02*
X-195687795Y-105001580D01*
X-195687795Y-105001580D02*
X-195687795Y-105287295D01*
X-195687795Y-105287295D02*
X-195783033Y-105668247D01*
X-195783033Y-105668247D02*
X-195878271Y-105858723D01*
X-195878271Y-105858723D02*
X-196068747Y-106049200D01*
X-196068747Y-106049200D02*
X-196354462Y-106144438D01*
X-196354462Y-106144438D02*
X-196830652Y-106144438D01*
X-194925890Y-105573009D02*
X-193973509Y-105573009D01*
X-195116366Y-106144438D02*
X-194449700Y-104144438D01*
X-194449700Y-104144438D02*
X-193783033Y-106144438D01*
X-191973509Y-105953961D02*
X-192068747Y-106049200D01*
X-192068747Y-106049200D02*
X-192354461Y-106144438D01*
X-192354461Y-106144438D02*
X-192544937Y-106144438D01*
X-192544937Y-106144438D02*
X-192830652Y-106049200D01*
X-192830652Y-106049200D02*
X-193021128Y-105858723D01*
X-193021128Y-105858723D02*
X-193116366Y-105668247D01*
X-193116366Y-105668247D02*
X-193211604Y-105287295D01*
X-193211604Y-105287295D02*
X-193211604Y-105001580D01*
X-193211604Y-105001580D02*
X-193116366Y-104620628D01*
X-193116366Y-104620628D02*
X-193021128Y-104430152D01*
X-193021128Y-104430152D02*
X-192830652Y-104239676D01*
X-192830652Y-104239676D02*
X-192544937Y-104144438D01*
X-192544937Y-104144438D02*
X-192354461Y-104144438D01*
X-192354461Y-104144438D02*
X-192068747Y-104239676D01*
X-192068747Y-104239676D02*
X-191973509Y-104334914D01*
X-188640175Y-104144438D02*
X-189592556Y-104144438D01*
X-189592556Y-104144438D02*
X-189687794Y-105096819D01*
X-189687794Y-105096819D02*
X-189592556Y-105001580D01*
X-189592556Y-105001580D02*
X-189402080Y-104906342D01*
X-189402080Y-104906342D02*
X-188925889Y-104906342D01*
X-188925889Y-104906342D02*
X-188735413Y-105001580D01*
X-188735413Y-105001580D02*
X-188640175Y-105096819D01*
X-188640175Y-105096819D02*
X-188544937Y-105287295D01*
X-188544937Y-105287295D02*
X-188544937Y-105763485D01*
X-188544937Y-105763485D02*
X-188640175Y-105953961D01*
X-188640175Y-105953961D02*
X-188735413Y-106049200D01*
X-188735413Y-106049200D02*
X-188925889Y-106144438D01*
X-188925889Y-106144438D02*
X-189402080Y-106144438D01*
X-189402080Y-106144438D02*
X-189592556Y-106049200D01*
X-189592556Y-106049200D02*
X-189687794Y-105953961D01*
D10*
X-254489411Y-108169819D02*
X-255060839Y-108169819D01*
X-254775125Y-108169819D02*
X-254775125Y-107169819D01*
X-254775125Y-107169819D02*
X-254870363Y-107312676D01*
X-254870363Y-107312676D02*
X-254965601Y-107407914D01*
X-254965601Y-107407914D02*
X-255060839Y-107455533D01*
X-221239411Y-108319819D02*
X-221810839Y-108319819D01*
X-221525125Y-108319819D02*
X-221525125Y-107319819D01*
X-221525125Y-107319819D02*
X-221620363Y-107462676D01*
X-221620363Y-107462676D02*
X-221715601Y-107557914D01*
X-221715601Y-107557914D02*
X-221810839Y-107605533D01*
X-262334649Y-107453152D02*
X-262334649Y-108119819D01*
X-262572744Y-107072200D02*
X-262810839Y-107786485D01*
X-262810839Y-107786485D02*
X-262191792Y-107786485D01*
X-269539411Y-108019819D02*
X-270110839Y-108019819D01*
X-269825125Y-108019819D02*
X-269825125Y-107019819D01*
X-269825125Y-107019819D02*
X-269920363Y-107162676D01*
X-269920363Y-107162676D02*
X-270015601Y-107257914D01*
X-270015601Y-107257914D02*
X-270110839Y-107305533D01*
X-427532561Y-107179411D02*
X-427580180Y-107274649D01*
X-427580180Y-107274649D02*
X-427580180Y-107417506D01*
X-427580180Y-107417506D02*
X-427532561Y-107560363D01*
X-427532561Y-107560363D02*
X-427437323Y-107655601D01*
X-427437323Y-107655601D02*
X-427342085Y-107703220D01*
X-427342085Y-107703220D02*
X-427151609Y-107750839D01*
X-427151609Y-107750839D02*
X-427008752Y-107750839D01*
X-427008752Y-107750839D02*
X-426818276Y-107703220D01*
X-426818276Y-107703220D02*
X-426723038Y-107655601D01*
X-426723038Y-107655601D02*
X-426627800Y-107560363D01*
X-426627800Y-107560363D02*
X-426580180Y-107417506D01*
X-426580180Y-107417506D02*
X-426580180Y-107322268D01*
X-426580180Y-107322268D02*
X-426627800Y-107179411D01*
X-426627800Y-107179411D02*
X-426675419Y-107131792D01*
X-426675419Y-107131792D02*
X-427008752Y-107131792D01*
X-427008752Y-107131792D02*
X-427008752Y-107322268D01*
X-426580180Y-106703220D02*
X-427580180Y-106703220D01*
X-427580180Y-106703220D02*
X-427580180Y-106322268D01*
X-427580180Y-106322268D02*
X-427532561Y-106227030D01*
X-427532561Y-106227030D02*
X-427484942Y-106179411D01*
X-427484942Y-106179411D02*
X-427389704Y-106131792D01*
X-427389704Y-106131792D02*
X-427246847Y-106131792D01*
X-427246847Y-106131792D02*
X-427151609Y-106179411D01*
X-427151609Y-106179411D02*
X-427103990Y-106227030D01*
X-427103990Y-106227030D02*
X-427056371Y-106322268D01*
X-427056371Y-106322268D02*
X-427056371Y-106703220D01*
X-426580180Y-105703220D02*
X-427580180Y-105703220D01*
X-427580180Y-105036554D02*
X-427580180Y-104846078D01*
X-427580180Y-104846078D02*
X-427532561Y-104750840D01*
X-427532561Y-104750840D02*
X-427437323Y-104655602D01*
X-427437323Y-104655602D02*
X-427246847Y-104607983D01*
X-427246847Y-104607983D02*
X-426913514Y-104607983D01*
X-426913514Y-104607983D02*
X-426723038Y-104655602D01*
X-426723038Y-104655602D02*
X-426627800Y-104750840D01*
X-426627800Y-104750840D02*
X-426580180Y-104846078D01*
X-426580180Y-104846078D02*
X-426580180Y-105036554D01*
X-426580180Y-105036554D02*
X-426627800Y-105131792D01*
X-426627800Y-105131792D02*
X-426723038Y-105227030D01*
X-426723038Y-105227030D02*
X-426913514Y-105274649D01*
X-426913514Y-105274649D02*
X-427246847Y-105274649D01*
X-427246847Y-105274649D02*
X-427437323Y-105227030D01*
X-427437323Y-105227030D02*
X-427532561Y-105131792D01*
X-427532561Y-105131792D02*
X-427580180Y-105036554D01*
X-426580180Y-103655602D02*
X-426580180Y-104227030D01*
X-426580180Y-103941316D02*
X-427580180Y-103941316D01*
X-427580180Y-103941316D02*
X-427437323Y-104036554D01*
X-427437323Y-104036554D02*
X-427342085Y-104131792D01*
X-427342085Y-104131792D02*
X-427294466Y-104227030D01*
X-426580180Y-103179411D02*
X-426580180Y-102988935D01*
X-426580180Y-102988935D02*
X-426627800Y-102893697D01*
X-426627800Y-102893697D02*
X-426675419Y-102846078D01*
X-426675419Y-102846078D02*
X-426818276Y-102750840D01*
X-426818276Y-102750840D02*
X-427008752Y-102703221D01*
X-427008752Y-102703221D02*
X-427389704Y-102703221D01*
X-427389704Y-102703221D02*
X-427484942Y-102750840D01*
X-427484942Y-102750840D02*
X-427532561Y-102798459D01*
X-427532561Y-102798459D02*
X-427580180Y-102893697D01*
X-427580180Y-102893697D02*
X-427580180Y-103084173D01*
X-427580180Y-103084173D02*
X-427532561Y-103179411D01*
X-427532561Y-103179411D02*
X-427484942Y-103227030D01*
X-427484942Y-103227030D02*
X-427389704Y-103274649D01*
X-427389704Y-103274649D02*
X-427151609Y-103274649D01*
X-427151609Y-103274649D02*
X-427056371Y-103227030D01*
X-427056371Y-103227030D02*
X-427008752Y-103179411D01*
X-427008752Y-103179411D02*
X-426961133Y-103084173D01*
X-426961133Y-103084173D02*
X-426961133Y-102893697D01*
X-426961133Y-102893697D02*
X-427008752Y-102798459D01*
X-427008752Y-102798459D02*
X-427056371Y-102750840D01*
X-427056371Y-102750840D02*
X-427151609Y-102703221D01*
X-393075419Y-107341792D02*
X-393027800Y-107389411D01*
X-393027800Y-107389411D02*
X-392980180Y-107532268D01*
X-392980180Y-107532268D02*
X-392980180Y-107627506D01*
X-392980180Y-107627506D02*
X-393027800Y-107770363D01*
X-393027800Y-107770363D02*
X-393123038Y-107865601D01*
X-393123038Y-107865601D02*
X-393218276Y-107913220D01*
X-393218276Y-107913220D02*
X-393408752Y-107960839D01*
X-393408752Y-107960839D02*
X-393551609Y-107960839D01*
X-393551609Y-107960839D02*
X-393742085Y-107913220D01*
X-393742085Y-107913220D02*
X-393837323Y-107865601D01*
X-393837323Y-107865601D02*
X-393932561Y-107770363D01*
X-393932561Y-107770363D02*
X-393980180Y-107627506D01*
X-393980180Y-107627506D02*
X-393980180Y-107532268D01*
X-393980180Y-107532268D02*
X-393932561Y-107389411D01*
X-393932561Y-107389411D02*
X-393884942Y-107341792D01*
X-392980180Y-106913220D02*
X-393980180Y-106913220D01*
X-393503990Y-106913220D02*
X-393503990Y-106341792D01*
X-392980180Y-106341792D02*
X-393980180Y-106341792D01*
X-393980180Y-105437030D02*
X-393980180Y-105627506D01*
X-393980180Y-105627506D02*
X-393932561Y-105722744D01*
X-393932561Y-105722744D02*
X-393884942Y-105770363D01*
X-393884942Y-105770363D02*
X-393742085Y-105865601D01*
X-393742085Y-105865601D02*
X-393551609Y-105913220D01*
X-393551609Y-105913220D02*
X-393170657Y-105913220D01*
X-393170657Y-105913220D02*
X-393075419Y-105865601D01*
X-393075419Y-105865601D02*
X-393027800Y-105817982D01*
X-393027800Y-105817982D02*
X-392980180Y-105722744D01*
X-392980180Y-105722744D02*
X-392980180Y-105532268D01*
X-392980180Y-105532268D02*
X-393027800Y-105437030D01*
X-393027800Y-105437030D02*
X-393075419Y-105389411D01*
X-393075419Y-105389411D02*
X-393170657Y-105341792D01*
X-393170657Y-105341792D02*
X-393408752Y-105341792D01*
X-393408752Y-105341792D02*
X-393503990Y-105389411D01*
X-393503990Y-105389411D02*
X-393551609Y-105437030D01*
X-393551609Y-105437030D02*
X-393599228Y-105532268D01*
X-393599228Y-105532268D02*
X-393599228Y-105722744D01*
X-393599228Y-105722744D02*
X-393551609Y-105817982D01*
X-393551609Y-105817982D02*
X-393503990Y-105865601D01*
X-393503990Y-105865601D02*
X-393408752Y-105913220D01*
D14*
X-397195714Y-95991825D02*
X-396910000Y-95991825D01*
X-396910000Y-95991825D02*
X-396624286Y-96134682D01*
X-396624286Y-96134682D02*
X-396481429Y-96277539D01*
X-396481429Y-96277539D02*
X-396338571Y-96563253D01*
X-396338571Y-96563253D02*
X-396195714Y-97134682D01*
X-396195714Y-97134682D02*
X-396195714Y-97848968D01*
X-396195714Y-97848968D02*
X-396338571Y-98420396D01*
X-396338571Y-98420396D02*
X-396481429Y-98706110D01*
X-396481429Y-98706110D02*
X-396624286Y-98848968D01*
X-396624286Y-98848968D02*
X-396910000Y-98991825D01*
X-396910000Y-98991825D02*
X-397195714Y-98991825D01*
X-397195714Y-98991825D02*
X-397481429Y-98848968D01*
X-397481429Y-98848968D02*
X-397624286Y-98706110D01*
X-397624286Y-98706110D02*
X-397767143Y-98420396D01*
X-397767143Y-98420396D02*
X-397910000Y-97848968D01*
X-397910000Y-97848968D02*
X-397910000Y-97134682D01*
X-397910000Y-97134682D02*
X-397767143Y-96563253D01*
X-397767143Y-96563253D02*
X-397624286Y-96277539D01*
X-397624286Y-96277539D02*
X-397481429Y-96134682D01*
X-397481429Y-96134682D02*
X-397195714Y-95991825D01*
X-394910000Y-97848968D02*
X-392624286Y-97848968D01*
X-389624285Y-98991825D02*
X-391338571Y-98991825D01*
X-390481428Y-98991825D02*
X-390481428Y-95991825D01*
X-390481428Y-95991825D02*
X-390767142Y-96420396D01*
X-390767142Y-96420396D02*
X-391052857Y-96706110D01*
X-391052857Y-96706110D02*
X-391338571Y-96848968D01*
X-387767142Y-95991825D02*
X-387481428Y-95991825D01*
X-387481428Y-95991825D02*
X-387195714Y-96134682D01*
X-387195714Y-96134682D02*
X-387052857Y-96277539D01*
X-387052857Y-96277539D02*
X-386909999Y-96563253D01*
X-386909999Y-96563253D02*
X-386767142Y-97134682D01*
X-386767142Y-97134682D02*
X-386767142Y-97848968D01*
X-386767142Y-97848968D02*
X-386909999Y-98420396D01*
X-386909999Y-98420396D02*
X-387052857Y-98706110D01*
X-387052857Y-98706110D02*
X-387195714Y-98848968D01*
X-387195714Y-98848968D02*
X-387481428Y-98991825D01*
X-387481428Y-98991825D02*
X-387767142Y-98991825D01*
X-387767142Y-98991825D02*
X-388052857Y-98848968D01*
X-388052857Y-98848968D02*
X-388195714Y-98706110D01*
X-388195714Y-98706110D02*
X-388338571Y-98420396D01*
X-388338571Y-98420396D02*
X-388481428Y-97848968D01*
X-388481428Y-97848968D02*
X-388481428Y-97134682D01*
X-388481428Y-97134682D02*
X-388338571Y-96563253D01*
X-388338571Y-96563253D02*
X-388195714Y-96277539D01*
X-388195714Y-96277539D02*
X-388052857Y-96134682D01*
X-388052857Y-96134682D02*
X-387767142Y-95991825D01*
X-385909999Y-95991825D02*
X-384909999Y-98991825D01*
X-384909999Y-98991825D02*
X-383909999Y-95991825D01*
X-382909999Y-98991825D02*
X-382909999Y-95991825D01*
X-382909999Y-95991825D02*
X-382195713Y-95991825D01*
X-382195713Y-95991825D02*
X-381767142Y-96134682D01*
X-381767142Y-96134682D02*
X-381481427Y-96420396D01*
X-381481427Y-96420396D02*
X-381338570Y-96706110D01*
X-381338570Y-96706110D02*
X-381195713Y-97277539D01*
X-381195713Y-97277539D02*
X-381195713Y-97706110D01*
X-381195713Y-97706110D02*
X-381338570Y-98277539D01*
X-381338570Y-98277539D02*
X-381481427Y-98563253D01*
X-381481427Y-98563253D02*
X-381767142Y-98848968D01*
X-381767142Y-98848968D02*
X-382195713Y-98991825D01*
X-382195713Y-98991825D02*
X-382909999Y-98991825D01*
X-378195713Y-98706110D02*
X-378338570Y-98848968D01*
X-378338570Y-98848968D02*
X-378767142Y-98991825D01*
X-378767142Y-98991825D02*
X-379052856Y-98991825D01*
X-379052856Y-98991825D02*
X-379481427Y-98848968D01*
X-379481427Y-98848968D02*
X-379767142Y-98563253D01*
X-379767142Y-98563253D02*
X-379909999Y-98277539D01*
X-379909999Y-98277539D02*
X-380052856Y-97706110D01*
X-380052856Y-97706110D02*
X-380052856Y-97277539D01*
X-380052856Y-97277539D02*
X-379909999Y-96706110D01*
X-379909999Y-96706110D02*
X-379767142Y-96420396D01*
X-379767142Y-96420396D02*
X-379481427Y-96134682D01*
X-379481427Y-96134682D02*
X-379052856Y-95991825D01*
X-379052856Y-95991825D02*
X-378767142Y-95991825D01*
X-378767142Y-95991825D02*
X-378338570Y-96134682D01*
X-378338570Y-96134682D02*
X-378195713Y-96277539D01*
X-392695713Y-103821657D02*
X-392695713Y-100821657D01*
X-391267142Y-103821657D02*
X-391267142Y-100821657D01*
X-391267142Y-100821657D02*
X-389552856Y-103821657D01*
X-389552856Y-103821657D02*
X-389552856Y-100821657D01*
X-388124285Y-103821657D02*
X-388124285Y-100821657D01*
X-388124285Y-100821657D02*
X-386981428Y-100821657D01*
X-386981428Y-100821657D02*
X-386695713Y-100964514D01*
X-386695713Y-100964514D02*
X-386552856Y-101107371D01*
X-386552856Y-101107371D02*
X-386409999Y-101393085D01*
X-386409999Y-101393085D02*
X-386409999Y-101821657D01*
X-386409999Y-101821657D02*
X-386552856Y-102107371D01*
X-386552856Y-102107371D02*
X-386695713Y-102250228D01*
X-386695713Y-102250228D02*
X-386981428Y-102393085D01*
X-386981428Y-102393085D02*
X-388124285Y-102393085D01*
X-385124285Y-100821657D02*
X-385124285Y-103250228D01*
X-385124285Y-103250228D02*
X-384981428Y-103535942D01*
X-384981428Y-103535942D02*
X-384838571Y-103678800D01*
X-384838571Y-103678800D02*
X-384552856Y-103821657D01*
X-384552856Y-103821657D02*
X-383981428Y-103821657D01*
X-383981428Y-103821657D02*
X-383695713Y-103678800D01*
X-383695713Y-103678800D02*
X-383552856Y-103535942D01*
X-383552856Y-103535942D02*
X-383409999Y-103250228D01*
X-383409999Y-103250228D02*
X-383409999Y-100821657D01*
X-382409999Y-100821657D02*
X-380695714Y-100821657D01*
X-381552856Y-103821657D02*
X-381552856Y-100821657D01*
D10*
X-380425419Y-107341792D02*
X-380377800Y-107389411D01*
X-380377800Y-107389411D02*
X-380330180Y-107532268D01*
X-380330180Y-107532268D02*
X-380330180Y-107627506D01*
X-380330180Y-107627506D02*
X-380377800Y-107770363D01*
X-380377800Y-107770363D02*
X-380473038Y-107865601D01*
X-380473038Y-107865601D02*
X-380568276Y-107913220D01*
X-380568276Y-107913220D02*
X-380758752Y-107960839D01*
X-380758752Y-107960839D02*
X-380901609Y-107960839D01*
X-380901609Y-107960839D02*
X-381092085Y-107913220D01*
X-381092085Y-107913220D02*
X-381187323Y-107865601D01*
X-381187323Y-107865601D02*
X-381282561Y-107770363D01*
X-381282561Y-107770363D02*
X-381330180Y-107627506D01*
X-381330180Y-107627506D02*
X-381330180Y-107532268D01*
X-381330180Y-107532268D02*
X-381282561Y-107389411D01*
X-381282561Y-107389411D02*
X-381234942Y-107341792D01*
X-380330180Y-106913220D02*
X-381330180Y-106913220D01*
X-380853990Y-106913220D02*
X-380853990Y-106341792D01*
X-380330180Y-106341792D02*
X-381330180Y-106341792D01*
X-380330180Y-105341792D02*
X-380330180Y-105913220D01*
X-380330180Y-105627506D02*
X-381330180Y-105627506D01*
X-381330180Y-105627506D02*
X-381187323Y-105722744D01*
X-381187323Y-105722744D02*
X-381092085Y-105817982D01*
X-381092085Y-105817982D02*
X-381044466Y-105913220D01*
D13*
X-277550652Y-105774438D02*
X-277550652Y-103774438D01*
X-277550652Y-103774438D02*
X-277074462Y-103774438D01*
X-277074462Y-103774438D02*
X-276788747Y-103869676D01*
X-276788747Y-103869676D02*
X-276598271Y-104060152D01*
X-276598271Y-104060152D02*
X-276503033Y-104250628D01*
X-276503033Y-104250628D02*
X-276407795Y-104631580D01*
X-276407795Y-104631580D02*
X-276407795Y-104917295D01*
X-276407795Y-104917295D02*
X-276503033Y-105298247D01*
X-276503033Y-105298247D02*
X-276598271Y-105488723D01*
X-276598271Y-105488723D02*
X-276788747Y-105679200D01*
X-276788747Y-105679200D02*
X-277074462Y-105774438D01*
X-277074462Y-105774438D02*
X-277550652Y-105774438D01*
X-275645890Y-105203009D02*
X-274693509Y-105203009D01*
X-275836366Y-105774438D02*
X-275169700Y-103774438D01*
X-275169700Y-103774438D02*
X-274503033Y-105774438D01*
X-272693509Y-105583961D02*
X-272788747Y-105679200D01*
X-272788747Y-105679200D02*
X-273074461Y-105774438D01*
X-273074461Y-105774438D02*
X-273264937Y-105774438D01*
X-273264937Y-105774438D02*
X-273550652Y-105679200D01*
X-273550652Y-105679200D02*
X-273741128Y-105488723D01*
X-273741128Y-105488723D02*
X-273836366Y-105298247D01*
X-273836366Y-105298247D02*
X-273931604Y-104917295D01*
X-273931604Y-104917295D02*
X-273931604Y-104631580D01*
X-273931604Y-104631580D02*
X-273836366Y-104250628D01*
X-273836366Y-104250628D02*
X-273741128Y-104060152D01*
X-273741128Y-104060152D02*
X-273550652Y-103869676D01*
X-273550652Y-103869676D02*
X-273264937Y-103774438D01*
X-273264937Y-103774438D02*
X-273074461Y-103774438D01*
X-273074461Y-103774438D02*
X-272788747Y-103869676D01*
X-272788747Y-103869676D02*
X-272693509Y-103964914D01*
X-269931604Y-103774438D02*
X-269741127Y-103774438D01*
X-269741127Y-103774438D02*
X-269550651Y-103869676D01*
X-269550651Y-103869676D02*
X-269455413Y-103964914D01*
X-269455413Y-103964914D02*
X-269360175Y-104155390D01*
X-269360175Y-104155390D02*
X-269264937Y-104536342D01*
X-269264937Y-104536342D02*
X-269264937Y-105012533D01*
X-269264937Y-105012533D02*
X-269360175Y-105393485D01*
X-269360175Y-105393485D02*
X-269455413Y-105583961D01*
X-269455413Y-105583961D02*
X-269550651Y-105679200D01*
X-269550651Y-105679200D02*
X-269741127Y-105774438D01*
X-269741127Y-105774438D02*
X-269931604Y-105774438D01*
X-269931604Y-105774438D02*
X-270122080Y-105679200D01*
X-270122080Y-105679200D02*
X-270217318Y-105583961D01*
X-270217318Y-105583961D02*
X-270312556Y-105393485D01*
X-270312556Y-105393485D02*
X-270407794Y-105012533D01*
X-270407794Y-105012533D02*
X-270407794Y-104536342D01*
X-270407794Y-104536342D02*
X-270312556Y-104155390D01*
X-270312556Y-104155390D02*
X-270217318Y-103964914D01*
X-270217318Y-103964914D02*
X-270122080Y-103869676D01*
X-270122080Y-103869676D02*
X-269931604Y-103774438D01*
X-262640652Y-105924438D02*
X-262640652Y-103924438D01*
X-262640652Y-103924438D02*
X-262164462Y-103924438D01*
X-262164462Y-103924438D02*
X-261878747Y-104019676D01*
X-261878747Y-104019676D02*
X-261688271Y-104210152D01*
X-261688271Y-104210152D02*
X-261593033Y-104400628D01*
X-261593033Y-104400628D02*
X-261497795Y-104781580D01*
X-261497795Y-104781580D02*
X-261497795Y-105067295D01*
X-261497795Y-105067295D02*
X-261593033Y-105448247D01*
X-261593033Y-105448247D02*
X-261688271Y-105638723D01*
X-261688271Y-105638723D02*
X-261878747Y-105829200D01*
X-261878747Y-105829200D02*
X-262164462Y-105924438D01*
X-262164462Y-105924438D02*
X-262640652Y-105924438D01*
X-260735890Y-105353009D02*
X-259783509Y-105353009D01*
X-260926366Y-105924438D02*
X-260259700Y-103924438D01*
X-260259700Y-103924438D02*
X-259593033Y-105924438D01*
X-257783509Y-105733961D02*
X-257878747Y-105829200D01*
X-257878747Y-105829200D02*
X-258164461Y-105924438D01*
X-258164461Y-105924438D02*
X-258354937Y-105924438D01*
X-258354937Y-105924438D02*
X-258640652Y-105829200D01*
X-258640652Y-105829200D02*
X-258831128Y-105638723D01*
X-258831128Y-105638723D02*
X-258926366Y-105448247D01*
X-258926366Y-105448247D02*
X-259021604Y-105067295D01*
X-259021604Y-105067295D02*
X-259021604Y-104781580D01*
X-259021604Y-104781580D02*
X-258926366Y-104400628D01*
X-258926366Y-104400628D02*
X-258831128Y-104210152D01*
X-258831128Y-104210152D02*
X-258640652Y-104019676D01*
X-258640652Y-104019676D02*
X-258354937Y-103924438D01*
X-258354937Y-103924438D02*
X-258164461Y-103924438D01*
X-258164461Y-103924438D02*
X-257878747Y-104019676D01*
X-257878747Y-104019676D02*
X-257783509Y-104114914D01*
X-254354937Y-105924438D02*
X-255497794Y-105924438D01*
X-254926366Y-105924438D02*
X-254926366Y-103924438D01*
X-254926366Y-103924438D02*
X-255116842Y-104210152D01*
X-255116842Y-104210152D02*
X-255307318Y-104400628D01*
X-255307318Y-104400628D02*
X-255497794Y-104495866D01*
X-181423033Y-105979676D02*
X-181613509Y-105884438D01*
X-181613509Y-105884438D02*
X-181899223Y-105884438D01*
X-181899223Y-105884438D02*
X-182184938Y-105979676D01*
X-182184938Y-105979676D02*
X-182375414Y-106170152D01*
X-182375414Y-106170152D02*
X-182470652Y-106360628D01*
X-182470652Y-106360628D02*
X-182565890Y-106741580D01*
X-182565890Y-106741580D02*
X-182565890Y-107027295D01*
X-182565890Y-107027295D02*
X-182470652Y-107408247D01*
X-182470652Y-107408247D02*
X-182375414Y-107598723D01*
X-182375414Y-107598723D02*
X-182184938Y-107789200D01*
X-182184938Y-107789200D02*
X-181899223Y-107884438D01*
X-181899223Y-107884438D02*
X-181708747Y-107884438D01*
X-181708747Y-107884438D02*
X-181423033Y-107789200D01*
X-181423033Y-107789200D02*
X-181327795Y-107693961D01*
X-181327795Y-107693961D02*
X-181327795Y-107027295D01*
X-181327795Y-107027295D02*
X-181708747Y-107027295D01*
X-180470652Y-107884438D02*
X-180470652Y-105884438D01*
X-180470652Y-105884438D02*
X-179327795Y-107884438D01*
X-179327795Y-107884438D02*
X-179327795Y-105884438D01*
X-178375414Y-107884438D02*
X-178375414Y-105884438D01*
X-178375414Y-105884438D02*
X-177899224Y-105884438D01*
X-177899224Y-105884438D02*
X-177613509Y-105979676D01*
X-177613509Y-105979676D02*
X-177423033Y-106170152D01*
X-177423033Y-106170152D02*
X-177327795Y-106360628D01*
X-177327795Y-106360628D02*
X-177232557Y-106741580D01*
X-177232557Y-106741580D02*
X-177232557Y-107027295D01*
X-177232557Y-107027295D02*
X-177327795Y-107408247D01*
X-177327795Y-107408247D02*
X-177423033Y-107598723D01*
X-177423033Y-107598723D02*
X-177613509Y-107789200D01*
X-177613509Y-107789200D02*
X-177899224Y-107884438D01*
X-177899224Y-107884438D02*
X-178375414Y-107884438D01*
D10*
X-194758458Y-107319819D02*
X-194139411Y-107319819D01*
X-194139411Y-107319819D02*
X-194472744Y-107700771D01*
X-194472744Y-107700771D02*
X-194329887Y-107700771D01*
X-194329887Y-107700771D02*
X-194234649Y-107748390D01*
X-194234649Y-107748390D02*
X-194187030Y-107796009D01*
X-194187030Y-107796009D02*
X-194139411Y-107891247D01*
X-194139411Y-107891247D02*
X-194139411Y-108129342D01*
X-194139411Y-108129342D02*
X-194187030Y-108224580D01*
X-194187030Y-108224580D02*
X-194234649Y-108272200D01*
X-194234649Y-108272200D02*
X-194329887Y-108319819D01*
X-194329887Y-108319819D02*
X-194615601Y-108319819D01*
X-194615601Y-108319819D02*
X-194710839Y-108272200D01*
X-194710839Y-108272200D02*
X-194758458Y-108224580D01*
X-196784649Y-107703152D02*
X-196784649Y-108369819D01*
X-197022744Y-107322200D02*
X-197260839Y-108036485D01*
X-197260839Y-108036485D02*
X-196641792Y-108036485D01*
X-277384649Y-107303152D02*
X-277384649Y-107969819D01*
X-277622744Y-106922200D02*
X-277860839Y-107636485D01*
X-277860839Y-107636485D02*
X-277241792Y-107636485D01*
D14*
X-253009549Y-98091657D02*
X-252723835Y-98091657D01*
X-252723835Y-98091657D02*
X-252438121Y-98234514D01*
X-252438121Y-98234514D02*
X-252295264Y-98377371D01*
X-252295264Y-98377371D02*
X-252152406Y-98663085D01*
X-252152406Y-98663085D02*
X-252009549Y-99234514D01*
X-252009549Y-99234514D02*
X-252009549Y-99948800D01*
X-252009549Y-99948800D02*
X-252152406Y-100520228D01*
X-252152406Y-100520228D02*
X-252295264Y-100805942D01*
X-252295264Y-100805942D02*
X-252438121Y-100948800D01*
X-252438121Y-100948800D02*
X-252723835Y-101091657D01*
X-252723835Y-101091657D02*
X-253009549Y-101091657D01*
X-253009549Y-101091657D02*
X-253295264Y-100948800D01*
X-253295264Y-100948800D02*
X-253438121Y-100805942D01*
X-253438121Y-100805942D02*
X-253580978Y-100520228D01*
X-253580978Y-100520228D02*
X-253723835Y-99948800D01*
X-253723835Y-99948800D02*
X-253723835Y-99234514D01*
X-253723835Y-99234514D02*
X-253580978Y-98663085D01*
X-253580978Y-98663085D02*
X-253438121Y-98377371D01*
X-253438121Y-98377371D02*
X-253295264Y-98234514D01*
X-253295264Y-98234514D02*
X-253009549Y-98091657D01*
X-250723835Y-99948800D02*
X-248438121Y-99948800D01*
X-245438120Y-101091657D02*
X-247152406Y-101091657D01*
X-246295263Y-101091657D02*
X-246295263Y-98091657D01*
X-246295263Y-98091657D02*
X-246580977Y-98520228D01*
X-246580977Y-98520228D02*
X-246866692Y-98805942D01*
X-246866692Y-98805942D02*
X-247152406Y-98948800D01*
X-243580977Y-98091657D02*
X-243295263Y-98091657D01*
X-243295263Y-98091657D02*
X-243009549Y-98234514D01*
X-243009549Y-98234514D02*
X-242866692Y-98377371D01*
X-242866692Y-98377371D02*
X-242723834Y-98663085D01*
X-242723834Y-98663085D02*
X-242580977Y-99234514D01*
X-242580977Y-99234514D02*
X-242580977Y-99948800D01*
X-242580977Y-99948800D02*
X-242723834Y-100520228D01*
X-242723834Y-100520228D02*
X-242866692Y-100805942D01*
X-242866692Y-100805942D02*
X-243009549Y-100948800D01*
X-243009549Y-100948800D02*
X-243295263Y-101091657D01*
X-243295263Y-101091657D02*
X-243580977Y-101091657D01*
X-243580977Y-101091657D02*
X-243866692Y-100948800D01*
X-243866692Y-100948800D02*
X-244009549Y-100805942D01*
X-244009549Y-100805942D02*
X-244152406Y-100520228D01*
X-244152406Y-100520228D02*
X-244295263Y-99948800D01*
X-244295263Y-99948800D02*
X-244295263Y-99234514D01*
X-244295263Y-99234514D02*
X-244152406Y-98663085D01*
X-244152406Y-98663085D02*
X-244009549Y-98377371D01*
X-244009549Y-98377371D02*
X-243866692Y-98234514D01*
X-243866692Y-98234514D02*
X-243580977Y-98091657D01*
X-241723834Y-98091657D02*
X-240723834Y-101091657D01*
X-240723834Y-101091657D02*
X-239723834Y-98091657D01*
X-238723834Y-101091657D02*
X-238723834Y-98091657D01*
X-238723834Y-98091657D02*
X-238009548Y-98091657D01*
X-238009548Y-98091657D02*
X-237580977Y-98234514D01*
X-237580977Y-98234514D02*
X-237295262Y-98520228D01*
X-237295262Y-98520228D02*
X-237152405Y-98805942D01*
X-237152405Y-98805942D02*
X-237009548Y-99377371D01*
X-237009548Y-99377371D02*
X-237009548Y-99805942D01*
X-237009548Y-99805942D02*
X-237152405Y-100377371D01*
X-237152405Y-100377371D02*
X-237295262Y-100663085D01*
X-237295262Y-100663085D02*
X-237580977Y-100948800D01*
X-237580977Y-100948800D02*
X-238009548Y-101091657D01*
X-238009548Y-101091657D02*
X-238723834Y-101091657D01*
X-234009548Y-100805942D02*
X-234152405Y-100948800D01*
X-234152405Y-100948800D02*
X-234580977Y-101091657D01*
X-234580977Y-101091657D02*
X-234866691Y-101091657D01*
X-234866691Y-101091657D02*
X-235295262Y-100948800D01*
X-235295262Y-100948800D02*
X-235580977Y-100663085D01*
X-235580977Y-100663085D02*
X-235723834Y-100377371D01*
X-235723834Y-100377371D02*
X-235866691Y-99805942D01*
X-235866691Y-99805942D02*
X-235866691Y-99377371D01*
X-235866691Y-99377371D02*
X-235723834Y-98805942D01*
X-235723834Y-98805942D02*
X-235580977Y-98520228D01*
X-235580977Y-98520228D02*
X-235295262Y-98234514D01*
X-235295262Y-98234514D02*
X-234866691Y-98091657D01*
X-234866691Y-98091657D02*
X-234580977Y-98091657D01*
X-234580977Y-98091657D02*
X-234152405Y-98234514D01*
X-234152405Y-98234514D02*
X-234009548Y-98377371D01*
X-229866691Y-98091657D02*
X-229295263Y-98091657D01*
X-229295263Y-98091657D02*
X-229009548Y-98234514D01*
X-229009548Y-98234514D02*
X-228723834Y-98520228D01*
X-228723834Y-98520228D02*
X-228580977Y-99091657D01*
X-228580977Y-99091657D02*
X-228580977Y-100091657D01*
X-228580977Y-100091657D02*
X-228723834Y-100663085D01*
X-228723834Y-100663085D02*
X-229009548Y-100948800D01*
X-229009548Y-100948800D02*
X-229295263Y-101091657D01*
X-229295263Y-101091657D02*
X-229866691Y-101091657D01*
X-229866691Y-101091657D02*
X-230152406Y-100948800D01*
X-230152406Y-100948800D02*
X-230438120Y-100663085D01*
X-230438120Y-100663085D02*
X-230580977Y-100091657D01*
X-230580977Y-100091657D02*
X-230580977Y-99091657D01*
X-230580977Y-99091657D02*
X-230438120Y-98520228D01*
X-230438120Y-98520228D02*
X-230152406Y-98234514D01*
X-230152406Y-98234514D02*
X-229866691Y-98091657D01*
X-227295263Y-98091657D02*
X-227295263Y-100520228D01*
X-227295263Y-100520228D02*
X-227152406Y-100805942D01*
X-227152406Y-100805942D02*
X-227009549Y-100948800D01*
X-227009549Y-100948800D02*
X-226723834Y-101091657D01*
X-226723834Y-101091657D02*
X-226152406Y-101091657D01*
X-226152406Y-101091657D02*
X-225866691Y-100948800D01*
X-225866691Y-100948800D02*
X-225723834Y-100805942D01*
X-225723834Y-100805942D02*
X-225580977Y-100520228D01*
X-225580977Y-100520228D02*
X-225580977Y-98091657D01*
X-224580977Y-98091657D02*
X-222866692Y-98091657D01*
X-223723834Y-101091657D02*
X-223723834Y-98091657D01*
X-221866692Y-101091657D02*
X-221866692Y-98091657D01*
X-221866692Y-98091657D02*
X-220723835Y-98091657D01*
X-220723835Y-98091657D02*
X-220438120Y-98234514D01*
X-220438120Y-98234514D02*
X-220295263Y-98377371D01*
X-220295263Y-98377371D02*
X-220152406Y-98663085D01*
X-220152406Y-98663085D02*
X-220152406Y-99091657D01*
X-220152406Y-99091657D02*
X-220295263Y-99377371D01*
X-220295263Y-99377371D02*
X-220438120Y-99520228D01*
X-220438120Y-99520228D02*
X-220723835Y-99663085D01*
X-220723835Y-99663085D02*
X-221866692Y-99663085D01*
X-218866692Y-98091657D02*
X-218866692Y-100520228D01*
X-218866692Y-100520228D02*
X-218723835Y-100805942D01*
X-218723835Y-100805942D02*
X-218580978Y-100948800D01*
X-218580978Y-100948800D02*
X-218295263Y-101091657D01*
X-218295263Y-101091657D02*
X-217723835Y-101091657D01*
X-217723835Y-101091657D02*
X-217438120Y-100948800D01*
X-217438120Y-100948800D02*
X-217295263Y-100805942D01*
X-217295263Y-100805942D02*
X-217152406Y-100520228D01*
X-217152406Y-100520228D02*
X-217152406Y-98091657D01*
X-216152406Y-98091657D02*
X-214438121Y-98091657D01*
X-215295263Y-101091657D02*
X-215295263Y-98091657D01*
D15*
X-459914098Y-111754619D02*
X-460247431Y-111278428D01*
X-460485526Y-111754619D02*
X-460485526Y-110754619D01*
X-460485526Y-110754619D02*
X-460104574Y-110754619D01*
X-460104574Y-110754619D02*
X-460009336Y-110802238D01*
X-460009336Y-110802238D02*
X-459961717Y-110849857D01*
X-459961717Y-110849857D02*
X-459914098Y-110945095D01*
X-459914098Y-110945095D02*
X-459914098Y-111087952D01*
X-459914098Y-111087952D02*
X-459961717Y-111183190D01*
X-459961717Y-111183190D02*
X-460009336Y-111230809D01*
X-460009336Y-111230809D02*
X-460104574Y-111278428D01*
X-460104574Y-111278428D02*
X-460485526Y-111278428D01*
X-458199812Y-111754619D02*
X-458771240Y-111754619D01*
X-458485526Y-111754619D02*
X-458485526Y-110754619D01*
X-458485526Y-110754619D02*
X-458580764Y-110897476D01*
X-458580764Y-110897476D02*
X-458676002Y-110992714D01*
X-458676002Y-110992714D02*
X-458771240Y-111040333D01*
X-457771240Y-111659380D02*
X-457723621Y-111707000D01*
X-457723621Y-111707000D02*
X-457771240Y-111754619D01*
X-457771240Y-111754619D02*
X-457818859Y-111707000D01*
X-457818859Y-111707000D02*
X-457771240Y-111659380D01*
X-457771240Y-111659380D02*
X-457771240Y-111754619D01*
X-457104574Y-110754619D02*
X-457009336Y-110754619D01*
X-457009336Y-110754619D02*
X-456914098Y-110802238D01*
X-456914098Y-110802238D02*
X-456866479Y-110849857D01*
X-456866479Y-110849857D02*
X-456818860Y-110945095D01*
X-456818860Y-110945095D02*
X-456771241Y-111135571D01*
X-456771241Y-111135571D02*
X-456771241Y-111373666D01*
X-456771241Y-111373666D02*
X-456818860Y-111564142D01*
X-456818860Y-111564142D02*
X-456866479Y-111659380D01*
X-456866479Y-111659380D02*
X-456914098Y-111707000D01*
X-456914098Y-111707000D02*
X-457009336Y-111754619D01*
X-457009336Y-111754619D02*
X-457104574Y-111754619D01*
X-457104574Y-111754619D02*
X-457199812Y-111707000D01*
X-457199812Y-111707000D02*
X-457247431Y-111659380D01*
X-457247431Y-111659380D02*
X-457295050Y-111564142D01*
X-457295050Y-111564142D02*
X-457342669Y-111373666D01*
X-457342669Y-111373666D02*
X-457342669Y-111135571D01*
X-457342669Y-111135571D02*
X-457295050Y-110945095D01*
X-457295050Y-110945095D02*
X-457247431Y-110849857D01*
X-457247431Y-110849857D02*
X-457199812Y-110802238D01*
X-457199812Y-110802238D02*
X-457104574Y-110754619D01*
D10*
X-227058458Y-107219819D02*
X-226439411Y-107219819D01*
X-226439411Y-107219819D02*
X-226772744Y-107600771D01*
X-226772744Y-107600771D02*
X-226629887Y-107600771D01*
X-226629887Y-107600771D02*
X-226534649Y-107648390D01*
X-226534649Y-107648390D02*
X-226487030Y-107696009D01*
X-226487030Y-107696009D02*
X-226439411Y-107791247D01*
X-226439411Y-107791247D02*
X-226439411Y-108029342D01*
X-226439411Y-108029342D02*
X-226487030Y-108124580D01*
X-226487030Y-108124580D02*
X-226534649Y-108172200D01*
X-226534649Y-108172200D02*
X-226629887Y-108219819D01*
X-226629887Y-108219819D02*
X-226915601Y-108219819D01*
X-226915601Y-108219819D02*
X-227010839Y-108172200D01*
X-227010839Y-108172200D02*
X-227058458Y-108124580D01*
X-430132561Y-107129411D02*
X-430180180Y-107224649D01*
X-430180180Y-107224649D02*
X-430180180Y-107367506D01*
X-430180180Y-107367506D02*
X-430132561Y-107510363D01*
X-430132561Y-107510363D02*
X-430037323Y-107605601D01*
X-430037323Y-107605601D02*
X-429942085Y-107653220D01*
X-429942085Y-107653220D02*
X-429751609Y-107700839D01*
X-429751609Y-107700839D02*
X-429608752Y-107700839D01*
X-429608752Y-107700839D02*
X-429418276Y-107653220D01*
X-429418276Y-107653220D02*
X-429323038Y-107605601D01*
X-429323038Y-107605601D02*
X-429227800Y-107510363D01*
X-429227800Y-107510363D02*
X-429180180Y-107367506D01*
X-429180180Y-107367506D02*
X-429180180Y-107272268D01*
X-429180180Y-107272268D02*
X-429227800Y-107129411D01*
X-429227800Y-107129411D02*
X-429275419Y-107081792D01*
X-429275419Y-107081792D02*
X-429608752Y-107081792D01*
X-429608752Y-107081792D02*
X-429608752Y-107272268D01*
X-429180180Y-106653220D02*
X-430180180Y-106653220D01*
X-430180180Y-106653220D02*
X-430180180Y-106272268D01*
X-430180180Y-106272268D02*
X-430132561Y-106177030D01*
X-430132561Y-106177030D02*
X-430084942Y-106129411D01*
X-430084942Y-106129411D02*
X-429989704Y-106081792D01*
X-429989704Y-106081792D02*
X-429846847Y-106081792D01*
X-429846847Y-106081792D02*
X-429751609Y-106129411D01*
X-429751609Y-106129411D02*
X-429703990Y-106177030D01*
X-429703990Y-106177030D02*
X-429656371Y-106272268D01*
X-429656371Y-106272268D02*
X-429656371Y-106653220D01*
X-429180180Y-105653220D02*
X-430180180Y-105653220D01*
X-430180180Y-104986554D02*
X-430180180Y-104796078D01*
X-430180180Y-104796078D02*
X-430132561Y-104700840D01*
X-430132561Y-104700840D02*
X-430037323Y-104605602D01*
X-430037323Y-104605602D02*
X-429846847Y-104557983D01*
X-429846847Y-104557983D02*
X-429513514Y-104557983D01*
X-429513514Y-104557983D02*
X-429323038Y-104605602D01*
X-429323038Y-104605602D02*
X-429227800Y-104700840D01*
X-429227800Y-104700840D02*
X-429180180Y-104796078D01*
X-429180180Y-104796078D02*
X-429180180Y-104986554D01*
X-429180180Y-104986554D02*
X-429227800Y-105081792D01*
X-429227800Y-105081792D02*
X-429323038Y-105177030D01*
X-429323038Y-105177030D02*
X-429513514Y-105224649D01*
X-429513514Y-105224649D02*
X-429846847Y-105224649D01*
X-429846847Y-105224649D02*
X-430037323Y-105177030D01*
X-430037323Y-105177030D02*
X-430132561Y-105081792D01*
X-430132561Y-105081792D02*
X-430180180Y-104986554D01*
X-429180180Y-103605602D02*
X-429180180Y-104177030D01*
X-429180180Y-103891316D02*
X-430180180Y-103891316D01*
X-430180180Y-103891316D02*
X-430037323Y-103986554D01*
X-430037323Y-103986554D02*
X-429942085Y-104081792D01*
X-429942085Y-104081792D02*
X-429894466Y-104177030D01*
X-430180180Y-103272268D02*
X-430180180Y-102653221D01*
X-430180180Y-102653221D02*
X-429799228Y-102986554D01*
X-429799228Y-102986554D02*
X-429799228Y-102843697D01*
X-429799228Y-102843697D02*
X-429751609Y-102748459D01*
X-429751609Y-102748459D02*
X-429703990Y-102700840D01*
X-429703990Y-102700840D02*
X-429608752Y-102653221D01*
X-429608752Y-102653221D02*
X-429370657Y-102653221D01*
X-429370657Y-102653221D02*
X-429275419Y-102700840D01*
X-429275419Y-102700840D02*
X-429227800Y-102748459D01*
X-429227800Y-102748459D02*
X-429180180Y-102843697D01*
X-429180180Y-102843697D02*
X-429180180Y-103129411D01*
X-429180180Y-103129411D02*
X-429227800Y-103224649D01*
X-429227800Y-103224649D02*
X-429275419Y-103272268D01*
D16*
X-147223622Y-106910677D02*
X-147166480Y-106967820D01*
X-147166480Y-106967820D02*
X-147109337Y-107139248D01*
X-147109337Y-107139248D02*
X-147109337Y-107253534D01*
X-147109337Y-107253534D02*
X-147166480Y-107424963D01*
X-147166480Y-107424963D02*
X-147280765Y-107539248D01*
X-147280765Y-107539248D02*
X-147395051Y-107596391D01*
X-147395051Y-107596391D02*
X-147623622Y-107653534D01*
X-147623622Y-107653534D02*
X-147795051Y-107653534D01*
X-147795051Y-107653534D02*
X-148023622Y-107596391D01*
X-148023622Y-107596391D02*
X-148137908Y-107539248D01*
X-148137908Y-107539248D02*
X-148252194Y-107424963D01*
X-148252194Y-107424963D02*
X-148309337Y-107253534D01*
X-148309337Y-107253534D02*
X-148309337Y-107139248D01*
X-148309337Y-107139248D02*
X-148252194Y-106967820D01*
X-148252194Y-106967820D02*
X-148195051Y-106910677D01*
X-147109337Y-106224963D02*
X-147166480Y-106339248D01*
X-147166480Y-106339248D02*
X-147223622Y-106396391D01*
X-147223622Y-106396391D02*
X-147337908Y-106453534D01*
X-147337908Y-106453534D02*
X-147680765Y-106453534D01*
X-147680765Y-106453534D02*
X-147795051Y-106396391D01*
X-147795051Y-106396391D02*
X-147852194Y-106339248D01*
X-147852194Y-106339248D02*
X-147909337Y-106224963D01*
X-147909337Y-106224963D02*
X-147909337Y-106053534D01*
X-147909337Y-106053534D02*
X-147852194Y-105939248D01*
X-147852194Y-105939248D02*
X-147795051Y-105882106D01*
X-147795051Y-105882106D02*
X-147680765Y-105824963D01*
X-147680765Y-105824963D02*
X-147337908Y-105824963D01*
X-147337908Y-105824963D02*
X-147223622Y-105882106D01*
X-147223622Y-105882106D02*
X-147166480Y-105939248D01*
X-147166480Y-105939248D02*
X-147109337Y-106053534D01*
X-147109337Y-106053534D02*
X-147109337Y-106224963D01*
X-147109337Y-105310677D02*
X-147909337Y-105310677D01*
X-147795051Y-105310677D02*
X-147852194Y-105253534D01*
X-147852194Y-105253534D02*
X-147909337Y-105139249D01*
X-147909337Y-105139249D02*
X-147909337Y-104967820D01*
X-147909337Y-104967820D02*
X-147852194Y-104853534D01*
X-147852194Y-104853534D02*
X-147737908Y-104796392D01*
X-147737908Y-104796392D02*
X-147109337Y-104796392D01*
X-147737908Y-104796392D02*
X-147852194Y-104739249D01*
X-147852194Y-104739249D02*
X-147909337Y-104624963D01*
X-147909337Y-104624963D02*
X-147909337Y-104453534D01*
X-147909337Y-104453534D02*
X-147852194Y-104339249D01*
X-147852194Y-104339249D02*
X-147737908Y-104282106D01*
X-147737908Y-104282106D02*
X-147109337Y-104282106D01*
X-147109337Y-103710677D02*
X-147909337Y-103710677D01*
X-147795051Y-103710677D02*
X-147852194Y-103653534D01*
X-147852194Y-103653534D02*
X-147909337Y-103539249D01*
X-147909337Y-103539249D02*
X-147909337Y-103367820D01*
X-147909337Y-103367820D02*
X-147852194Y-103253534D01*
X-147852194Y-103253534D02*
X-147737908Y-103196392D01*
X-147737908Y-103196392D02*
X-147109337Y-103196392D01*
X-147737908Y-103196392D02*
X-147852194Y-103139249D01*
X-147852194Y-103139249D02*
X-147909337Y-103024963D01*
X-147909337Y-103024963D02*
X-147909337Y-102853534D01*
X-147909337Y-102853534D02*
X-147852194Y-102739249D01*
X-147852194Y-102739249D02*
X-147737908Y-102682106D01*
X-147737908Y-102682106D02*
X-147109337Y-102682106D01*
X-147109337Y-101939249D02*
X-147166480Y-102053534D01*
X-147166480Y-102053534D02*
X-147223622Y-102110677D01*
X-147223622Y-102110677D02*
X-147337908Y-102167820D01*
X-147337908Y-102167820D02*
X-147680765Y-102167820D01*
X-147680765Y-102167820D02*
X-147795051Y-102110677D01*
X-147795051Y-102110677D02*
X-147852194Y-102053534D01*
X-147852194Y-102053534D02*
X-147909337Y-101939249D01*
X-147909337Y-101939249D02*
X-147909337Y-101767820D01*
X-147909337Y-101767820D02*
X-147852194Y-101653534D01*
X-147852194Y-101653534D02*
X-147795051Y-101596392D01*
X-147795051Y-101596392D02*
X-147680765Y-101539249D01*
X-147680765Y-101539249D02*
X-147337908Y-101539249D01*
X-147337908Y-101539249D02*
X-147223622Y-101596392D01*
X-147223622Y-101596392D02*
X-147166480Y-101653534D01*
X-147166480Y-101653534D02*
X-147109337Y-101767820D01*
X-147109337Y-101767820D02*
X-147109337Y-101939249D01*
X-147909337Y-101024963D02*
X-147109337Y-101024963D01*
X-147795051Y-101024963D02*
X-147852194Y-100967820D01*
X-147852194Y-100967820D02*
X-147909337Y-100853535D01*
X-147909337Y-100853535D02*
X-147909337Y-100682106D01*
X-147909337Y-100682106D02*
X-147852194Y-100567820D01*
X-147852194Y-100567820D02*
X-147737908Y-100510678D01*
X-147737908Y-100510678D02*
X-147109337Y-100510678D01*
D10*
X-208210839Y-107215057D02*
X-208163220Y-107167438D01*
X-208163220Y-107167438D02*
X-208067982Y-107119819D01*
X-208067982Y-107119819D02*
X-207829887Y-107119819D01*
X-207829887Y-107119819D02*
X-207734649Y-107167438D01*
X-207734649Y-107167438D02*
X-207687030Y-107215057D01*
X-207687030Y-107215057D02*
X-207639411Y-107310295D01*
X-207639411Y-107310295D02*
X-207639411Y-107405533D01*
X-207639411Y-107405533D02*
X-207687030Y-107548390D01*
X-207687030Y-107548390D02*
X-208258458Y-108119819D01*
X-208258458Y-108119819D02*
X-207639411Y-108119819D01*
D13*
X-245180652Y-105964438D02*
X-245180652Y-103964438D01*
X-245180652Y-103964438D02*
X-244704462Y-103964438D01*
X-244704462Y-103964438D02*
X-244418747Y-104059676D01*
X-244418747Y-104059676D02*
X-244228271Y-104250152D01*
X-244228271Y-104250152D02*
X-244133033Y-104440628D01*
X-244133033Y-104440628D02*
X-244037795Y-104821580D01*
X-244037795Y-104821580D02*
X-244037795Y-105107295D01*
X-244037795Y-105107295D02*
X-244133033Y-105488247D01*
X-244133033Y-105488247D02*
X-244228271Y-105678723D01*
X-244228271Y-105678723D02*
X-244418747Y-105869200D01*
X-244418747Y-105869200D02*
X-244704462Y-105964438D01*
X-244704462Y-105964438D02*
X-245180652Y-105964438D01*
X-243275890Y-105393009D02*
X-242323509Y-105393009D01*
X-243466366Y-105964438D02*
X-242799700Y-103964438D01*
X-242799700Y-103964438D02*
X-242133033Y-105964438D01*
X-240323509Y-105773961D02*
X-240418747Y-105869200D01*
X-240418747Y-105869200D02*
X-240704461Y-105964438D01*
X-240704461Y-105964438D02*
X-240894937Y-105964438D01*
X-240894937Y-105964438D02*
X-241180652Y-105869200D01*
X-241180652Y-105869200D02*
X-241371128Y-105678723D01*
X-241371128Y-105678723D02*
X-241466366Y-105488247D01*
X-241466366Y-105488247D02*
X-241561604Y-105107295D01*
X-241561604Y-105107295D02*
X-241561604Y-104821580D01*
X-241561604Y-104821580D02*
X-241466366Y-104440628D01*
X-241466366Y-104440628D02*
X-241371128Y-104250152D01*
X-241371128Y-104250152D02*
X-241180652Y-104059676D01*
X-241180652Y-104059676D02*
X-240894937Y-103964438D01*
X-240894937Y-103964438D02*
X-240704461Y-103964438D01*
X-240704461Y-103964438D02*
X-240418747Y-104059676D01*
X-240418747Y-104059676D02*
X-240323509Y-104154914D01*
X-238037794Y-104154914D02*
X-237942556Y-104059676D01*
X-237942556Y-104059676D02*
X-237752080Y-103964438D01*
X-237752080Y-103964438D02*
X-237275889Y-103964438D01*
X-237275889Y-103964438D02*
X-237085413Y-104059676D01*
X-237085413Y-104059676D02*
X-236990175Y-104154914D01*
X-236990175Y-104154914D02*
X-236894937Y-104345390D01*
X-236894937Y-104345390D02*
X-236894937Y-104535866D01*
X-236894937Y-104535866D02*
X-236990175Y-104821580D01*
X-236990175Y-104821580D02*
X-238133032Y-105964438D01*
X-238133032Y-105964438D02*
X-236894937Y-105964438D01*
D10*
X-237239411Y-108219819D02*
X-237810839Y-108219819D01*
X-237525125Y-108219819D02*
X-237525125Y-107219819D01*
X-237525125Y-107219819D02*
X-237620363Y-107362676D01*
X-237620363Y-107362676D02*
X-237715601Y-107457914D01*
X-237715601Y-107457914D02*
X-237810839Y-107505533D01*
X-243058458Y-107119819D02*
X-242439411Y-107119819D01*
X-242439411Y-107119819D02*
X-242772744Y-107500771D01*
X-242772744Y-107500771D02*
X-242629887Y-107500771D01*
X-242629887Y-107500771D02*
X-242534649Y-107548390D01*
X-242534649Y-107548390D02*
X-242487030Y-107596009D01*
X-242487030Y-107596009D02*
X-242439411Y-107691247D01*
X-242439411Y-107691247D02*
X-242439411Y-107929342D01*
X-242439411Y-107929342D02*
X-242487030Y-108024580D01*
X-242487030Y-108024580D02*
X-242534649Y-108072200D01*
X-242534649Y-108072200D02*
X-242629887Y-108119819D01*
X-242629887Y-108119819D02*
X-242915601Y-108119819D01*
X-242915601Y-108119819D02*
X-243010839Y-108072200D01*
X-243010839Y-108072200D02*
X-243058458Y-108024580D01*
X-435172561Y-107159411D02*
X-435220180Y-107254649D01*
X-435220180Y-107254649D02*
X-435220180Y-107397506D01*
X-435220180Y-107397506D02*
X-435172561Y-107540363D01*
X-435172561Y-107540363D02*
X-435077323Y-107635601D01*
X-435077323Y-107635601D02*
X-434982085Y-107683220D01*
X-434982085Y-107683220D02*
X-434791609Y-107730839D01*
X-434791609Y-107730839D02*
X-434648752Y-107730839D01*
X-434648752Y-107730839D02*
X-434458276Y-107683220D01*
X-434458276Y-107683220D02*
X-434363038Y-107635601D01*
X-434363038Y-107635601D02*
X-434267800Y-107540363D01*
X-434267800Y-107540363D02*
X-434220180Y-107397506D01*
X-434220180Y-107397506D02*
X-434220180Y-107302268D01*
X-434220180Y-107302268D02*
X-434267800Y-107159411D01*
X-434267800Y-107159411D02*
X-434315419Y-107111792D01*
X-434315419Y-107111792D02*
X-434648752Y-107111792D01*
X-434648752Y-107111792D02*
X-434648752Y-107302268D01*
X-434220180Y-106683220D02*
X-435220180Y-106683220D01*
X-435220180Y-106683220D02*
X-435220180Y-106302268D01*
X-435220180Y-106302268D02*
X-435172561Y-106207030D01*
X-435172561Y-106207030D02*
X-435124942Y-106159411D01*
X-435124942Y-106159411D02*
X-435029704Y-106111792D01*
X-435029704Y-106111792D02*
X-434886847Y-106111792D01*
X-434886847Y-106111792D02*
X-434791609Y-106159411D01*
X-434791609Y-106159411D02*
X-434743990Y-106207030D01*
X-434743990Y-106207030D02*
X-434696371Y-106302268D01*
X-434696371Y-106302268D02*
X-434696371Y-106683220D01*
X-434220180Y-105683220D02*
X-435220180Y-105683220D01*
X-435220180Y-105016554D02*
X-435220180Y-104826078D01*
X-435220180Y-104826078D02*
X-435172561Y-104730840D01*
X-435172561Y-104730840D02*
X-435077323Y-104635602D01*
X-435077323Y-104635602D02*
X-434886847Y-104587983D01*
X-434886847Y-104587983D02*
X-434553514Y-104587983D01*
X-434553514Y-104587983D02*
X-434363038Y-104635602D01*
X-434363038Y-104635602D02*
X-434267800Y-104730840D01*
X-434267800Y-104730840D02*
X-434220180Y-104826078D01*
X-434220180Y-104826078D02*
X-434220180Y-105016554D01*
X-434220180Y-105016554D02*
X-434267800Y-105111792D01*
X-434267800Y-105111792D02*
X-434363038Y-105207030D01*
X-434363038Y-105207030D02*
X-434553514Y-105254649D01*
X-434553514Y-105254649D02*
X-434886847Y-105254649D01*
X-434886847Y-105254649D02*
X-435077323Y-105207030D01*
X-435077323Y-105207030D02*
X-435172561Y-105111792D01*
X-435172561Y-105111792D02*
X-435220180Y-105016554D01*
X-435124942Y-104207030D02*
X-435172561Y-104159411D01*
X-435172561Y-104159411D02*
X-435220180Y-104064173D01*
X-435220180Y-104064173D02*
X-435220180Y-103826078D01*
X-435220180Y-103826078D02*
X-435172561Y-103730840D01*
X-435172561Y-103730840D02*
X-435124942Y-103683221D01*
X-435124942Y-103683221D02*
X-435029704Y-103635602D01*
X-435029704Y-103635602D02*
X-434934466Y-103635602D01*
X-434934466Y-103635602D02*
X-434791609Y-103683221D01*
X-434791609Y-103683221D02*
X-434220180Y-104254649D01*
X-434220180Y-104254649D02*
X-434220180Y-103635602D01*
X-434886847Y-102778459D02*
X-434220180Y-102778459D01*
X-435267800Y-103016554D02*
X-434553514Y-103254649D01*
X-434553514Y-103254649D02*
X-434553514Y-102635602D01*
D13*
X-157291128Y-105974438D02*
X-156053033Y-105974438D01*
X-156053033Y-105974438D02*
X-156719700Y-106736342D01*
X-156719700Y-106736342D02*
X-156433985Y-106736342D01*
X-156433985Y-106736342D02*
X-156243509Y-106831580D01*
X-156243509Y-106831580D02*
X-156148271Y-106926819D01*
X-156148271Y-106926819D02*
X-156053033Y-107117295D01*
X-156053033Y-107117295D02*
X-156053033Y-107593485D01*
X-156053033Y-107593485D02*
X-156148271Y-107783961D01*
X-156148271Y-107783961D02*
X-156243509Y-107879200D01*
X-156243509Y-107879200D02*
X-156433985Y-107974438D01*
X-156433985Y-107974438D02*
X-157005414Y-107974438D01*
X-157005414Y-107974438D02*
X-157195890Y-107879200D01*
X-157195890Y-107879200D02*
X-157291128Y-107783961D01*
X-155481604Y-105974438D02*
X-154814938Y-107974438D01*
X-154814938Y-107974438D02*
X-154148271Y-105974438D01*
X-153672080Y-105974438D02*
X-152433985Y-105974438D01*
X-152433985Y-105974438D02*
X-153100652Y-106736342D01*
X-153100652Y-106736342D02*
X-152814937Y-106736342D01*
X-152814937Y-106736342D02*
X-152624461Y-106831580D01*
X-152624461Y-106831580D02*
X-152529223Y-106926819D01*
X-152529223Y-106926819D02*
X-152433985Y-107117295D01*
X-152433985Y-107117295D02*
X-152433985Y-107593485D01*
X-152433985Y-107593485D02*
X-152529223Y-107783961D01*
X-152529223Y-107783961D02*
X-152624461Y-107879200D01*
X-152624461Y-107879200D02*
X-152814937Y-107974438D01*
X-152814937Y-107974438D02*
X-153386366Y-107974438D01*
X-153386366Y-107974438D02*
X-153576842Y-107879200D01*
X-153576842Y-107879200D02*
X-153672080Y-107783961D01*
D10*
X-395675419Y-107341792D02*
X-395627800Y-107389411D01*
X-395627800Y-107389411D02*
X-395580180Y-107532268D01*
X-395580180Y-107532268D02*
X-395580180Y-107627506D01*
X-395580180Y-107627506D02*
X-395627800Y-107770363D01*
X-395627800Y-107770363D02*
X-395723038Y-107865601D01*
X-395723038Y-107865601D02*
X-395818276Y-107913220D01*
X-395818276Y-107913220D02*
X-396008752Y-107960839D01*
X-396008752Y-107960839D02*
X-396151609Y-107960839D01*
X-396151609Y-107960839D02*
X-396342085Y-107913220D01*
X-396342085Y-107913220D02*
X-396437323Y-107865601D01*
X-396437323Y-107865601D02*
X-396532561Y-107770363D01*
X-396532561Y-107770363D02*
X-396580180Y-107627506D01*
X-396580180Y-107627506D02*
X-396580180Y-107532268D01*
X-396580180Y-107532268D02*
X-396532561Y-107389411D01*
X-396532561Y-107389411D02*
X-396484942Y-107341792D01*
X-395580180Y-106913220D02*
X-396580180Y-106913220D01*
X-396103990Y-106913220D02*
X-396103990Y-106341792D01*
X-395580180Y-106341792D02*
X-396580180Y-106341792D01*
X-396580180Y-105960839D02*
X-396580180Y-105294173D01*
X-396580180Y-105294173D02*
X-395580180Y-105722744D01*
D17*
X-144867853Y-107679424D02*
X-144867853Y-106688948D01*
X-144372615Y-107184186D02*
X-145363091Y-107184186D01*
X-145548805Y-106131804D02*
X-145610710Y-106069900D01*
X-145610710Y-106069900D02*
X-145672615Y-105946090D01*
X-145672615Y-105946090D02*
X-145672615Y-105636566D01*
X-145672615Y-105636566D02*
X-145610710Y-105512757D01*
X-145610710Y-105512757D02*
X-145548805Y-105450852D01*
X-145548805Y-105450852D02*
X-145424996Y-105388947D01*
X-145424996Y-105388947D02*
X-145301186Y-105388947D01*
X-145301186Y-105388947D02*
X-145115472Y-105450852D01*
X-145115472Y-105450852D02*
X-144372615Y-106193709D01*
X-144372615Y-106193709D02*
X-144372615Y-105388947D01*
X-145239281Y-104274662D02*
X-144372615Y-104274662D01*
X-145734520Y-104584186D02*
X-144805948Y-104893709D01*
X-144805948Y-104893709D02*
X-144805948Y-104088948D01*
X-145672615Y-103779424D02*
X-144372615Y-103346091D01*
X-144372615Y-103346091D02*
X-145672615Y-102912757D01*
X-144744043Y-102541328D02*
X-144744043Y-101922281D01*
X-144372615Y-102665138D02*
X-145672615Y-102231805D01*
X-145672615Y-102231805D02*
X-144372615Y-101798471D01*
X-144496424Y-100622281D02*
X-144434520Y-100684185D01*
X-144434520Y-100684185D02*
X-144372615Y-100869900D01*
X-144372615Y-100869900D02*
X-144372615Y-100993709D01*
X-144372615Y-100993709D02*
X-144434520Y-101179423D01*
X-144434520Y-101179423D02*
X-144558329Y-101303233D01*
X-144558329Y-101303233D02*
X-144682139Y-101365138D01*
X-144682139Y-101365138D02*
X-144929758Y-101427042D01*
X-144929758Y-101427042D02*
X-145115472Y-101427042D01*
X-145115472Y-101427042D02*
X-145363091Y-101365138D01*
X-145363091Y-101365138D02*
X-145486900Y-101303233D01*
X-145486900Y-101303233D02*
X-145610710Y-101179423D01*
X-145610710Y-101179423D02*
X-145672615Y-100993709D01*
X-145672615Y-100993709D02*
X-145672615Y-100869900D01*
X-145672615Y-100869900D02*
X-145610710Y-100684185D01*
X-145610710Y-100684185D02*
X-145548805Y-100622281D01*
D10*
X-192110839Y-107465057D02*
X-192063220Y-107417438D01*
X-192063220Y-107417438D02*
X-191967982Y-107369819D01*
X-191967982Y-107369819D02*
X-191729887Y-107369819D01*
X-191729887Y-107369819D02*
X-191634649Y-107417438D01*
X-191634649Y-107417438D02*
X-191587030Y-107465057D01*
X-191587030Y-107465057D02*
X-191539411Y-107560295D01*
X-191539411Y-107560295D02*
X-191539411Y-107655533D01*
X-191539411Y-107655533D02*
X-191587030Y-107798390D01*
X-191587030Y-107798390D02*
X-192158458Y-108369819D01*
X-192158458Y-108369819D02*
X-191539411Y-108369819D01*
X-188939411Y-108419819D02*
X-189510839Y-108419819D01*
X-189225125Y-108419819D02*
X-189225125Y-107419819D01*
X-189225125Y-107419819D02*
X-189320363Y-107562676D01*
X-189320363Y-107562676D02*
X-189415601Y-107657914D01*
X-189415601Y-107657914D02*
X-189510839Y-107705533D01*
X-224410839Y-107365057D02*
X-224363220Y-107317438D01*
X-224363220Y-107317438D02*
X-224267982Y-107269819D01*
X-224267982Y-107269819D02*
X-224029887Y-107269819D01*
X-224029887Y-107269819D02*
X-223934649Y-107317438D01*
X-223934649Y-107317438D02*
X-223887030Y-107365057D01*
X-223887030Y-107365057D02*
X-223839411Y-107460295D01*
X-223839411Y-107460295D02*
X-223839411Y-107555533D01*
X-223839411Y-107555533D02*
X-223887030Y-107698390D01*
X-223887030Y-107698390D02*
X-224458458Y-108269819D01*
X-224458458Y-108269819D02*
X-223839411Y-108269819D01*
D13*
X-172103033Y-106029676D02*
X-172293509Y-105934438D01*
X-172293509Y-105934438D02*
X-172579223Y-105934438D01*
X-172579223Y-105934438D02*
X-172864938Y-106029676D01*
X-172864938Y-106029676D02*
X-173055414Y-106220152D01*
X-173055414Y-106220152D02*
X-173150652Y-106410628D01*
X-173150652Y-106410628D02*
X-173245890Y-106791580D01*
X-173245890Y-106791580D02*
X-173245890Y-107077295D01*
X-173245890Y-107077295D02*
X-173150652Y-107458247D01*
X-173150652Y-107458247D02*
X-173055414Y-107648723D01*
X-173055414Y-107648723D02*
X-172864938Y-107839200D01*
X-172864938Y-107839200D02*
X-172579223Y-107934438D01*
X-172579223Y-107934438D02*
X-172388747Y-107934438D01*
X-172388747Y-107934438D02*
X-172103033Y-107839200D01*
X-172103033Y-107839200D02*
X-172007795Y-107743961D01*
X-172007795Y-107743961D02*
X-172007795Y-107077295D01*
X-172007795Y-107077295D02*
X-172388747Y-107077295D01*
X-171150652Y-107934438D02*
X-171150652Y-105934438D01*
X-171150652Y-105934438D02*
X-170007795Y-107934438D01*
X-170007795Y-107934438D02*
X-170007795Y-105934438D01*
X-169055414Y-107934438D02*
X-169055414Y-105934438D01*
X-169055414Y-105934438D02*
X-168579224Y-105934438D01*
X-168579224Y-105934438D02*
X-168293509Y-106029676D01*
X-168293509Y-106029676D02*
X-168103033Y-106220152D01*
X-168103033Y-106220152D02*
X-168007795Y-106410628D01*
X-168007795Y-106410628D02*
X-167912557Y-106791580D01*
X-167912557Y-106791580D02*
X-167912557Y-107077295D01*
X-167912557Y-107077295D02*
X-168007795Y-107458247D01*
X-168007795Y-107458247D02*
X-168103033Y-107648723D01*
X-168103033Y-107648723D02*
X-168293509Y-107839200D01*
X-168293509Y-107839200D02*
X-168579224Y-107934438D01*
X-168579224Y-107934438D02*
X-169055414Y-107934438D01*
X-165660652Y-107172533D02*
X-164136843Y-107172533D01*
X-164898747Y-107934438D02*
X-164898747Y-106410628D01*
X-162232081Y-105934438D02*
X-163184462Y-105934438D01*
X-163184462Y-105934438D02*
X-163279700Y-106886819D01*
X-163279700Y-106886819D02*
X-163184462Y-106791580D01*
X-163184462Y-106791580D02*
X-162993986Y-106696342D01*
X-162993986Y-106696342D02*
X-162517795Y-106696342D01*
X-162517795Y-106696342D02*
X-162327319Y-106791580D01*
X-162327319Y-106791580D02*
X-162232081Y-106886819D01*
X-162232081Y-106886819D02*
X-162136843Y-107077295D01*
X-162136843Y-107077295D02*
X-162136843Y-107553485D01*
X-162136843Y-107553485D02*
X-162232081Y-107743961D01*
X-162232081Y-107743961D02*
X-162327319Y-107839200D01*
X-162327319Y-107839200D02*
X-162517795Y-107934438D01*
X-162517795Y-107934438D02*
X-162993986Y-107934438D01*
X-162993986Y-107934438D02*
X-163184462Y-107839200D01*
X-163184462Y-107839200D02*
X-163279700Y-107743961D01*
X-161565414Y-105934438D02*
X-160898748Y-107934438D01*
X-160898748Y-107934438D02*
X-160232081Y-105934438D01*
D10*
X-390575419Y-107291792D02*
X-390527800Y-107339411D01*
X-390527800Y-107339411D02*
X-390480180Y-107482268D01*
X-390480180Y-107482268D02*
X-390480180Y-107577506D01*
X-390480180Y-107577506D02*
X-390527800Y-107720363D01*
X-390527800Y-107720363D02*
X-390623038Y-107815601D01*
X-390623038Y-107815601D02*
X-390718276Y-107863220D01*
X-390718276Y-107863220D02*
X-390908752Y-107910839D01*
X-390908752Y-107910839D02*
X-391051609Y-107910839D01*
X-391051609Y-107910839D02*
X-391242085Y-107863220D01*
X-391242085Y-107863220D02*
X-391337323Y-107815601D01*
X-391337323Y-107815601D02*
X-391432561Y-107720363D01*
X-391432561Y-107720363D02*
X-391480180Y-107577506D01*
X-391480180Y-107577506D02*
X-391480180Y-107482268D01*
X-391480180Y-107482268D02*
X-391432561Y-107339411D01*
X-391432561Y-107339411D02*
X-391384942Y-107291792D01*
X-390480180Y-106863220D02*
X-391480180Y-106863220D01*
X-391003990Y-106863220D02*
X-391003990Y-106291792D01*
X-390480180Y-106291792D02*
X-391480180Y-106291792D01*
X-391480180Y-105339411D02*
X-391480180Y-105815601D01*
X-391480180Y-105815601D02*
X-391003990Y-105863220D01*
X-391003990Y-105863220D02*
X-391051609Y-105815601D01*
X-391051609Y-105815601D02*
X-391099228Y-105720363D01*
X-391099228Y-105720363D02*
X-391099228Y-105482268D01*
X-391099228Y-105482268D02*
X-391051609Y-105387030D01*
X-391051609Y-105387030D02*
X-391003990Y-105339411D01*
X-391003990Y-105339411D02*
X-390908752Y-105291792D01*
X-390908752Y-105291792D02*
X-390670657Y-105291792D01*
X-390670657Y-105291792D02*
X-390575419Y-105339411D01*
X-390575419Y-105339411D02*
X-390527800Y-105387030D01*
X-390527800Y-105387030D02*
X-390480180Y-105482268D01*
X-390480180Y-105482268D02*
X-390480180Y-105720363D01*
X-390480180Y-105720363D02*
X-390527800Y-105815601D01*
X-390527800Y-105815601D02*
X-390575419Y-105863220D01*
X-245084649Y-107503152D02*
X-245084649Y-108169819D01*
X-245322744Y-107122200D02*
X-245560839Y-107836485D01*
X-245560839Y-107836485D02*
X-244941792Y-107836485D01*
X-432632561Y-107179411D02*
X-432680180Y-107274649D01*
X-432680180Y-107274649D02*
X-432680180Y-107417506D01*
X-432680180Y-107417506D02*
X-432632561Y-107560363D01*
X-432632561Y-107560363D02*
X-432537323Y-107655601D01*
X-432537323Y-107655601D02*
X-432442085Y-107703220D01*
X-432442085Y-107703220D02*
X-432251609Y-107750839D01*
X-432251609Y-107750839D02*
X-432108752Y-107750839D01*
X-432108752Y-107750839D02*
X-431918276Y-107703220D01*
X-431918276Y-107703220D02*
X-431823038Y-107655601D01*
X-431823038Y-107655601D02*
X-431727800Y-107560363D01*
X-431727800Y-107560363D02*
X-431680180Y-107417506D01*
X-431680180Y-107417506D02*
X-431680180Y-107322268D01*
X-431680180Y-107322268D02*
X-431727800Y-107179411D01*
X-431727800Y-107179411D02*
X-431775419Y-107131792D01*
X-431775419Y-107131792D02*
X-432108752Y-107131792D01*
X-432108752Y-107131792D02*
X-432108752Y-107322268D01*
X-431680180Y-106703220D02*
X-432680180Y-106703220D01*
X-432680180Y-106703220D02*
X-432680180Y-106322268D01*
X-432680180Y-106322268D02*
X-432632561Y-106227030D01*
X-432632561Y-106227030D02*
X-432584942Y-106179411D01*
X-432584942Y-106179411D02*
X-432489704Y-106131792D01*
X-432489704Y-106131792D02*
X-432346847Y-106131792D01*
X-432346847Y-106131792D02*
X-432251609Y-106179411D01*
X-432251609Y-106179411D02*
X-432203990Y-106227030D01*
X-432203990Y-106227030D02*
X-432156371Y-106322268D01*
X-432156371Y-106322268D02*
X-432156371Y-106703220D01*
X-431680180Y-105703220D02*
X-432680180Y-105703220D01*
X-432680180Y-105036554D02*
X-432680180Y-104846078D01*
X-432680180Y-104846078D02*
X-432632561Y-104750840D01*
X-432632561Y-104750840D02*
X-432537323Y-104655602D01*
X-432537323Y-104655602D02*
X-432346847Y-104607983D01*
X-432346847Y-104607983D02*
X-432013514Y-104607983D01*
X-432013514Y-104607983D02*
X-431823038Y-104655602D01*
X-431823038Y-104655602D02*
X-431727800Y-104750840D01*
X-431727800Y-104750840D02*
X-431680180Y-104846078D01*
X-431680180Y-104846078D02*
X-431680180Y-105036554D01*
X-431680180Y-105036554D02*
X-431727800Y-105131792D01*
X-431727800Y-105131792D02*
X-431823038Y-105227030D01*
X-431823038Y-105227030D02*
X-432013514Y-105274649D01*
X-432013514Y-105274649D02*
X-432346847Y-105274649D01*
X-432346847Y-105274649D02*
X-432537323Y-105227030D01*
X-432537323Y-105227030D02*
X-432632561Y-105131792D01*
X-432632561Y-105131792D02*
X-432680180Y-105036554D01*
X-432680180Y-103988935D02*
X-432680180Y-103893697D01*
X-432680180Y-103893697D02*
X-432632561Y-103798459D01*
X-432632561Y-103798459D02*
X-432584942Y-103750840D01*
X-432584942Y-103750840D02*
X-432489704Y-103703221D01*
X-432489704Y-103703221D02*
X-432299228Y-103655602D01*
X-432299228Y-103655602D02*
X-432061133Y-103655602D01*
X-432061133Y-103655602D02*
X-431870657Y-103703221D01*
X-431870657Y-103703221D02*
X-431775419Y-103750840D01*
X-431775419Y-103750840D02*
X-431727800Y-103798459D01*
X-431727800Y-103798459D02*
X-431680180Y-103893697D01*
X-431680180Y-103893697D02*
X-431680180Y-103988935D01*
X-431680180Y-103988935D02*
X-431727800Y-104084173D01*
X-431727800Y-104084173D02*
X-431775419Y-104131792D01*
X-431775419Y-104131792D02*
X-431870657Y-104179411D01*
X-431870657Y-104179411D02*
X-432061133Y-104227030D01*
X-432061133Y-104227030D02*
X-432299228Y-104227030D01*
X-432299228Y-104227030D02*
X-432489704Y-104179411D01*
X-432489704Y-104179411D02*
X-432584942Y-104131792D01*
X-432584942Y-104131792D02*
X-432632561Y-104084173D01*
X-432632561Y-104084173D02*
X-432680180Y-103988935D01*
D14*
X-354040978Y-103451657D02*
X-354040978Y-100451657D01*
X-354040978Y-100451657D02*
X-353326692Y-100451657D01*
X-353326692Y-100451657D02*
X-352898121Y-100594514D01*
X-352898121Y-100594514D02*
X-352612406Y-100880228D01*
X-352612406Y-100880228D02*
X-352469549Y-101165942D01*
X-352469549Y-101165942D02*
X-352326692Y-101737371D01*
X-352326692Y-101737371D02*
X-352326692Y-102165942D01*
X-352326692Y-102165942D02*
X-352469549Y-102737371D01*
X-352469549Y-102737371D02*
X-352612406Y-103023085D01*
X-352612406Y-103023085D02*
X-352898121Y-103308800D01*
X-352898121Y-103308800D02*
X-353326692Y-103451657D01*
X-353326692Y-103451657D02*
X-354040978Y-103451657D01*
X-351040978Y-103451657D02*
X-351040978Y-100451657D01*
X-348040978Y-100594514D02*
X-348326693Y-100451657D01*
X-348326693Y-100451657D02*
X-348755264Y-100451657D01*
X-348755264Y-100451657D02*
X-349183835Y-100594514D01*
X-349183835Y-100594514D02*
X-349469550Y-100880228D01*
X-349469550Y-100880228D02*
X-349612407Y-101165942D01*
X-349612407Y-101165942D02*
X-349755264Y-101737371D01*
X-349755264Y-101737371D02*
X-349755264Y-102165942D01*
X-349755264Y-102165942D02*
X-349612407Y-102737371D01*
X-349612407Y-102737371D02*
X-349469550Y-103023085D01*
X-349469550Y-103023085D02*
X-349183835Y-103308800D01*
X-349183835Y-103308800D02*
X-348755264Y-103451657D01*
X-348755264Y-103451657D02*
X-348469550Y-103451657D01*
X-348469550Y-103451657D02*
X-348040978Y-103308800D01*
X-348040978Y-103308800D02*
X-347898121Y-103165942D01*
X-347898121Y-103165942D02*
X-347898121Y-102165942D01*
X-347898121Y-102165942D02*
X-348469550Y-102165942D01*
X-346612407Y-103451657D02*
X-346612407Y-100451657D01*
X-345612407Y-100451657D02*
X-343898122Y-100451657D01*
X-344755264Y-103451657D02*
X-344755264Y-100451657D01*
X-343040979Y-102594514D02*
X-341612408Y-102594514D01*
X-343326693Y-103451657D02*
X-342326693Y-100451657D01*
X-342326693Y-100451657D02*
X-341326693Y-103451657D01*
X-338898121Y-103451657D02*
X-340326693Y-103451657D01*
X-340326693Y-103451657D02*
X-340326693Y-100451657D01*
X-335612408Y-103451657D02*
X-335612408Y-100451657D01*
X-335612408Y-100451657D02*
X-334469551Y-100451657D01*
X-334469551Y-100451657D02*
X-334183836Y-100594514D01*
X-334183836Y-100594514D02*
X-334040979Y-100737371D01*
X-334040979Y-100737371D02*
X-333898122Y-101023085D01*
X-333898122Y-101023085D02*
X-333898122Y-101451657D01*
X-333898122Y-101451657D02*
X-334040979Y-101737371D01*
X-334040979Y-101737371D02*
X-334183836Y-101880228D01*
X-334183836Y-101880228D02*
X-334469551Y-102023085D01*
X-334469551Y-102023085D02*
X-335612408Y-102023085D01*
X-332040979Y-100451657D02*
X-331469551Y-100451657D01*
X-331469551Y-100451657D02*
X-331183836Y-100594514D01*
X-331183836Y-100594514D02*
X-330898122Y-100880228D01*
X-330898122Y-100880228D02*
X-330755265Y-101451657D01*
X-330755265Y-101451657D02*
X-330755265Y-102451657D01*
X-330755265Y-102451657D02*
X-330898122Y-103023085D01*
X-330898122Y-103023085D02*
X-331183836Y-103308800D01*
X-331183836Y-103308800D02*
X-331469551Y-103451657D01*
X-331469551Y-103451657D02*
X-332040979Y-103451657D01*
X-332040979Y-103451657D02*
X-332326694Y-103308800D01*
X-332326694Y-103308800D02*
X-332612408Y-103023085D01*
X-332612408Y-103023085D02*
X-332755265Y-102451657D01*
X-332755265Y-102451657D02*
X-332755265Y-101451657D01*
X-332755265Y-101451657D02*
X-332612408Y-100880228D01*
X-332612408Y-100880228D02*
X-332326694Y-100594514D01*
X-332326694Y-100594514D02*
X-332040979Y-100451657D01*
X-329898122Y-100451657D02*
X-328183837Y-100451657D01*
X-329040979Y-103451657D02*
X-329040979Y-100451657D01*
X-327183837Y-101880228D02*
X-326183837Y-101880228D01*
X-325755265Y-103451657D02*
X-327183837Y-103451657D01*
X-327183837Y-103451657D02*
X-327183837Y-100451657D01*
X-327183837Y-100451657D02*
X-325755265Y-100451657D01*
X-324469551Y-103451657D02*
X-324469551Y-100451657D01*
X-324469551Y-100451657D02*
X-322755265Y-103451657D01*
X-322755265Y-103451657D02*
X-322755265Y-100451657D01*
X-321755265Y-100451657D02*
X-320040980Y-100451657D01*
X-320898122Y-103451657D02*
X-320898122Y-100451657D01*
X-319040980Y-103451657D02*
X-319040980Y-100451657D01*
X-317040980Y-100451657D02*
X-316469552Y-100451657D01*
X-316469552Y-100451657D02*
X-316183837Y-100594514D01*
X-316183837Y-100594514D02*
X-315898123Y-100880228D01*
X-315898123Y-100880228D02*
X-315755266Y-101451657D01*
X-315755266Y-101451657D02*
X-315755266Y-102451657D01*
X-315755266Y-102451657D02*
X-315898123Y-103023085D01*
X-315898123Y-103023085D02*
X-316183837Y-103308800D01*
X-316183837Y-103308800D02*
X-316469552Y-103451657D01*
X-316469552Y-103451657D02*
X-317040980Y-103451657D01*
X-317040980Y-103451657D02*
X-317326695Y-103308800D01*
X-317326695Y-103308800D02*
X-317612409Y-103023085D01*
X-317612409Y-103023085D02*
X-317755266Y-102451657D01*
X-317755266Y-102451657D02*
X-317755266Y-101451657D01*
X-317755266Y-101451657D02*
X-317612409Y-100880228D01*
X-317612409Y-100880228D02*
X-317326695Y-100594514D01*
X-317326695Y-100594514D02*
X-317040980Y-100451657D01*
X-314469552Y-103451657D02*
X-314469552Y-100451657D01*
X-314469552Y-100451657D02*
X-312755266Y-103451657D01*
X-312755266Y-103451657D02*
X-312755266Y-100451657D01*
X-311326695Y-101880228D02*
X-310326695Y-101880228D01*
X-309898123Y-103451657D02*
X-311326695Y-103451657D01*
X-311326695Y-103451657D02*
X-311326695Y-100451657D01*
X-311326695Y-100451657D02*
X-309898123Y-100451657D01*
X-309040980Y-100451657D02*
X-307326695Y-100451657D01*
X-308183837Y-103451657D02*
X-308183837Y-100451657D01*
X-306326695Y-101880228D02*
X-305326695Y-101880228D01*
X-304898123Y-103451657D02*
X-306326695Y-103451657D01*
X-306326695Y-103451657D02*
X-306326695Y-100451657D01*
X-306326695Y-100451657D02*
X-304898123Y-100451657D01*
X-301898123Y-103451657D02*
X-302898123Y-102023085D01*
X-303612409Y-103451657D02*
X-303612409Y-100451657D01*
X-303612409Y-100451657D02*
X-302469552Y-100451657D01*
X-302469552Y-100451657D02*
X-302183837Y-100594514D01*
X-302183837Y-100594514D02*
X-302040980Y-100737371D01*
X-302040980Y-100737371D02*
X-301898123Y-101023085D01*
X-301898123Y-101023085D02*
X-301898123Y-101451657D01*
X-301898123Y-101451657D02*
X-302040980Y-101737371D01*
X-302040980Y-101737371D02*
X-302183837Y-101880228D01*
X-302183837Y-101880228D02*
X-302469552Y-102023085D01*
X-302469552Y-102023085D02*
X-303612409Y-102023085D01*
X-300755266Y-103308800D02*
X-300326695Y-103451657D01*
X-300326695Y-103451657D02*
X-299612409Y-103451657D01*
X-299612409Y-103451657D02*
X-299326695Y-103308800D01*
X-299326695Y-103308800D02*
X-299183837Y-103165942D01*
X-299183837Y-103165942D02*
X-299040980Y-102880228D01*
X-299040980Y-102880228D02*
X-299040980Y-102594514D01*
X-299040980Y-102594514D02*
X-299183837Y-102308800D01*
X-299183837Y-102308800D02*
X-299326695Y-102165942D01*
X-299326695Y-102165942D02*
X-299612409Y-102023085D01*
X-299612409Y-102023085D02*
X-300183837Y-101880228D01*
X-300183837Y-101880228D02*
X-300469552Y-101737371D01*
X-300469552Y-101737371D02*
X-300612409Y-101594514D01*
X-300612409Y-101594514D02*
X-300755266Y-101308800D01*
X-300755266Y-101308800D02*
X-300755266Y-101023085D01*
X-300755266Y-101023085D02*
X-300612409Y-100737371D01*
X-300612409Y-100737371D02*
X-300469552Y-100594514D01*
X-300469552Y-100594514D02*
X-300183837Y-100451657D01*
X-300183837Y-100451657D02*
X-299469552Y-100451657D01*
X-299469552Y-100451657D02*
X-299040980Y-100594514D01*
D10*
X-272710839Y-107065057D02*
X-272663220Y-107017438D01*
X-272663220Y-107017438D02*
X-272567982Y-106969819D01*
X-272567982Y-106969819D02*
X-272329887Y-106969819D01*
X-272329887Y-106969819D02*
X-272234649Y-107017438D01*
X-272234649Y-107017438D02*
X-272187030Y-107065057D01*
X-272187030Y-107065057D02*
X-272139411Y-107160295D01*
X-272139411Y-107160295D02*
X-272139411Y-107255533D01*
X-272139411Y-107255533D02*
X-272187030Y-107398390D01*
X-272187030Y-107398390D02*
X-272758458Y-107969819D01*
X-272758458Y-107969819D02*
X-272139411Y-107969819D01*
X-178823220Y-98708866D02*
X-178061316Y-98708866D01*
X-178442268Y-99089819D02*
X-178442268Y-98327914D01*
X-177061316Y-99089819D02*
X-177632744Y-99089819D01*
X-177347030Y-99089819D02*
X-177347030Y-98089819D01*
X-177347030Y-98089819D02*
X-177442268Y-98232676D01*
X-177442268Y-98232676D02*
X-177537506Y-98327914D01*
X-177537506Y-98327914D02*
X-177632744Y-98375533D01*
X-176156554Y-98089819D02*
X-176632744Y-98089819D01*
X-176632744Y-98089819D02*
X-176680363Y-98566009D01*
X-176680363Y-98566009D02*
X-176632744Y-98518390D01*
X-176632744Y-98518390D02*
X-176537506Y-98470771D01*
X-176537506Y-98470771D02*
X-176299411Y-98470771D01*
X-176299411Y-98470771D02*
X-176204173Y-98518390D01*
X-176204173Y-98518390D02*
X-176156554Y-98566009D01*
X-176156554Y-98566009D02*
X-176108935Y-98661247D01*
X-176108935Y-98661247D02*
X-176108935Y-98899342D01*
X-176108935Y-98899342D02*
X-176156554Y-98994580D01*
X-176156554Y-98994580D02*
X-176204173Y-99042200D01*
X-176204173Y-99042200D02*
X-176299411Y-99089819D01*
X-176299411Y-99089819D02*
X-176537506Y-99089819D01*
X-176537506Y-99089819D02*
X-176632744Y-99042200D01*
X-176632744Y-99042200D02*
X-176680363Y-98994580D01*
X-175823220Y-98089819D02*
X-175489887Y-99089819D01*
X-175489887Y-99089819D02*
X-175156554Y-98089819D01*
X-240410839Y-107265057D02*
X-240363220Y-107217438D01*
X-240363220Y-107217438D02*
X-240267982Y-107169819D01*
X-240267982Y-107169819D02*
X-240029887Y-107169819D01*
X-240029887Y-107169819D02*
X-239934649Y-107217438D01*
X-239934649Y-107217438D02*
X-239887030Y-107265057D01*
X-239887030Y-107265057D02*
X-239839411Y-107360295D01*
X-239839411Y-107360295D02*
X-239839411Y-107455533D01*
X-239839411Y-107455533D02*
X-239887030Y-107598390D01*
X-239887030Y-107598390D02*
X-240458458Y-108169819D01*
X-240458458Y-108169819D02*
X-239839411Y-108169819D01*
X-382925419Y-107341792D02*
X-382877800Y-107389411D01*
X-382877800Y-107389411D02*
X-382830180Y-107532268D01*
X-382830180Y-107532268D02*
X-382830180Y-107627506D01*
X-382830180Y-107627506D02*
X-382877800Y-107770363D01*
X-382877800Y-107770363D02*
X-382973038Y-107865601D01*
X-382973038Y-107865601D02*
X-383068276Y-107913220D01*
X-383068276Y-107913220D02*
X-383258752Y-107960839D01*
X-383258752Y-107960839D02*
X-383401609Y-107960839D01*
X-383401609Y-107960839D02*
X-383592085Y-107913220D01*
X-383592085Y-107913220D02*
X-383687323Y-107865601D01*
X-383687323Y-107865601D02*
X-383782561Y-107770363D01*
X-383782561Y-107770363D02*
X-383830180Y-107627506D01*
X-383830180Y-107627506D02*
X-383830180Y-107532268D01*
X-383830180Y-107532268D02*
X-383782561Y-107389411D01*
X-383782561Y-107389411D02*
X-383734942Y-107341792D01*
X-382830180Y-106913220D02*
X-383830180Y-106913220D01*
X-383353990Y-106913220D02*
X-383353990Y-106341792D01*
X-382830180Y-106341792D02*
X-383830180Y-106341792D01*
X-383734942Y-105913220D02*
X-383782561Y-105865601D01*
X-383782561Y-105865601D02*
X-383830180Y-105770363D01*
X-383830180Y-105770363D02*
X-383830180Y-105532268D01*
X-383830180Y-105532268D02*
X-383782561Y-105437030D01*
X-383782561Y-105437030D02*
X-383734942Y-105389411D01*
X-383734942Y-105389411D02*
X-383639704Y-105341792D01*
X-383639704Y-105341792D02*
X-383544466Y-105341792D01*
X-383544466Y-105341792D02*
X-383401609Y-105389411D01*
X-383401609Y-105389411D02*
X-382830180Y-105960839D01*
X-382830180Y-105960839D02*
X-382830180Y-105341792D01*
X-210858458Y-107069819D02*
X-210239411Y-107069819D01*
X-210239411Y-107069819D02*
X-210572744Y-107450771D01*
X-210572744Y-107450771D02*
X-210429887Y-107450771D01*
X-210429887Y-107450771D02*
X-210334649Y-107498390D01*
X-210334649Y-107498390D02*
X-210287030Y-107546009D01*
X-210287030Y-107546009D02*
X-210239411Y-107641247D01*
X-210239411Y-107641247D02*
X-210239411Y-107879342D01*
X-210239411Y-107879342D02*
X-210287030Y-107974580D01*
X-210287030Y-107974580D02*
X-210334649Y-108022200D01*
X-210334649Y-108022200D02*
X-210429887Y-108069819D01*
X-210429887Y-108069819D02*
X-210715601Y-108069819D01*
X-210715601Y-108069819D02*
X-210810839Y-108022200D01*
X-210810839Y-108022200D02*
X-210858458Y-107974580D01*
X-388025419Y-107291792D02*
X-387977800Y-107339411D01*
X-387977800Y-107339411D02*
X-387930180Y-107482268D01*
X-387930180Y-107482268D02*
X-387930180Y-107577506D01*
X-387930180Y-107577506D02*
X-387977800Y-107720363D01*
X-387977800Y-107720363D02*
X-388073038Y-107815601D01*
X-388073038Y-107815601D02*
X-388168276Y-107863220D01*
X-388168276Y-107863220D02*
X-388358752Y-107910839D01*
X-388358752Y-107910839D02*
X-388501609Y-107910839D01*
X-388501609Y-107910839D02*
X-388692085Y-107863220D01*
X-388692085Y-107863220D02*
X-388787323Y-107815601D01*
X-388787323Y-107815601D02*
X-388882561Y-107720363D01*
X-388882561Y-107720363D02*
X-388930180Y-107577506D01*
X-388930180Y-107577506D02*
X-388930180Y-107482268D01*
X-388930180Y-107482268D02*
X-388882561Y-107339411D01*
X-388882561Y-107339411D02*
X-388834942Y-107291792D01*
X-387930180Y-106863220D02*
X-388930180Y-106863220D01*
X-388453990Y-106863220D02*
X-388453990Y-106291792D01*
X-387930180Y-106291792D02*
X-388930180Y-106291792D01*
X-388596847Y-105387030D02*
X-387930180Y-105387030D01*
X-388977800Y-105625125D02*
X-388263514Y-105863220D01*
X-388263514Y-105863220D02*
X-388263514Y-105244173D01*
X-205039411Y-108169819D02*
X-205610839Y-108169819D01*
X-205325125Y-108169819D02*
X-205325125Y-107169819D01*
X-205325125Y-107169819D02*
X-205420363Y-107312676D01*
X-205420363Y-107312676D02*
X-205515601Y-107407914D01*
X-205515601Y-107407914D02*
X-205610839Y-107455533D01*
X-202959523Y-109704819D02*
X-202959523Y-110419104D01*
X-202959523Y-110419104D02*
X-203007142Y-110561961D01*
X-203007142Y-110561961D02*
X-203102380Y-110657200D01*
X-203102380Y-110657200D02*
X-203245237Y-110704819D01*
X-203245237Y-110704819D02*
X-203340475Y-110704819D01*
X-202578570Y-109704819D02*
X-201959523Y-109704819D01*
X-201959523Y-109704819D02*
X-202292856Y-110085771D01*
X-202292856Y-110085771D02*
X-202149999Y-110085771D01*
X-202149999Y-110085771D02*
X-202054761Y-110133390D01*
X-202054761Y-110133390D02*
X-202007142Y-110181009D01*
X-202007142Y-110181009D02*
X-201959523Y-110276247D01*
X-201959523Y-110276247D02*
X-201959523Y-110514342D01*
X-201959523Y-110514342D02*
X-202007142Y-110609580D01*
X-202007142Y-110609580D02*
X-202054761Y-110657200D01*
X-202054761Y-110657200D02*
X-202149999Y-110704819D01*
X-202149999Y-110704819D02*
X-202435713Y-110704819D01*
X-202435713Y-110704819D02*
X-202530951Y-110657200D01*
X-202530951Y-110657200D02*
X-202578570Y-110609580D01*
X-201007142Y-110704819D02*
X-201578570Y-110704819D01*
X-201292856Y-110704819D02*
X-201292856Y-109704819D01*
X-201292856Y-109704819D02*
X-201388094Y-109847676D01*
X-201388094Y-109847676D02*
X-201483332Y-109942914D01*
X-201483332Y-109942914D02*
X-201578570Y-109990533D01*
X-252383333Y-109654819D02*
X-252383333Y-110369104D01*
X-252383333Y-110369104D02*
X-252430952Y-110511961D01*
X-252430952Y-110511961D02*
X-252526190Y-110607200D01*
X-252526190Y-110607200D02*
X-252669047Y-110654819D01*
X-252669047Y-110654819D02*
X-252764285Y-110654819D01*
X-251764285Y-110083390D02*
X-251859523Y-110035771D01*
X-251859523Y-110035771D02*
X-251907142Y-109988152D01*
X-251907142Y-109988152D02*
X-251954761Y-109892914D01*
X-251954761Y-109892914D02*
X-251954761Y-109845295D01*
X-251954761Y-109845295D02*
X-251907142Y-109750057D01*
X-251907142Y-109750057D02*
X-251859523Y-109702438D01*
X-251859523Y-109702438D02*
X-251764285Y-109654819D01*
X-251764285Y-109654819D02*
X-251573809Y-109654819D01*
X-251573809Y-109654819D02*
X-251478571Y-109702438D01*
X-251478571Y-109702438D02*
X-251430952Y-109750057D01*
X-251430952Y-109750057D02*
X-251383333Y-109845295D01*
X-251383333Y-109845295D02*
X-251383333Y-109892914D01*
X-251383333Y-109892914D02*
X-251430952Y-109988152D01*
X-251430952Y-109988152D02*
X-251478571Y-110035771D01*
X-251478571Y-110035771D02*
X-251573809Y-110083390D01*
X-251573809Y-110083390D02*
X-251764285Y-110083390D01*
X-251764285Y-110083390D02*
X-251859523Y-110131009D01*
X-251859523Y-110131009D02*
X-251907142Y-110178628D01*
X-251907142Y-110178628D02*
X-251954761Y-110273866D01*
X-251954761Y-110273866D02*
X-251954761Y-110464342D01*
X-251954761Y-110464342D02*
X-251907142Y-110559580D01*
X-251907142Y-110559580D02*
X-251859523Y-110607200D01*
X-251859523Y-110607200D02*
X-251764285Y-110654819D01*
X-251764285Y-110654819D02*
X-251573809Y-110654819D01*
X-251573809Y-110654819D02*
X-251478571Y-110607200D01*
X-251478571Y-110607200D02*
X-251430952Y-110559580D01*
X-251430952Y-110559580D02*
X-251383333Y-110464342D01*
X-251383333Y-110464342D02*
X-251383333Y-110273866D01*
X-251383333Y-110273866D02*
X-251430952Y-110178628D01*
X-251430952Y-110178628D02*
X-251478571Y-110131009D01*
X-251478571Y-110131009D02*
X-251573809Y-110083390D01*
X-175433333Y-107504819D02*
X-175433333Y-108219104D01*
X-175433333Y-108219104D02*
X-175480952Y-108361961D01*
X-175480952Y-108361961D02*
X-175576190Y-108457200D01*
X-175576190Y-108457200D02*
X-175719047Y-108504819D01*
X-175719047Y-108504819D02*
X-175814285Y-108504819D01*
X-174480952Y-107504819D02*
X-174957142Y-107504819D01*
X-174957142Y-107504819D02*
X-175004761Y-107981009D01*
X-175004761Y-107981009D02*
X-174957142Y-107933390D01*
X-174957142Y-107933390D02*
X-174861904Y-107885771D01*
X-174861904Y-107885771D02*
X-174623809Y-107885771D01*
X-174623809Y-107885771D02*
X-174528571Y-107933390D01*
X-174528571Y-107933390D02*
X-174480952Y-107981009D01*
X-174480952Y-107981009D02*
X-174433333Y-108076247D01*
X-174433333Y-108076247D02*
X-174433333Y-108314342D01*
X-174433333Y-108314342D02*
X-174480952Y-108409580D01*
X-174480952Y-108409580D02*
X-174528571Y-108457200D01*
X-174528571Y-108457200D02*
X-174623809Y-108504819D01*
X-174623809Y-108504819D02*
X-174861904Y-108504819D01*
X-174861904Y-108504819D02*
X-174957142Y-108457200D01*
X-174957142Y-108457200D02*
X-175004761Y-108409580D01*
D11*
X-288477128Y-106287328D02*
X-288119985Y-107787328D01*
X-288119985Y-107787328D02*
X-287834271Y-106715900D01*
X-287834271Y-106715900D02*
X-287548556Y-107787328D01*
X-287548556Y-107787328D02*
X-287191414Y-106287328D01*
X-285834270Y-107787328D02*
X-286691413Y-107787328D01*
X-286262842Y-107787328D02*
X-286262842Y-106287328D01*
X-286262842Y-106287328D02*
X-286405699Y-106501614D01*
X-286405699Y-106501614D02*
X-286548556Y-106644471D01*
X-286548556Y-106644471D02*
X-286691413Y-106715900D01*
X-284548557Y-106787328D02*
X-284548557Y-107787328D01*
X-284905699Y-106215900D02*
X-285262842Y-107287328D01*
X-285262842Y-107287328D02*
X-284334271Y-107287328D01*
X-333262842Y-106287328D02*
X-332905699Y-107787328D01*
X-332905699Y-107787328D02*
X-332619985Y-106715900D01*
X-332619985Y-106715900D02*
X-332334270Y-107787328D01*
X-332334270Y-107787328D02*
X-331977128Y-106287328D01*
X-331548556Y-106287328D02*
X-330548556Y-106287328D01*
X-330548556Y-106287328D02*
X-331191413Y-107787328D01*
X-346262842Y-106287328D02*
X-345905699Y-107787328D01*
X-345905699Y-107787328D02*
X-345619985Y-106715900D01*
X-345619985Y-106715900D02*
X-345334270Y-107787328D01*
X-345334270Y-107787328D02*
X-344977128Y-106287328D01*
X-343691413Y-106287328D02*
X-344405699Y-106287328D01*
X-344405699Y-106287328D02*
X-344477127Y-107001614D01*
X-344477127Y-107001614D02*
X-344405699Y-106930185D01*
X-344405699Y-106930185D02*
X-344262842Y-106858757D01*
X-344262842Y-106858757D02*
X-343905699Y-106858757D01*
X-343905699Y-106858757D02*
X-343762842Y-106930185D01*
X-343762842Y-106930185D02*
X-343691413Y-107001614D01*
X-343691413Y-107001614D02*
X-343619984Y-107144471D01*
X-343619984Y-107144471D02*
X-343619984Y-107501614D01*
X-343619984Y-107501614D02*
X-343691413Y-107644471D01*
X-343691413Y-107644471D02*
X-343762842Y-107715900D01*
X-343762842Y-107715900D02*
X-343905699Y-107787328D01*
X-343905699Y-107787328D02*
X-344262842Y-107787328D01*
X-344262842Y-107787328D02*
X-344405699Y-107715900D01*
X-344405699Y-107715900D02*
X-344477127Y-107644471D01*
D10*
X-159595180Y-110803333D02*
X-158880895Y-110803333D01*
X-158880895Y-110803333D02*
X-158738038Y-110850952D01*
X-158738038Y-110850952D02*
X-158642800Y-110946190D01*
X-158642800Y-110946190D02*
X-158595180Y-111089047D01*
X-158595180Y-111089047D02*
X-158595180Y-111184285D01*
X-158595180Y-109803333D02*
X-158595180Y-110374761D01*
X-158595180Y-110089047D02*
X-159595180Y-110089047D01*
X-159595180Y-110089047D02*
X-159452323Y-110184285D01*
X-159452323Y-110184285D02*
X-159357085Y-110279523D01*
X-159357085Y-110279523D02*
X-159309466Y-110374761D01*
X-219259523Y-109804819D02*
X-219259523Y-110519104D01*
X-219259523Y-110519104D02*
X-219307142Y-110661961D01*
X-219307142Y-110661961D02*
X-219402380Y-110757200D01*
X-219402380Y-110757200D02*
X-219545237Y-110804819D01*
X-219545237Y-110804819D02*
X-219640475Y-110804819D01*
X-218259523Y-110804819D02*
X-218830951Y-110804819D01*
X-218545237Y-110804819D02*
X-218545237Y-109804819D01*
X-218545237Y-109804819D02*
X-218640475Y-109947676D01*
X-218640475Y-109947676D02*
X-218735713Y-110042914D01*
X-218735713Y-110042914D02*
X-218830951Y-110090533D01*
X-217402380Y-110138152D02*
X-217402380Y-110804819D01*
X-217640475Y-109757200D02*
X-217878570Y-110471485D01*
X-217878570Y-110471485D02*
X-217259523Y-110471485D01*
D11*
X-308131428Y-106258328D02*
X-307774285Y-107758328D01*
X-307774285Y-107758328D02*
X-307488571Y-106686900D01*
X-307488571Y-106686900D02*
X-307202856Y-107758328D01*
X-307202856Y-107758328D02*
X-306845714Y-106258328D01*
X-305488570Y-107758328D02*
X-306345713Y-107758328D01*
X-305917142Y-107758328D02*
X-305917142Y-106258328D01*
X-305917142Y-106258328D02*
X-306059999Y-106472614D01*
X-306059999Y-106472614D02*
X-306202856Y-106615471D01*
X-306202856Y-106615471D02*
X-306345713Y-106686900D01*
X-304059999Y-107758328D02*
X-304917142Y-107758328D01*
X-304488571Y-107758328D02*
X-304488571Y-106258328D01*
X-304488571Y-106258328D02*
X-304631428Y-106472614D01*
X-304631428Y-106472614D02*
X-304774285Y-106615471D01*
X-304774285Y-106615471D02*
X-304917142Y-106686900D01*
X-372530342Y-106287328D02*
X-372173199Y-107787328D01*
X-372173199Y-107787328D02*
X-371887485Y-106715900D01*
X-371887485Y-106715900D02*
X-371601770Y-107787328D01*
X-371601770Y-107787328D02*
X-371244628Y-106287328D01*
X-369887484Y-107787328D02*
X-370744627Y-107787328D01*
X-370316056Y-107787328D02*
X-370316056Y-106287328D01*
X-370316056Y-106287328D02*
X-370458913Y-106501614D01*
X-370458913Y-106501614D02*
X-370601770Y-106644471D01*
X-370601770Y-106644471D02*
X-370744627Y-106715900D01*
X-359262842Y-106287328D02*
X-358905699Y-107787328D01*
X-358905699Y-107787328D02*
X-358619985Y-106715900D01*
X-358619985Y-106715900D02*
X-358334270Y-107787328D01*
X-358334270Y-107787328D02*
X-357977128Y-106287328D01*
X-357548556Y-106287328D02*
X-356619984Y-106287328D01*
X-356619984Y-106287328D02*
X-357119984Y-106858757D01*
X-357119984Y-106858757D02*
X-356905699Y-106858757D01*
X-356905699Y-106858757D02*
X-356762842Y-106930185D01*
X-356762842Y-106930185D02*
X-356691413Y-107001614D01*
X-356691413Y-107001614D02*
X-356619984Y-107144471D01*
X-356619984Y-107144471D02*
X-356619984Y-107501614D01*
X-356619984Y-107501614D02*
X-356691413Y-107644471D01*
X-356691413Y-107644471D02*
X-356762842Y-107715900D01*
X-356762842Y-107715900D02*
X-356905699Y-107787328D01*
X-356905699Y-107787328D02*
X-357334270Y-107787328D01*
X-357334270Y-107787328D02*
X-357477127Y-107715900D01*
X-357477127Y-107715900D02*
X-357548556Y-107644471D01*
D10*
X-375845180Y-110213333D02*
X-375130895Y-110213333D01*
X-375130895Y-110213333D02*
X-374988038Y-110260952D01*
X-374988038Y-110260952D02*
X-374892800Y-110356190D01*
X-374892800Y-110356190D02*
X-374845180Y-110499047D01*
X-374845180Y-110499047D02*
X-374845180Y-110594285D01*
X-375845180Y-109308571D02*
X-375845180Y-109499047D01*
X-375845180Y-109499047D02*
X-375797561Y-109594285D01*
X-375797561Y-109594285D02*
X-375749942Y-109641904D01*
X-375749942Y-109641904D02*
X-375607085Y-109737142D01*
X-375607085Y-109737142D02*
X-375416609Y-109784761D01*
X-375416609Y-109784761D02*
X-375035657Y-109784761D01*
X-375035657Y-109784761D02*
X-374940419Y-109737142D01*
X-374940419Y-109737142D02*
X-374892800Y-109689523D01*
X-374892800Y-109689523D02*
X-374845180Y-109594285D01*
X-374845180Y-109594285D02*
X-374845180Y-109403809D01*
X-374845180Y-109403809D02*
X-374892800Y-109308571D01*
X-374892800Y-109308571D02*
X-374940419Y-109260952D01*
X-374940419Y-109260952D02*
X-375035657Y-109213333D01*
X-375035657Y-109213333D02*
X-375273752Y-109213333D01*
X-375273752Y-109213333D02*
X-375368990Y-109260952D01*
X-375368990Y-109260952D02*
X-375416609Y-109308571D01*
X-375416609Y-109308571D02*
X-375464228Y-109403809D01*
X-375464228Y-109403809D02*
X-375464228Y-109594285D01*
X-375464228Y-109594285D02*
X-375416609Y-109689523D01*
X-375416609Y-109689523D02*
X-375368990Y-109737142D01*
X-375368990Y-109737142D02*
X-375273752Y-109784761D01*
D11*
X-295244628Y-106287328D02*
X-294887485Y-107787328D01*
X-294887485Y-107787328D02*
X-294601771Y-106715900D01*
X-294601771Y-106715900D02*
X-294316056Y-107787328D01*
X-294316056Y-107787328D02*
X-293958914Y-106287328D01*
X-292601770Y-107787328D02*
X-293458913Y-107787328D01*
X-293030342Y-107787328D02*
X-293030342Y-106287328D01*
X-293030342Y-106287328D02*
X-293173199Y-106501614D01*
X-293173199Y-106501614D02*
X-293316056Y-106644471D01*
X-293316056Y-106644471D02*
X-293458913Y-106715900D01*
X-292101771Y-106287328D02*
X-291173199Y-106287328D01*
X-291173199Y-106287328D02*
X-291673199Y-106858757D01*
X-291673199Y-106858757D02*
X-291458914Y-106858757D01*
X-291458914Y-106858757D02*
X-291316057Y-106930185D01*
X-291316057Y-106930185D02*
X-291244628Y-107001614D01*
X-291244628Y-107001614D02*
X-291173199Y-107144471D01*
X-291173199Y-107144471D02*
X-291173199Y-107501614D01*
X-291173199Y-107501614D02*
X-291244628Y-107644471D01*
X-291244628Y-107644471D02*
X-291316057Y-107715900D01*
X-291316057Y-107715900D02*
X-291458914Y-107787328D01*
X-291458914Y-107787328D02*
X-291887485Y-107787328D01*
X-291887485Y-107787328D02*
X-292030342Y-107715900D01*
X-292030342Y-107715900D02*
X-292101771Y-107644471D01*
X-340262842Y-106287328D02*
X-339905699Y-107787328D01*
X-339905699Y-107787328D02*
X-339619985Y-106715900D01*
X-339619985Y-106715900D02*
X-339334270Y-107787328D01*
X-339334270Y-107787328D02*
X-338977128Y-106287328D01*
X-337762842Y-106287328D02*
X-338048556Y-106287328D01*
X-338048556Y-106287328D02*
X-338191413Y-106358757D01*
X-338191413Y-106358757D02*
X-338262842Y-106430185D01*
X-338262842Y-106430185D02*
X-338405699Y-106644471D01*
X-338405699Y-106644471D02*
X-338477127Y-106930185D01*
X-338477127Y-106930185D02*
X-338477127Y-107501614D01*
X-338477127Y-107501614D02*
X-338405699Y-107644471D01*
X-338405699Y-107644471D02*
X-338334270Y-107715900D01*
X-338334270Y-107715900D02*
X-338191413Y-107787328D01*
X-338191413Y-107787328D02*
X-337905699Y-107787328D01*
X-337905699Y-107787328D02*
X-337762842Y-107715900D01*
X-337762842Y-107715900D02*
X-337691413Y-107644471D01*
X-337691413Y-107644471D02*
X-337619984Y-107501614D01*
X-337619984Y-107501614D02*
X-337619984Y-107144471D01*
X-337619984Y-107144471D02*
X-337691413Y-107001614D01*
X-337691413Y-107001614D02*
X-337762842Y-106930185D01*
X-337762842Y-106930185D02*
X-337905699Y-106858757D01*
X-337905699Y-106858757D02*
X-338191413Y-106858757D01*
X-338191413Y-106858757D02*
X-338334270Y-106930185D01*
X-338334270Y-106930185D02*
X-338405699Y-107001614D01*
X-338405699Y-107001614D02*
X-338477127Y-107144471D01*
D10*
X-267633333Y-109454819D02*
X-267633333Y-110169104D01*
X-267633333Y-110169104D02*
X-267680952Y-110311961D01*
X-267680952Y-110311961D02*
X-267776190Y-110407200D01*
X-267776190Y-110407200D02*
X-267919047Y-110454819D01*
X-267919047Y-110454819D02*
X-268014285Y-110454819D01*
X-267109523Y-110454819D02*
X-266919047Y-110454819D01*
X-266919047Y-110454819D02*
X-266823809Y-110407200D01*
X-266823809Y-110407200D02*
X-266776190Y-110359580D01*
X-266776190Y-110359580D02*
X-266680952Y-110216723D01*
X-266680952Y-110216723D02*
X-266633333Y-110026247D01*
X-266633333Y-110026247D02*
X-266633333Y-109645295D01*
X-266633333Y-109645295D02*
X-266680952Y-109550057D01*
X-266680952Y-109550057D02*
X-266728571Y-109502438D01*
X-266728571Y-109502438D02*
X-266823809Y-109454819D01*
X-266823809Y-109454819D02*
X-267014285Y-109454819D01*
X-267014285Y-109454819D02*
X-267109523Y-109502438D01*
X-267109523Y-109502438D02*
X-267157142Y-109550057D01*
X-267157142Y-109550057D02*
X-267204761Y-109645295D01*
X-267204761Y-109645295D02*
X-267204761Y-109883390D01*
X-267204761Y-109883390D02*
X-267157142Y-109978628D01*
X-267157142Y-109978628D02*
X-267109523Y-110026247D01*
X-267109523Y-110026247D02*
X-267014285Y-110073866D01*
X-267014285Y-110073866D02*
X-266823809Y-110073866D01*
X-266823809Y-110073866D02*
X-266728571Y-110026247D01*
X-266728571Y-110026247D02*
X-266680952Y-109978628D01*
X-266680952Y-109978628D02*
X-266633333Y-109883390D01*
D11*
X-314324628Y-106287328D02*
X-313967485Y-107787328D01*
X-313967485Y-107787328D02*
X-313681771Y-106715900D01*
X-313681771Y-106715900D02*
X-313396056Y-107787328D01*
X-313396056Y-107787328D02*
X-313038914Y-106287328D01*
X-311681770Y-107787328D02*
X-312538913Y-107787328D01*
X-312110342Y-107787328D02*
X-312110342Y-106287328D01*
X-312110342Y-106287328D02*
X-312253199Y-106501614D01*
X-312253199Y-106501614D02*
X-312396056Y-106644471D01*
X-312396056Y-106644471D02*
X-312538913Y-106715900D01*
X-310753199Y-106287328D02*
X-310610342Y-106287328D01*
X-310610342Y-106287328D02*
X-310467485Y-106358757D01*
X-310467485Y-106358757D02*
X-310396057Y-106430185D01*
X-310396057Y-106430185D02*
X-310324628Y-106573042D01*
X-310324628Y-106573042D02*
X-310253199Y-106858757D01*
X-310253199Y-106858757D02*
X-310253199Y-107215900D01*
X-310253199Y-107215900D02*
X-310324628Y-107501614D01*
X-310324628Y-107501614D02*
X-310396057Y-107644471D01*
X-310396057Y-107644471D02*
X-310467485Y-107715900D01*
X-310467485Y-107715900D02*
X-310610342Y-107787328D01*
X-310610342Y-107787328D02*
X-310753199Y-107787328D01*
X-310753199Y-107787328D02*
X-310896057Y-107715900D01*
X-310896057Y-107715900D02*
X-310967485Y-107644471D01*
X-310967485Y-107644471D02*
X-311038914Y-107501614D01*
X-311038914Y-107501614D02*
X-311110342Y-107215900D01*
X-311110342Y-107215900D02*
X-311110342Y-106858757D01*
X-311110342Y-106858757D02*
X-311038914Y-106573042D01*
X-311038914Y-106573042D02*
X-310967485Y-106430185D01*
X-310967485Y-106430185D02*
X-310896057Y-106358757D01*
X-310896057Y-106358757D02*
X-310753199Y-106287328D01*
X-353262842Y-106287328D02*
X-352905699Y-107787328D01*
X-352905699Y-107787328D02*
X-352619985Y-106715900D01*
X-352619985Y-106715900D02*
X-352334270Y-107787328D01*
X-352334270Y-107787328D02*
X-351977128Y-106287328D01*
X-350762842Y-106787328D02*
X-350762842Y-107787328D01*
X-351119984Y-106215900D02*
X-351477127Y-107287328D01*
X-351477127Y-107287328D02*
X-350548556Y-107287328D01*
X-326762842Y-106287328D02*
X-326405699Y-107787328D01*
X-326405699Y-107787328D02*
X-326119985Y-106715900D01*
X-326119985Y-106715900D02*
X-325834270Y-107787328D01*
X-325834270Y-107787328D02*
X-325477128Y-106287328D01*
X-324691413Y-106930185D02*
X-324834270Y-106858757D01*
X-324834270Y-106858757D02*
X-324905699Y-106787328D01*
X-324905699Y-106787328D02*
X-324977127Y-106644471D01*
X-324977127Y-106644471D02*
X-324977127Y-106573042D01*
X-324977127Y-106573042D02*
X-324905699Y-106430185D01*
X-324905699Y-106430185D02*
X-324834270Y-106358757D01*
X-324834270Y-106358757D02*
X-324691413Y-106287328D01*
X-324691413Y-106287328D02*
X-324405699Y-106287328D01*
X-324405699Y-106287328D02*
X-324262842Y-106358757D01*
X-324262842Y-106358757D02*
X-324191413Y-106430185D01*
X-324191413Y-106430185D02*
X-324119984Y-106573042D01*
X-324119984Y-106573042D02*
X-324119984Y-106644471D01*
X-324119984Y-106644471D02*
X-324191413Y-106787328D01*
X-324191413Y-106787328D02*
X-324262842Y-106858757D01*
X-324262842Y-106858757D02*
X-324405699Y-106930185D01*
X-324405699Y-106930185D02*
X-324691413Y-106930185D01*
X-324691413Y-106930185D02*
X-324834270Y-107001614D01*
X-324834270Y-107001614D02*
X-324905699Y-107073042D01*
X-324905699Y-107073042D02*
X-324977127Y-107215900D01*
X-324977127Y-107215900D02*
X-324977127Y-107501614D01*
X-324977127Y-107501614D02*
X-324905699Y-107644471D01*
X-324905699Y-107644471D02*
X-324834270Y-107715900D01*
X-324834270Y-107715900D02*
X-324691413Y-107787328D01*
X-324691413Y-107787328D02*
X-324405699Y-107787328D01*
X-324405699Y-107787328D02*
X-324262842Y-107715900D01*
X-324262842Y-107715900D02*
X-324191413Y-107644471D01*
X-324191413Y-107644471D02*
X-324119984Y-107501614D01*
X-324119984Y-107501614D02*
X-324119984Y-107215900D01*
X-324119984Y-107215900D02*
X-324191413Y-107073042D01*
X-324191413Y-107073042D02*
X-324262842Y-107001614D01*
X-324262842Y-107001614D02*
X-324405699Y-106930185D01*
D10*
X-187085180Y-111179523D02*
X-186370895Y-111179523D01*
X-186370895Y-111179523D02*
X-186228038Y-111227142D01*
X-186228038Y-111227142D02*
X-186132800Y-111322380D01*
X-186132800Y-111322380D02*
X-186085180Y-111465237D01*
X-186085180Y-111465237D02*
X-186085180Y-111560475D01*
X-186989942Y-110750951D02*
X-187037561Y-110703332D01*
X-187037561Y-110703332D02*
X-187085180Y-110608094D01*
X-187085180Y-110608094D02*
X-187085180Y-110369999D01*
X-187085180Y-110369999D02*
X-187037561Y-110274761D01*
X-187037561Y-110274761D02*
X-186989942Y-110227142D01*
X-186989942Y-110227142D02*
X-186894704Y-110179523D01*
X-186894704Y-110179523D02*
X-186799466Y-110179523D01*
X-186799466Y-110179523D02*
X-186656609Y-110227142D01*
X-186656609Y-110227142D02*
X-186085180Y-110798570D01*
X-186085180Y-110798570D02*
X-186085180Y-110179523D01*
X-187085180Y-109322380D02*
X-187085180Y-109512856D01*
X-187085180Y-109512856D02*
X-187037561Y-109608094D01*
X-187037561Y-109608094D02*
X-186989942Y-109655713D01*
X-186989942Y-109655713D02*
X-186847085Y-109750951D01*
X-186847085Y-109750951D02*
X-186656609Y-109798570D01*
X-186656609Y-109798570D02*
X-186275657Y-109798570D01*
X-186275657Y-109798570D02*
X-186180419Y-109750951D01*
X-186180419Y-109750951D02*
X-186132800Y-109703332D01*
X-186132800Y-109703332D02*
X-186085180Y-109608094D01*
X-186085180Y-109608094D02*
X-186085180Y-109417618D01*
X-186085180Y-109417618D02*
X-186132800Y-109322380D01*
X-186132800Y-109322380D02*
X-186180419Y-109274761D01*
X-186180419Y-109274761D02*
X-186275657Y-109227142D01*
X-186275657Y-109227142D02*
X-186513752Y-109227142D01*
X-186513752Y-109227142D02*
X-186608990Y-109274761D01*
X-186608990Y-109274761D02*
X-186656609Y-109322380D01*
X-186656609Y-109322380D02*
X-186704228Y-109417618D01*
X-186704228Y-109417618D02*
X-186704228Y-109608094D01*
X-186704228Y-109608094D02*
X-186656609Y-109703332D01*
X-186656609Y-109703332D02*
X-186608990Y-109750951D01*
X-186608990Y-109750951D02*
X-186513752Y-109798570D01*
X-412767133Y-91960619D02*
X-412767133Y-92674904D01*
X-412767133Y-92674904D02*
X-412814752Y-92817761D01*
X-412814752Y-92817761D02*
X-412909990Y-92913000D01*
X-412909990Y-92913000D02*
X-413052847Y-92960619D01*
X-413052847Y-92960619D02*
X-413148085Y-92960619D01*
X-412386180Y-91960619D02*
X-411719514Y-91960619D01*
X-411719514Y-91960619D02*
X-412148085Y-92960619D01*
D11*
X-365530342Y-106287328D02*
X-365173199Y-107787328D01*
X-365173199Y-107787328D02*
X-364887485Y-106715900D01*
X-364887485Y-106715900D02*
X-364601770Y-107787328D01*
X-364601770Y-107787328D02*
X-364244628Y-106287328D01*
X-363744627Y-106430185D02*
X-363673199Y-106358757D01*
X-363673199Y-106358757D02*
X-363530342Y-106287328D01*
X-363530342Y-106287328D02*
X-363173199Y-106287328D01*
X-363173199Y-106287328D02*
X-363030342Y-106358757D01*
X-363030342Y-106358757D02*
X-362958913Y-106430185D01*
X-362958913Y-106430185D02*
X-362887484Y-106573042D01*
X-362887484Y-106573042D02*
X-362887484Y-106715900D01*
X-362887484Y-106715900D02*
X-362958913Y-106930185D01*
X-362958913Y-106930185D02*
X-363816056Y-107787328D01*
X-363816056Y-107787328D02*
X-362887484Y-107787328D01*
D10*
X-161649285Y-93277319D02*
X-161649285Y-92277319D01*
X-161649285Y-92277319D02*
X-161411190Y-92277319D01*
X-161411190Y-92277319D02*
X-161268333Y-92324938D01*
X-161268333Y-92324938D02*
X-161173095Y-92420176D01*
X-161173095Y-92420176D02*
X-161125476Y-92515414D01*
X-161125476Y-92515414D02*
X-161077857Y-92705890D01*
X-161077857Y-92705890D02*
X-161077857Y-92848747D01*
X-161077857Y-92848747D02*
X-161125476Y-93039223D01*
X-161125476Y-93039223D02*
X-161173095Y-93134461D01*
X-161173095Y-93134461D02*
X-161268333Y-93229700D01*
X-161268333Y-93229700D02*
X-161411190Y-93277319D01*
X-161411190Y-93277319D02*
X-161649285Y-93277319D01*
X-160696904Y-92372557D02*
X-160649285Y-92324938D01*
X-160649285Y-92324938D02*
X-160554047Y-92277319D01*
X-160554047Y-92277319D02*
X-160315952Y-92277319D01*
X-160315952Y-92277319D02*
X-160220714Y-92324938D01*
X-160220714Y-92324938D02*
X-160173095Y-92372557D01*
X-160173095Y-92372557D02*
X-160125476Y-92467795D01*
X-160125476Y-92467795D02*
X-160125476Y-92563033D01*
X-160125476Y-92563033D02*
X-160173095Y-92705890D01*
X-160173095Y-92705890D02*
X-160744523Y-93277319D01*
X-160744523Y-93277319D02*
X-160125476Y-93277319D01*
X-159792142Y-92277319D02*
X-159173095Y-92277319D01*
X-159173095Y-92277319D02*
X-159506428Y-92658271D01*
X-159506428Y-92658271D02*
X-159363571Y-92658271D01*
X-159363571Y-92658271D02*
X-159268333Y-92705890D01*
X-159268333Y-92705890D02*
X-159220714Y-92753509D01*
X-159220714Y-92753509D02*
X-159173095Y-92848747D01*
X-159173095Y-92848747D02*
X-159173095Y-93086842D01*
X-159173095Y-93086842D02*
X-159220714Y-93182080D01*
X-159220714Y-93182080D02*
X-159268333Y-93229700D01*
X-159268333Y-93229700D02*
X-159363571Y-93277319D01*
X-159363571Y-93277319D02*
X-159649285Y-93277319D01*
X-159649285Y-93277319D02*
X-159744523Y-93229700D01*
X-159744523Y-93229700D02*
X-159792142Y-93182080D01*
X-167683333Y-107604819D02*
X-167683333Y-108319104D01*
X-167683333Y-108319104D02*
X-167730952Y-108461961D01*
X-167730952Y-108461961D02*
X-167826190Y-108557200D01*
X-167826190Y-108557200D02*
X-167969047Y-108604819D01*
X-167969047Y-108604819D02*
X-168064285Y-108604819D01*
X-166730952Y-107604819D02*
X-167207142Y-107604819D01*
X-167207142Y-107604819D02*
X-167254761Y-108081009D01*
X-167254761Y-108081009D02*
X-167207142Y-108033390D01*
X-167207142Y-108033390D02*
X-167111904Y-107985771D01*
X-167111904Y-107985771D02*
X-166873809Y-107985771D01*
X-166873809Y-107985771D02*
X-166778571Y-108033390D01*
X-166778571Y-108033390D02*
X-166730952Y-108081009D01*
X-166730952Y-108081009D02*
X-166683333Y-108176247D01*
X-166683333Y-108176247D02*
X-166683333Y-108414342D01*
X-166683333Y-108414342D02*
X-166730952Y-108509580D01*
X-166730952Y-108509580D02*
X-166778571Y-108557200D01*
X-166778571Y-108557200D02*
X-166873809Y-108604819D01*
X-166873809Y-108604819D02*
X-167111904Y-108604819D01*
X-167111904Y-108604819D02*
X-167207142Y-108557200D01*
X-167207142Y-108557200D02*
X-167254761Y-108509580D01*
X-151655180Y-110743333D02*
X-150940895Y-110743333D01*
X-150940895Y-110743333D02*
X-150798038Y-110790952D01*
X-150798038Y-110790952D02*
X-150702800Y-110886190D01*
X-150702800Y-110886190D02*
X-150655180Y-111029047D01*
X-150655180Y-111029047D02*
X-150655180Y-111124285D01*
X-151655180Y-110362380D02*
X-151655180Y-109743333D01*
X-151655180Y-109743333D02*
X-151274228Y-110076666D01*
X-151274228Y-110076666D02*
X-151274228Y-109933809D01*
X-151274228Y-109933809D02*
X-151226609Y-109838571D01*
X-151226609Y-109838571D02*
X-151178990Y-109790952D01*
X-151178990Y-109790952D02*
X-151083752Y-109743333D01*
X-151083752Y-109743333D02*
X-150845657Y-109743333D01*
X-150845657Y-109743333D02*
X-150750419Y-109790952D01*
X-150750419Y-109790952D02*
X-150702800Y-109838571D01*
X-150702800Y-109838571D02*
X-150655180Y-109933809D01*
X-150655180Y-109933809D02*
X-150655180Y-110219523D01*
X-150655180Y-110219523D02*
X-150702800Y-110314761D01*
X-150702800Y-110314761D02*
X-150750419Y-110362380D01*
X-407420180Y-53334523D02*
X-406705895Y-53334523D01*
X-406705895Y-53334523D02*
X-406563038Y-53382142D01*
X-406563038Y-53382142D02*
X-406467800Y-53477380D01*
X-406467800Y-53477380D02*
X-406420180Y-53620237D01*
X-406420180Y-53620237D02*
X-406420180Y-53715475D01*
X-407420180Y-52953570D02*
X-407420180Y-52334523D01*
X-407420180Y-52334523D02*
X-407039228Y-52667856D01*
X-407039228Y-52667856D02*
X-407039228Y-52524999D01*
X-407039228Y-52524999D02*
X-406991609Y-52429761D01*
X-406991609Y-52429761D02*
X-406943990Y-52382142D01*
X-406943990Y-52382142D02*
X-406848752Y-52334523D01*
X-406848752Y-52334523D02*
X-406610657Y-52334523D01*
X-406610657Y-52334523D02*
X-406515419Y-52382142D01*
X-406515419Y-52382142D02*
X-406467800Y-52429761D01*
X-406467800Y-52429761D02*
X-406420180Y-52524999D01*
X-406420180Y-52524999D02*
X-406420180Y-52810713D01*
X-406420180Y-52810713D02*
X-406467800Y-52905951D01*
X-406467800Y-52905951D02*
X-406515419Y-52953570D01*
X-407420180Y-52001189D02*
X-407420180Y-51334523D01*
X-407420180Y-51334523D02*
X-406420180Y-51763094D01*
X-177701785Y-93507319D02*
X-177701785Y-92507319D01*
X-177701785Y-92507319D02*
X-177463690Y-92507319D01*
X-177463690Y-92507319D02*
X-177320833Y-92554938D01*
X-177320833Y-92554938D02*
X-177225595Y-92650176D01*
X-177225595Y-92650176D02*
X-177177976Y-92745414D01*
X-177177976Y-92745414D02*
X-177130357Y-92935890D01*
X-177130357Y-92935890D02*
X-177130357Y-93078747D01*
X-177130357Y-93078747D02*
X-177177976Y-93269223D01*
X-177177976Y-93269223D02*
X-177225595Y-93364461D01*
X-177225595Y-93364461D02*
X-177320833Y-93459700D01*
X-177320833Y-93459700D02*
X-177463690Y-93507319D01*
X-177463690Y-93507319D02*
X-177701785Y-93507319D01*
X-176797023Y-92507319D02*
X-176177976Y-92507319D01*
X-176177976Y-92507319D02*
X-176511309Y-92888271D01*
X-176511309Y-92888271D02*
X-176368452Y-92888271D01*
X-176368452Y-92888271D02*
X-176273214Y-92935890D01*
X-176273214Y-92935890D02*
X-176225595Y-92983509D01*
X-176225595Y-92983509D02*
X-176177976Y-93078747D01*
X-176177976Y-93078747D02*
X-176177976Y-93316842D01*
X-176177976Y-93316842D02*
X-176225595Y-93412080D01*
X-176225595Y-93412080D02*
X-176273214Y-93459700D01*
X-176273214Y-93459700D02*
X-176368452Y-93507319D01*
X-176368452Y-93507319D02*
X-176654166Y-93507319D01*
X-176654166Y-93507319D02*
X-176749404Y-93459700D01*
X-176749404Y-93459700D02*
X-176797023Y-93412080D01*
X-175273214Y-92507319D02*
X-175749404Y-92507319D01*
X-175749404Y-92507319D02*
X-175797023Y-92983509D01*
X-175797023Y-92983509D02*
X-175749404Y-92935890D01*
X-175749404Y-92935890D02*
X-175654166Y-92888271D01*
X-175654166Y-92888271D02*
X-175416071Y-92888271D01*
X-175416071Y-92888271D02*
X-175320833Y-92935890D01*
X-175320833Y-92935890D02*
X-175273214Y-92983509D01*
X-175273214Y-92983509D02*
X-175225595Y-93078747D01*
X-175225595Y-93078747D02*
X-175225595Y-93316842D01*
X-175225595Y-93316842D02*
X-175273214Y-93412080D01*
X-175273214Y-93412080D02*
X-175320833Y-93459700D01*
X-175320833Y-93459700D02*
X-175416071Y-93507319D01*
X-175416071Y-93507319D02*
X-175654166Y-93507319D01*
X-175654166Y-93507319D02*
X-175749404Y-93459700D01*
X-175749404Y-93459700D02*
X-175797023Y-93412080D01*
X-235209523Y-109754819D02*
X-235209523Y-110469104D01*
X-235209523Y-110469104D02*
X-235257142Y-110611961D01*
X-235257142Y-110611961D02*
X-235352380Y-110707200D01*
X-235352380Y-110707200D02*
X-235495237Y-110754819D01*
X-235495237Y-110754819D02*
X-235590475Y-110754819D01*
X-234209523Y-110754819D02*
X-234780951Y-110754819D01*
X-234495237Y-110754819D02*
X-234495237Y-109754819D01*
X-234495237Y-109754819D02*
X-234590475Y-109897676D01*
X-234590475Y-109897676D02*
X-234685713Y-109992914D01*
X-234685713Y-109992914D02*
X-234780951Y-110040533D01*
X-233304761Y-109754819D02*
X-233780951Y-109754819D01*
X-233780951Y-109754819D02*
X-233828570Y-110231009D01*
X-233828570Y-110231009D02*
X-233780951Y-110183390D01*
X-233780951Y-110183390D02*
X-233685713Y-110135771D01*
X-233685713Y-110135771D02*
X-233447618Y-110135771D01*
X-233447618Y-110135771D02*
X-233352380Y-110183390D01*
X-233352380Y-110183390D02*
X-233304761Y-110231009D01*
X-233304761Y-110231009D02*
X-233257142Y-110326247D01*
X-233257142Y-110326247D02*
X-233257142Y-110564342D01*
X-233257142Y-110564342D02*
X-233304761Y-110659580D01*
X-233304761Y-110659580D02*
X-233352380Y-110707200D01*
X-233352380Y-110707200D02*
X-233447618Y-110754819D01*
X-233447618Y-110754819D02*
X-233685713Y-110754819D01*
X-233685713Y-110754819D02*
X-233780951Y-110707200D01*
X-233780951Y-110707200D02*
X-233828570Y-110659580D01*
D11*
X-301477128Y-106287328D02*
X-301119985Y-107787328D01*
X-301119985Y-107787328D02*
X-300834271Y-106715900D01*
X-300834271Y-106715900D02*
X-300548556Y-107787328D01*
X-300548556Y-107787328D02*
X-300191414Y-106287328D01*
X-298834270Y-107787328D02*
X-299691413Y-107787328D01*
X-299262842Y-107787328D02*
X-299262842Y-106287328D01*
X-299262842Y-106287328D02*
X-299405699Y-106501614D01*
X-299405699Y-106501614D02*
X-299548556Y-106644471D01*
X-299548556Y-106644471D02*
X-299691413Y-106715900D01*
X-298262842Y-106430185D02*
X-298191414Y-106358757D01*
X-298191414Y-106358757D02*
X-298048557Y-106287328D01*
X-298048557Y-106287328D02*
X-297691414Y-106287328D01*
X-297691414Y-106287328D02*
X-297548557Y-106358757D01*
X-297548557Y-106358757D02*
X-297477128Y-106430185D01*
X-297477128Y-106430185D02*
X-297405699Y-106573042D01*
X-297405699Y-106573042D02*
X-297405699Y-106715900D01*
X-297405699Y-106715900D02*
X-297477128Y-106930185D01*
X-297477128Y-106930185D02*
X-298334271Y-107787328D01*
X-298334271Y-107787328D02*
X-297405699Y-107787328D01*
X-320762842Y-106287328D02*
X-320405699Y-107787328D01*
X-320405699Y-107787328D02*
X-320119985Y-106715900D01*
X-320119985Y-106715900D02*
X-319834270Y-107787328D01*
X-319834270Y-107787328D02*
X-319477128Y-106287328D01*
X-318834270Y-107787328D02*
X-318548556Y-107787328D01*
X-318548556Y-107787328D02*
X-318405699Y-107715900D01*
X-318405699Y-107715900D02*
X-318334270Y-107644471D01*
X-318334270Y-107644471D02*
X-318191413Y-107430185D01*
X-318191413Y-107430185D02*
X-318119984Y-107144471D01*
X-318119984Y-107144471D02*
X-318119984Y-106573042D01*
X-318119984Y-106573042D02*
X-318191413Y-106430185D01*
X-318191413Y-106430185D02*
X-318262842Y-106358757D01*
X-318262842Y-106358757D02*
X-318405699Y-106287328D01*
X-318405699Y-106287328D02*
X-318691413Y-106287328D01*
X-318691413Y-106287328D02*
X-318834270Y-106358757D01*
X-318834270Y-106358757D02*
X-318905699Y-106430185D01*
X-318905699Y-106430185D02*
X-318977127Y-106573042D01*
X-318977127Y-106573042D02*
X-318977127Y-106930185D01*
X-318977127Y-106930185D02*
X-318905699Y-107073042D01*
X-318905699Y-107073042D02*
X-318834270Y-107144471D01*
X-318834270Y-107144471D02*
X-318691413Y-107215900D01*
X-318691413Y-107215900D02*
X-318405699Y-107215900D01*
X-318405699Y-107215900D02*
X-318262842Y-107144471D01*
X-318262842Y-107144471D02*
X-318191413Y-107073042D01*
X-318191413Y-107073042D02*
X-318119984Y-106930185D01*
D10*
X-143148380Y-110969323D02*
X-142434095Y-110969323D01*
X-142434095Y-110969323D02*
X-142291238Y-111016942D01*
X-142291238Y-111016942D02*
X-142196000Y-111112180D01*
X-142196000Y-111112180D02*
X-142148380Y-111255037D01*
X-142148380Y-111255037D02*
X-142148380Y-111350275D01*
X-142148380Y-109969323D02*
X-142148380Y-110540751D01*
X-142148380Y-110255037D02*
X-143148380Y-110255037D01*
X-143148380Y-110255037D02*
X-143005523Y-110350275D01*
X-143005523Y-110350275D02*
X-142910285Y-110445513D01*
X-142910285Y-110445513D02*
X-142862666Y-110540751D01*
X-143148380Y-109350275D02*
X-143148380Y-109255037D01*
X-143148380Y-109255037D02*
X-143100761Y-109159799D01*
X-143100761Y-109159799D02*
X-143053142Y-109112180D01*
X-143053142Y-109112180D02*
X-142957904Y-109064561D01*
X-142957904Y-109064561D02*
X-142767428Y-109016942D01*
X-142767428Y-109016942D02*
X-142529333Y-109016942D01*
X-142529333Y-109016942D02*
X-142338857Y-109064561D01*
X-142338857Y-109064561D02*
X-142243619Y-109112180D01*
X-142243619Y-109112180D02*
X-142196000Y-109159799D01*
X-142196000Y-109159799D02*
X-142148380Y-109255037D01*
X-142148380Y-109255037D02*
X-142148380Y-109350275D01*
X-142148380Y-109350275D02*
X-142196000Y-109445513D01*
X-142196000Y-109445513D02*
X-142243619Y-109493132D01*
X-142243619Y-109493132D02*
X-142338857Y-109540751D01*
X-142338857Y-109540751D02*
X-142529333Y-109588370D01*
X-142529333Y-109588370D02*
X-142767428Y-109588370D01*
X-142767428Y-109588370D02*
X-142957904Y-109540751D01*
X-142957904Y-109540751D02*
X-143053142Y-109493132D01*
X-143053142Y-109493132D02*
X-143100761Y-109445513D01*
X-143100761Y-109445513D02*
X-143148380Y-109350275D01*
D18*
%TO.C,J31*%
X-214309000Y-109083800D02*
X-214309000Y-111743800D01*
X-206629000Y-109083800D02*
X-214309000Y-109083800D01*
X-206629000Y-109083800D02*
X-206629000Y-111743800D01*
X-206629000Y-111743800D02*
X-214309000Y-111743800D01*
X-205359000Y-109083800D02*
X-204029000Y-109083800D01*
X-204029000Y-109083800D02*
X-204029000Y-110413800D01*
%TO.C,J8*%
X-263765300Y-108845000D02*
X-263765300Y-111505000D01*
X-256085300Y-108845000D02*
X-263765300Y-108845000D01*
X-256085300Y-108845000D02*
X-256085300Y-111505000D01*
X-256085300Y-111505000D02*
X-263765300Y-111505000D01*
X-254815300Y-108845000D02*
X-253485300Y-108845000D01*
X-253485300Y-108845000D02*
X-253485300Y-110175000D01*
%TO.C,J5*%
X-184235400Y-109185400D02*
X-184235400Y-111845400D01*
X-176555400Y-109185400D02*
X-184235400Y-109185400D01*
X-176555400Y-109185400D02*
X-176555400Y-111845400D01*
X-176555400Y-111845400D02*
X-184235400Y-111845400D01*
X-175285400Y-109185400D02*
X-173955400Y-109185400D01*
X-173955400Y-109185400D02*
X-173955400Y-110515400D01*
%TO.C,W14*%
X-289235700Y-108779000D02*
X-289235700Y-111439000D01*
X-285365700Y-108779000D02*
X-284035700Y-108779000D01*
X-284095700Y-108779000D02*
X-289235700Y-108779000D01*
X-284095700Y-108779000D02*
X-284095700Y-111439000D01*
X-284095700Y-111439000D02*
X-289235700Y-111439000D01*
X-284035700Y-108779000D02*
X-284035700Y-110109000D01*
%TO.C,W7*%
X-334735700Y-108779000D02*
X-334735700Y-111439000D01*
X-330865700Y-108779000D02*
X-329535700Y-108779000D01*
X-329595700Y-108779000D02*
X-334735700Y-108779000D01*
X-329595700Y-108779000D02*
X-329595700Y-111439000D01*
X-329595700Y-111439000D02*
X-334735700Y-111439000D01*
X-329535700Y-108779000D02*
X-329535700Y-110109000D01*
%TO.C,W5*%
X-347735700Y-108779000D02*
X-347735700Y-111439000D01*
X-343865700Y-108779000D02*
X-342535700Y-108779000D01*
X-342595700Y-108779000D02*
X-347735700Y-108779000D01*
X-342595700Y-108779000D02*
X-342595700Y-111439000D01*
X-342595700Y-111439000D02*
X-347735700Y-111439000D01*
X-342535700Y-108779000D02*
X-342535700Y-110109000D01*
%TO.C,J1*%
X-165641800Y-109084600D02*
X-165641800Y-111844600D01*
X-162991800Y-109084600D02*
X-165641800Y-109084600D01*
X-162991800Y-109084600D02*
X-162991800Y-111844600D01*
X-162991800Y-111844600D02*
X-165641800Y-111844600D01*
X-161721800Y-109084600D02*
X-160341800Y-109084600D01*
X-160341800Y-109084600D02*
X-160341800Y-110464600D01*
%TO.C,J14*%
X-230641200Y-109029200D02*
X-230641200Y-111689200D01*
X-222961200Y-109029200D02*
X-230641200Y-109029200D01*
X-222961200Y-109029200D02*
X-222961200Y-111689200D01*
X-222961200Y-111689200D02*
X-230641200Y-111689200D01*
X-221691200Y-109029200D02*
X-220361200Y-109029200D01*
X-220361200Y-109029200D02*
X-220361200Y-110359200D01*
%TO.C,W11*%
X-308735700Y-108779000D02*
X-308735700Y-111439000D01*
X-304865700Y-108779000D02*
X-303535700Y-108779000D01*
X-303595700Y-108779000D02*
X-308735700Y-108779000D01*
X-303595700Y-108779000D02*
X-303595700Y-111439000D01*
X-303595700Y-111439000D02*
X-308735700Y-111439000D01*
X-303535700Y-108779000D02*
X-303535700Y-110109000D01*
%TO.C,W1*%
X-373503200Y-108779000D02*
X-373503200Y-111439000D01*
X-369633200Y-108779000D02*
X-368303200Y-108779000D01*
X-368363200Y-108779000D02*
X-373503200Y-108779000D01*
X-368363200Y-108779000D02*
X-368363200Y-111439000D01*
X-368363200Y-111439000D02*
X-373503200Y-111439000D01*
X-368303200Y-108779000D02*
X-368303200Y-110109000D01*
%TO.C,W3*%
X-360735700Y-108779000D02*
X-360735700Y-111439000D01*
X-356865700Y-108779000D02*
X-355535700Y-108779000D01*
X-355595700Y-108779000D02*
X-360735700Y-108779000D01*
X-355595700Y-108779000D02*
X-355595700Y-111439000D01*
X-355595700Y-111439000D02*
X-360735700Y-111439000D01*
X-355535700Y-108779000D02*
X-355535700Y-110109000D01*
%TO.C,J6*%
X-397366800Y-108728200D02*
X-397366800Y-111388200D01*
X-379526800Y-108728200D02*
X-397366800Y-108728200D01*
X-379526800Y-108728200D02*
X-379526800Y-111388200D01*
X-379526800Y-111388200D02*
X-397366800Y-111388200D01*
X-378256800Y-108728200D02*
X-376926800Y-108728200D01*
X-376926800Y-108728200D02*
X-376926800Y-110058200D01*
%TO.C,W13*%
X-295735700Y-108779000D02*
X-295735700Y-111439000D01*
X-291865700Y-108779000D02*
X-290535700Y-108779000D01*
X-290595700Y-108779000D02*
X-295735700Y-108779000D01*
X-290595700Y-108779000D02*
X-290595700Y-111439000D01*
X-290595700Y-111439000D02*
X-295735700Y-111439000D01*
X-290535700Y-108779000D02*
X-290535700Y-110109000D01*
%TO.C,W6*%
X-341235700Y-108779000D02*
X-341235700Y-111439000D01*
X-337365700Y-108779000D02*
X-336035700Y-108779000D01*
X-336095700Y-108779000D02*
X-341235700Y-108779000D01*
X-336095700Y-108779000D02*
X-336095700Y-111439000D01*
X-336095700Y-111439000D02*
X-341235700Y-111439000D01*
X-336035700Y-108779000D02*
X-336035700Y-110109000D01*
%TO.C,J9*%
X-278915600Y-108742600D02*
X-278915600Y-111402600D01*
X-271235600Y-108742600D02*
X-278915600Y-108742600D01*
X-271235600Y-108742600D02*
X-271235600Y-111402600D01*
X-271235600Y-111402600D02*
X-278915600Y-111402600D01*
X-269965600Y-108742600D02*
X-268635600Y-108742600D01*
X-268635600Y-108742600D02*
X-268635600Y-110072600D01*
%TO.C,W10*%
X-315083200Y-108779000D02*
X-315083200Y-111439000D01*
X-311213200Y-108779000D02*
X-309883200Y-108779000D01*
X-309943200Y-108779000D02*
X-315083200Y-108779000D01*
X-309943200Y-108779000D02*
X-309943200Y-111439000D01*
X-309943200Y-111439000D02*
X-315083200Y-111439000D01*
X-309883200Y-108779000D02*
X-309883200Y-110109000D01*
%TO.C,W4*%
X-354235700Y-108779000D02*
X-354235700Y-111439000D01*
X-350365700Y-108779000D02*
X-349035700Y-108779000D01*
X-349095700Y-108779000D02*
X-354235700Y-108779000D01*
X-349095700Y-108779000D02*
X-349095700Y-111439000D01*
X-349095700Y-111439000D02*
X-354235700Y-111439000D01*
X-349035700Y-108779000D02*
X-349035700Y-110109000D01*
%TO.C,W8*%
X-328235700Y-108779000D02*
X-328235700Y-111439000D01*
X-324365700Y-108779000D02*
X-323035700Y-108779000D01*
X-323095700Y-108779000D02*
X-328235700Y-108779000D01*
X-323095700Y-108779000D02*
X-323095700Y-111439000D01*
X-323095700Y-111439000D02*
X-328235700Y-111439000D01*
X-323035700Y-108779000D02*
X-323035700Y-110109000D01*
%TO.C,J26*%
X-198281600Y-109210800D02*
X-198281600Y-111870800D01*
X-190601600Y-109210800D02*
X-198281600Y-109210800D01*
X-190601600Y-109210800D02*
X-190601600Y-111870800D01*
X-190601600Y-111870800D02*
X-198281600Y-111870800D01*
X-189331600Y-109210800D02*
X-188001600Y-109210800D01*
X-188001600Y-109210800D02*
X-188001600Y-110540800D01*
%TO.C,J7*%
X-414613800Y-95435800D02*
X-414613800Y-93905800D01*
X-414303800Y-93325800D02*
X-400883800Y-93325800D01*
X-414303800Y-102455800D02*
X-414303800Y-93325800D01*
X-414303800Y-105115800D02*
X-414303800Y-104655800D01*
X-400883800Y-93325800D02*
X-400883800Y-102455800D01*
X-400883800Y-105115800D02*
X-400883800Y-104655800D01*
%TO.C,W2*%
X-367003200Y-108779000D02*
X-367003200Y-111439000D01*
X-363133200Y-108779000D02*
X-361803200Y-108779000D01*
X-361863200Y-108779000D02*
X-367003200Y-108779000D01*
X-361863200Y-108779000D02*
X-361863200Y-111439000D01*
X-361863200Y-111439000D02*
X-367003200Y-111439000D01*
X-361803200Y-108779000D02*
X-361803200Y-110109000D01*
%TO.C,GND2*%
X-441210000Y-111150000D02*
X-441210000Y-109820000D01*
X-439880000Y-111150000D02*
X-441210000Y-111150000D01*
X-438610000Y-108490000D02*
X-420770000Y-108490000D01*
X-438610000Y-111150000D02*
X-438610000Y-108490000D01*
X-438610000Y-111150000D02*
X-420770000Y-111150000D01*
X-420770000Y-111150000D02*
X-420770000Y-108490000D01*
%TO.C,D23*%
X-161617500Y-95632500D02*
X-158757500Y-95632500D01*
X-158757500Y-93712500D02*
X-161617500Y-93712500D01*
X-158757500Y-95632500D02*
X-158757500Y-93712500D01*
%TO.C,J5*%
X-172347400Y-109135400D02*
X-172347400Y-111895400D01*
X-169697400Y-109135400D02*
X-172347400Y-109135400D01*
X-169697400Y-109135400D02*
X-169697400Y-111895400D01*
X-169697400Y-111895400D02*
X-172347400Y-111895400D01*
X-168427400Y-109135400D02*
X-167047400Y-109135400D01*
X-167047400Y-109135400D02*
X-167047400Y-110515400D01*
%TO.C,J3*%
X-157775000Y-109080000D02*
X-157775000Y-111840000D01*
X-155125000Y-109080000D02*
X-157775000Y-109080000D01*
X-155125000Y-109080000D02*
X-155125000Y-111840000D01*
X-155125000Y-111840000D02*
X-157775000Y-111840000D01*
X-153855000Y-109080000D02*
X-152475000Y-109080000D01*
X-152475000Y-109080000D02*
X-152475000Y-110460000D01*
D19*
%TO.C,J37*%
X-413760000Y-49600000D02*
X-413760000Y-67380000D01*
X-413760000Y-67380000D02*
X-408760000Y-67380000D01*
X-408760000Y-49600000D02*
X-413760000Y-49600000D01*
X-408760000Y-67380000D02*
X-408760000Y-49600000D01*
D12*
X-412430000Y-48850000D02*
G75*
G02*
X-412630000Y-48850000I-100000J0D01*
G01*
X-412630000Y-48850000D02*
G75*
G02*
X-412430000Y-48850000I100000J0D01*
G01*
D18*
%TO.C,D35*%
X-177487500Y-95662500D02*
X-174627500Y-95662500D01*
X-174627500Y-93742500D02*
X-177487500Y-93742500D01*
X-174627500Y-95662500D02*
X-174627500Y-93742500D01*
%TO.C,J15*%
X-246567200Y-109033000D02*
X-246567200Y-111693000D01*
X-238887200Y-109033000D02*
X-246567200Y-109033000D01*
X-238887200Y-109033000D02*
X-238887200Y-111693000D01*
X-238887200Y-111693000D02*
X-246567200Y-111693000D01*
X-237617200Y-109033000D02*
X-236287200Y-109033000D01*
X-236287200Y-109033000D02*
X-236287200Y-110363000D01*
%TO.C,W12*%
X-302235700Y-108779000D02*
X-302235700Y-111439000D01*
X-298365700Y-108779000D02*
X-297035700Y-108779000D01*
X-297095700Y-108779000D02*
X-302235700Y-108779000D01*
X-297095700Y-108779000D02*
X-297095700Y-111439000D01*
X-297095700Y-111439000D02*
X-302235700Y-111439000D01*
X-297035700Y-108779000D02*
X-297035700Y-110109000D01*
%TO.C,W9*%
X-321735700Y-108779000D02*
X-321735700Y-111439000D01*
X-317865700Y-108779000D02*
X-316535700Y-108779000D01*
X-316595700Y-108779000D02*
X-321735700Y-108779000D01*
X-316595700Y-108779000D02*
X-316595700Y-111439000D01*
X-316595700Y-111439000D02*
X-321735700Y-111439000D01*
X-316535700Y-108779000D02*
X-316535700Y-110109000D01*
%TO.C,J10*%
X-148903200Y-108779800D02*
X-148903200Y-111539800D01*
X-146253200Y-108779800D02*
X-148903200Y-108779800D01*
X-146253200Y-108779800D02*
X-146253200Y-111539800D01*
X-146253200Y-111539800D02*
X-148903200Y-111539800D01*
X-144983200Y-108779800D02*
X-143603200Y-108779800D01*
X-143603200Y-108779800D02*
X-143603200Y-110159800D01*
%TD*%
M02*
