%TF.GenerationSoftware,KiCad,Pcbnew,9.0.7*%
%TF.CreationDate,2026-02-11T10:07:39-06:00*%
%TF.ProjectId,GrizzlySimHW,4772697a-7a6c-4795-9369-6d48572e6b69,rev?*%
%TF.SameCoordinates,Original*%
%TF.FileFunction,Soldermask,Bot*%
%TF.FilePolarity,Negative*%
%FSLAX46Y46*%
G04 Gerber Fmt 4.6, Leading zero omitted, Abs format (unit mm)*
G04 Created by KiCad (PCBNEW 9.0.7) date 2026-02-11 10:07:39*
%MOMM*%
%LPD*%
G01*
G04 APERTURE LIST*
G04 Aperture macros list*
%AMRoundRect*
0 Rectangle with rounded corners*
0 $1 Rounding radius*
0 $2 $3 $4 $5 $6 $7 $8 $9 X,Y pos of 4 corners*
0 Add a 4 corners polygon primitive as box body*
4,1,4,$2,$3,$4,$5,$6,$7,$8,$9,$2,$3,0*
0 Add four circle primitives for the rounded corners*
1,1,$1+$1,$2,$3*
1,1,$1+$1,$4,$5*
1,1,$1+$1,$6,$7*
1,1,$1+$1,$8,$9*
0 Add four rect primitives between the rounded corners*
20,1,$1+$1,$2,$3,$4,$5,0*
20,1,$1+$1,$4,$5,$6,$7,0*
20,1,$1+$1,$6,$7,$8,$9,0*
20,1,$1+$1,$8,$9,$2,$3,0*%
G04 Aperture macros list end*
%ADD10R,1.800000X1.800000*%
%ADD11O,1.800000X1.800000*%
%ADD12C,3.200000*%
%ADD13R,1.700000X1.700000*%
%ADD14C,1.700000*%
%ADD15C,3.250000*%
%ADD16RoundRect,0.250000X-0.510000X-0.510000X0.510000X-0.510000X0.510000X0.510000X-0.510000X0.510000X0*%
%ADD17C,1.520000*%
%ADD18RoundRect,0.102000X-0.765000X0.765000X-0.765000X-0.765000X0.765000X-0.765000X0.765000X0.765000X0*%
%ADD19C,1.734000*%
%ADD20RoundRect,0.250000X-0.475000X0.250000X-0.475000X-0.250000X0.475000X-0.250000X0.475000X0.250000X0*%
%ADD21RoundRect,0.250000X0.262500X0.450000X-0.262500X0.450000X-0.262500X-0.450000X0.262500X-0.450000X0*%
%ADD22RoundRect,0.250000X-0.450000X0.262500X-0.450000X-0.262500X0.450000X-0.262500X0.450000X0.262500X0*%
%ADD23RoundRect,0.250000X-0.250000X-0.475000X0.250000X-0.475000X0.250000X0.475000X-0.250000X0.475000X0*%
%ADD24RoundRect,0.198500X0.198500X-0.508500X0.198500X0.508500X-0.198500X0.508500X-0.198500X-0.508500X0*%
%ADD25RoundRect,0.198500X-0.508500X-0.198500X0.508500X-0.198500X0.508500X0.198500X-0.508500X0.198500X0*%
%ADD26RoundRect,0.060500X-0.776500X-0.181500X0.776500X-0.181500X0.776500X0.181500X-0.776500X0.181500X0*%
%ADD27RoundRect,0.250000X0.250000X0.475000X-0.250000X0.475000X-0.250000X-0.475000X0.250000X-0.475000X0*%
%ADD28RoundRect,0.249999X-0.850001X-3.500001X0.850001X-3.500001X0.850001X3.500001X-0.850001X3.500001X0*%
%ADD29RoundRect,0.250000X-0.262500X-0.450000X0.262500X-0.450000X0.262500X0.450000X-0.262500X0.450000X0*%
%ADD30RoundRect,0.250000X0.450000X-0.262500X0.450000X0.262500X-0.450000X0.262500X-0.450000X-0.262500X0*%
%ADD31RoundRect,0.250000X0.325000X0.450000X-0.325000X0.450000X-0.325000X-0.450000X0.325000X-0.450000X0*%
%ADD32R,0.381000X1.320800*%
%ADD33RoundRect,0.100000X-0.100000X0.562500X-0.100000X-0.562500X0.100000X-0.562500X0.100000X0.562500X0*%
%ADD34RoundRect,0.076750X0.810250X0.230250X-0.810250X0.230250X-0.810250X-0.230250X0.810250X-0.230250X0*%
%ADD35R,3.100000X2.400000*%
%ADD36RoundRect,0.150000X0.150000X-0.737500X0.150000X0.737500X-0.150000X0.737500X-0.150000X-0.737500X0*%
%ADD37RoundRect,0.250000X0.650000X-1.000000X0.650000X1.000000X-0.650000X1.000000X-0.650000X-1.000000X0*%
%ADD38RoundRect,0.250001X1.999999X0.799999X-1.999999X0.799999X-1.999999X-0.799999X1.999999X-0.799999X0*%
%ADD39RoundRect,0.250000X1.000000X-1.400000X1.000000X1.400000X-1.000000X1.400000X-1.000000X-1.400000X0*%
%ADD40RoundRect,0.150000X-0.150000X0.825000X-0.150000X-0.825000X0.150000X-0.825000X0.150000X0.825000X0*%
%ADD41RoundRect,0.150000X0.150000X-0.825000X0.150000X0.825000X-0.150000X0.825000X-0.150000X-0.825000X0*%
%ADD42C,6.000000*%
%ADD43O,1.700000X1.700000*%
%ADD44RoundRect,0.250000X0.475000X-0.250000X0.475000X0.250000X-0.475000X0.250000X-0.475000X-0.250000X0*%
%ADD45RoundRect,0.100000X0.100000X-0.562500X0.100000X0.562500X-0.100000X0.562500X-0.100000X-0.562500X0*%
G04 APERTURE END LIST*
D10*
%TO.C,J31*%
X-205359000Y-110413800D03*
D11*
X-207899000Y-110413800D03*
X-210439000Y-110413800D03*
X-212979000Y-110413800D03*
%TD*%
D10*
%TO.C,J8*%
X-254815300Y-110175000D03*
D11*
X-257355300Y-110175000D03*
X-259895300Y-110175000D03*
X-262435300Y-110175000D03*
%TD*%
D10*
%TO.C,J5*%
X-175285400Y-110515400D03*
D11*
X-177825400Y-110515400D03*
X-180365400Y-110515400D03*
X-182905400Y-110515400D03*
%TD*%
D12*
%TO.C,REF\u002A\u002A*%
X-411170000Y-43770000D03*
%TD*%
D10*
%TO.C,W14*%
X-285365700Y-110109000D03*
D11*
X-287905700Y-110109000D03*
%TD*%
D12*
%TO.C,REF\u002A\u002A*%
X-145950000Y-34100000D03*
%TD*%
%TO.C,REF\u002A\u002A*%
X-470670000Y-30900000D03*
%TD*%
D10*
%TO.C,W7*%
X-330865700Y-110109000D03*
D11*
X-333405700Y-110109000D03*
%TD*%
D10*
%TO.C,W5*%
X-343865700Y-110109000D03*
D11*
X-346405700Y-110109000D03*
%TD*%
D13*
%TO.C,J1*%
X-161721800Y-110464600D03*
D14*
X-164261800Y-110464600D03*
%TD*%
D10*
%TO.C,J14*%
X-221691200Y-110359200D03*
D11*
X-224231200Y-110359200D03*
X-226771200Y-110359200D03*
X-229311200Y-110359200D03*
%TD*%
D10*
%TO.C,W11*%
X-304865700Y-110109000D03*
D11*
X-307405700Y-110109000D03*
%TD*%
D10*
%TO.C,W1*%
X-369633200Y-110109000D03*
D11*
X-372173200Y-110109000D03*
%TD*%
D10*
%TO.C,W3*%
X-356865700Y-110109000D03*
D11*
X-359405700Y-110109000D03*
%TD*%
D10*
%TO.C,J6*%
X-378256800Y-110058200D03*
D11*
X-380796800Y-110058200D03*
X-383336800Y-110058200D03*
X-385876800Y-110058200D03*
X-388416800Y-110058200D03*
X-390956800Y-110058200D03*
X-393496800Y-110058200D03*
X-396036800Y-110058200D03*
%TD*%
D12*
%TO.C,REF\u002A\u002A*%
X-139920000Y-41410000D03*
%TD*%
D10*
%TO.C,W13*%
X-291865700Y-110109000D03*
D11*
X-294405700Y-110109000D03*
%TD*%
D10*
%TO.C,W6*%
X-337365700Y-110109000D03*
D11*
X-339905700Y-110109000D03*
%TD*%
D10*
%TO.C,J9*%
X-269965600Y-110072600D03*
D11*
X-272505600Y-110072600D03*
X-275045600Y-110072600D03*
X-277585600Y-110072600D03*
%TD*%
D10*
%TO.C,W10*%
X-311213200Y-110109000D03*
D11*
X-313753200Y-110109000D03*
%TD*%
D10*
%TO.C,W4*%
X-350365700Y-110109000D03*
D11*
X-352905700Y-110109000D03*
%TD*%
D10*
%TO.C,W8*%
X-324365700Y-110109000D03*
D11*
X-326905700Y-110109000D03*
%TD*%
D10*
%TO.C,J26*%
X-189331600Y-110540800D03*
D11*
X-191871600Y-110540800D03*
X-194411600Y-110540800D03*
X-196951600Y-110540800D03*
%TD*%
D15*
%TO.C,J7*%
X-412673800Y-103555800D03*
X-402513800Y-103555800D03*
D16*
X-410773800Y-94665800D03*
D17*
X-409503800Y-97205800D03*
X-408233800Y-94665800D03*
X-406963800Y-97205800D03*
X-405693800Y-94665800D03*
X-404423800Y-97205800D03*
%TD*%
D12*
%TO.C,REF\u002A\u002A*%
X-140420000Y-99680000D03*
%TD*%
D10*
%TO.C,W2*%
X-363133200Y-110109000D03*
D11*
X-365673200Y-110109000D03*
%TD*%
D10*
%TO.C,GND2*%
X-439880000Y-109820000D03*
D11*
X-437340000Y-109820000D03*
X-434800000Y-109820000D03*
X-432260000Y-109820000D03*
X-429720000Y-109820000D03*
X-427180000Y-109820000D03*
X-424640000Y-109820000D03*
X-422100000Y-109820000D03*
%TD*%
D13*
%TO.C,J5*%
X-168427400Y-110515400D03*
D14*
X-170967400Y-110515400D03*
%TD*%
D13*
%TO.C,J3*%
X-153855000Y-110460000D03*
D14*
X-156395000Y-110460000D03*
%TD*%
D18*
%TO.C,J37*%
X-412530000Y-50870000D03*
D19*
X-409990000Y-50870000D03*
X-412530000Y-53410000D03*
X-409990000Y-53410000D03*
X-412530000Y-55950000D03*
X-409990000Y-55950000D03*
X-412530000Y-58490000D03*
X-409990000Y-58490000D03*
X-412530000Y-61030000D03*
X-409990000Y-61030000D03*
X-412530000Y-63570000D03*
X-409990000Y-63570000D03*
X-412530000Y-66110000D03*
X-409990000Y-66110000D03*
%TD*%
D10*
%TO.C,J15*%
X-237617200Y-110363000D03*
D11*
X-240157200Y-110363000D03*
X-242697200Y-110363000D03*
X-245237200Y-110363000D03*
%TD*%
D10*
%TO.C,W12*%
X-298365700Y-110109000D03*
D11*
X-300905700Y-110109000D03*
%TD*%
D12*
%TO.C,REF\u002A\u002A*%
X-470670000Y-107420000D03*
%TD*%
%TO.C,REF\u002A\u002A*%
X-146050000Y-80750000D03*
%TD*%
D10*
%TO.C,W9*%
X-317865700Y-110109000D03*
D11*
X-320405700Y-110109000D03*
%TD*%
D13*
%TO.C,J10*%
X-144983200Y-110159800D03*
D14*
X-147523200Y-110159800D03*
%TD*%
D20*
%TO.C,C58*%
X-306006600Y-96106199D03*
X-306006600Y-98006199D03*
%TD*%
D21*
%TO.C,R105*%
X-219178500Y-92909400D03*
X-221003500Y-92909400D03*
%TD*%
D22*
%TO.C,R162*%
X-358947601Y-100037200D03*
X-358947601Y-101862200D03*
%TD*%
%TO.C,R43*%
X-386050000Y-102047500D03*
X-386050000Y-103872500D03*
%TD*%
D23*
%TO.C,C45*%
X-200220000Y-49980000D03*
X-198320000Y-49980000D03*
%TD*%
D24*
%TO.C,U31*%
X-240172400Y-96470700D03*
X-241122400Y-96470700D03*
X-242072400Y-96470700D03*
X-242072400Y-93960700D03*
X-240172400Y-93960700D03*
%TD*%
D21*
%TO.C,R106*%
X-235282300Y-92964000D03*
X-237107300Y-92964000D03*
%TD*%
D22*
%TO.C,R3*%
X-378300000Y-105587500D03*
X-378300000Y-107412500D03*
%TD*%
D24*
%TO.C,U47*%
X-192293200Y-96657400D03*
X-193243200Y-96657400D03*
X-194193200Y-96657400D03*
X-194193200Y-94147400D03*
X-192293200Y-94147400D03*
%TD*%
%TO.C,U16*%
X-256946600Y-96494800D03*
X-257896600Y-96494800D03*
X-258846600Y-96494800D03*
X-258846600Y-93984800D03*
X-256946600Y-93984800D03*
%TD*%
D20*
%TO.C,C30*%
X-371576600Y-96154200D03*
X-371576600Y-98054200D03*
%TD*%
D21*
%TO.C,R122*%
X-208000000Y-47450000D03*
X-209825000Y-47450000D03*
%TD*%
D25*
%TO.C,U24*%
X-271373000Y-101573800D03*
X-271373000Y-100623800D03*
X-271373000Y-99673800D03*
X-268863000Y-99673800D03*
X-268863000Y-101573800D03*
%TD*%
D22*
%TO.C,R174*%
X-319444000Y-100118299D03*
X-319444000Y-101943299D03*
%TD*%
D20*
%TO.C,C69*%
X-378290000Y-98560000D03*
X-378290000Y-100460000D03*
%TD*%
D21*
%TO.C,R129*%
X-227027100Y-105863400D03*
X-228852100Y-105863400D03*
%TD*%
D25*
%TO.C,U45*%
X-189891900Y-96809600D03*
X-189891900Y-95859600D03*
X-189891900Y-94909600D03*
X-187381900Y-94909600D03*
X-187381900Y-96809600D03*
%TD*%
D26*
%TO.C,U20*%
X-278237000Y-99871200D03*
X-278237000Y-99371200D03*
X-278237000Y-98871200D03*
X-278237000Y-98371200D03*
X-278237000Y-97871200D03*
X-273937000Y-97871200D03*
X-273937000Y-98371200D03*
X-273937000Y-98871200D03*
X-273937000Y-99371200D03*
X-273937000Y-99871200D03*
%TD*%
D27*
%TO.C,C21*%
X-161140000Y-44190000D03*
X-163040000Y-44190000D03*
%TD*%
D28*
%TO.C,L1*%
X-163150000Y-35150000D03*
X-157150000Y-35150000D03*
%TD*%
D26*
%TO.C,U50*%
X-196790200Y-100441000D03*
X-196790200Y-99941000D03*
X-196790200Y-99441000D03*
X-196790200Y-98941000D03*
X-196790200Y-98441000D03*
X-192490200Y-98441000D03*
X-192490200Y-98941000D03*
X-192490200Y-99441000D03*
X-192490200Y-99941000D03*
X-192490200Y-100441000D03*
%TD*%
D22*
%TO.C,R155*%
X-211988400Y-93905700D03*
X-211988400Y-95730700D03*
%TD*%
D23*
%TO.C,C41*%
X-200210000Y-58260000D03*
X-198310000Y-58260000D03*
%TD*%
D21*
%TO.C,R156*%
X-328629100Y-80324600D03*
X-330454100Y-80324600D03*
%TD*%
D20*
%TO.C,C39*%
X-358947601Y-96316700D03*
X-358947601Y-98216700D03*
%TD*%
D22*
%TO.C,R152*%
X-196011800Y-94108900D03*
X-196011800Y-95933900D03*
%TD*%
D29*
%TO.C,R116*%
X-179400000Y-94702500D03*
X-177575000Y-94702500D03*
%TD*%
%TO.C,R127*%
X-205432500Y-33480000D03*
X-203607500Y-33480000D03*
%TD*%
D20*
%TO.C,C53*%
X-331763000Y-103334799D03*
X-331763000Y-105234799D03*
%TD*%
%TO.C,C50*%
X-344769801Y-103504599D03*
X-344769801Y-105404599D03*
%TD*%
D25*
%TO.C,U57*%
X-205801200Y-102245200D03*
X-205801200Y-101295200D03*
X-205801200Y-100345200D03*
X-203291200Y-100345200D03*
X-203291200Y-102245200D03*
%TD*%
D21*
%TO.C,R183*%
X-187405000Y-98653600D03*
X-189230000Y-98653600D03*
%TD*%
D29*
%TO.C,R139*%
X-328112500Y-78324600D03*
X-326287500Y-78324600D03*
%TD*%
D27*
%TO.C,C38*%
X-195050000Y-41950000D03*
X-196950000Y-41950000D03*
%TD*%
D23*
%TO.C,C44*%
X-200230000Y-52050000D03*
X-198330000Y-52050000D03*
%TD*%
D21*
%TO.C,R69*%
X-406655900Y-101092000D03*
X-408480900Y-101092000D03*
%TD*%
D29*
%TO.C,R93*%
X-163530000Y-94672500D03*
X-161705000Y-94672500D03*
%TD*%
D25*
%TO.C,U39*%
X-221701600Y-102317600D03*
X-221701600Y-101367600D03*
X-221701600Y-100417600D03*
X-219191600Y-100417600D03*
X-219191600Y-102317600D03*
%TD*%
D21*
%TO.C,R84*%
X-276596900Y-105399000D03*
X-278421900Y-105399000D03*
%TD*%
D30*
%TO.C,R124*%
X-224256600Y-103983800D03*
X-224256600Y-102158800D03*
%TD*%
%TO.C,R175*%
X-192481200Y-103985700D03*
X-192481200Y-102160700D03*
%TD*%
D21*
%TO.C,R85*%
X-251980300Y-98389400D03*
X-253805300Y-98389400D03*
%TD*%
D20*
%TO.C,C54*%
X-199250000Y-101000000D03*
X-199250000Y-102900000D03*
%TD*%
D30*
%TO.C,R78*%
X-257109200Y-103899300D03*
X-257109200Y-102074300D03*
%TD*%
%TO.C,R30*%
X-394390000Y-103922500D03*
X-394390000Y-102097500D03*
%TD*%
D23*
%TO.C,C17*%
X-283017000Y-100914200D03*
X-281117000Y-100914200D03*
%TD*%
D31*
%TO.C,D46*%
X-322516600Y-78324600D03*
X-324566600Y-78324600D03*
%TD*%
D29*
%TO.C,R103*%
X-228039300Y-92122000D03*
X-226214300Y-92122000D03*
%TD*%
D32*
%TO.C,U34*%
X-353273602Y-105191500D03*
X-353923600Y-105191500D03*
X-354573602Y-105191500D03*
X-355223600Y-105191500D03*
X-355223600Y-102803900D03*
X-354573602Y-102803900D03*
X-353923600Y-102803900D03*
X-353273602Y-102803900D03*
%TD*%
D29*
%TO.C,R114*%
X-205412500Y-47450000D03*
X-203587500Y-47450000D03*
%TD*%
D22*
%TO.C,R128*%
X-233273800Y-98553900D03*
X-233273800Y-100378900D03*
%TD*%
%TO.C,R101*%
X-217271600Y-92885900D03*
X-217271600Y-94710900D03*
%TD*%
D33*
%TO.C,U10*%
X-395021400Y-85093100D03*
X-394371400Y-85093100D03*
X-393721400Y-85093100D03*
X-393721400Y-86868100D03*
X-395021400Y-86868100D03*
%TD*%
D29*
%TO.C,R95*%
X-175782500Y-45230000D03*
X-173957500Y-45230000D03*
%TD*%
D22*
%TO.C,R6*%
X-389050800Y-102069100D03*
X-389050800Y-103894100D03*
%TD*%
D34*
%TO.C,U49*%
X-320801600Y-80224600D03*
X-320801600Y-80874600D03*
X-320801600Y-81524600D03*
X-320801600Y-82174600D03*
X-320801600Y-82824600D03*
X-320801600Y-83474600D03*
X-320801600Y-84124600D03*
X-320801600Y-84774600D03*
X-320801600Y-85424600D03*
X-320801600Y-86074600D03*
X-320801600Y-86724600D03*
X-320801600Y-87374600D03*
X-326541600Y-87374600D03*
X-326541600Y-86724600D03*
X-326541600Y-86074600D03*
X-326541600Y-85424600D03*
X-326541600Y-84774600D03*
X-326541600Y-84124600D03*
X-326541600Y-83474600D03*
X-326541600Y-82824600D03*
X-326541600Y-82174600D03*
X-326541600Y-81524600D03*
X-326541600Y-80874600D03*
X-326541600Y-80224600D03*
%TD*%
D22*
%TO.C,R73*%
X-277534800Y-93462900D03*
X-277534800Y-95287900D03*
%TD*%
D21*
%TO.C,R68*%
X-268799100Y-92165600D03*
X-270624100Y-92165600D03*
%TD*%
D28*
%TO.C,L2*%
X-197500000Y-35950000D03*
X-191500000Y-35950000D03*
%TD*%
D22*
%TO.C,R108*%
X-243992600Y-93880300D03*
X-243992600Y-95705300D03*
%TD*%
D25*
%TO.C,U46*%
X-205775800Y-96631800D03*
X-205775800Y-95681800D03*
X-205775800Y-94731800D03*
X-203265800Y-94731800D03*
X-203265800Y-96631800D03*
%TD*%
D21*
%TO.C,R76*%
X-281129100Y-98856800D03*
X-282954100Y-98856800D03*
%TD*%
D25*
%TO.C,U55*%
X-212938600Y-103820000D03*
X-212938600Y-102870000D03*
X-212938600Y-101920000D03*
X-210428600Y-101920000D03*
X-210428600Y-103820000D03*
%TD*%
D27*
%TO.C,C48*%
X-203570000Y-37570000D03*
X-205470000Y-37570000D03*
%TD*%
D25*
%TO.C,U29*%
X-237866600Y-96708000D03*
X-237866600Y-95758000D03*
X-237866600Y-94808000D03*
X-235356600Y-94808000D03*
X-235356600Y-96708000D03*
%TD*%
D22*
%TO.C,R60*%
X-266917600Y-91964300D03*
X-266917600Y-93789300D03*
%TD*%
D32*
%TO.C,U44*%
X-326481801Y-105003600D03*
X-327131799Y-105003600D03*
X-327781801Y-105003600D03*
X-328431799Y-105003600D03*
X-328431799Y-102616000D03*
X-327781801Y-102616000D03*
X-327131799Y-102616000D03*
X-326481801Y-102616000D03*
%TD*%
%TO.C,U53*%
X-314162801Y-104749600D03*
X-314812799Y-104749600D03*
X-315462801Y-104749600D03*
X-316112799Y-104749600D03*
X-316112799Y-102362000D03*
X-315462801Y-102362000D03*
X-314812799Y-102362000D03*
X-314162801Y-102362000D03*
%TD*%
D30*
%TO.C,R125*%
X-240309600Y-103858700D03*
X-240309600Y-102033700D03*
%TD*%
D32*
%TO.C,U43*%
X-328544199Y-97116000D03*
X-327894201Y-97116000D03*
X-327244199Y-97116000D03*
X-326594201Y-97116000D03*
X-326594201Y-99503600D03*
X-327244199Y-99503600D03*
X-327894201Y-99503600D03*
X-328544199Y-99503600D03*
%TD*%
D21*
%TO.C,R185*%
X-203176500Y-98475800D03*
X-205001500Y-98475800D03*
%TD*%
D27*
%TO.C,C37*%
X-195050000Y-43950000D03*
X-196950000Y-43950000D03*
%TD*%
D22*
%TO.C,R100*%
X-173290000Y-35167500D03*
X-173290000Y-36992500D03*
%TD*%
D26*
%TO.C,U35*%
X-228616400Y-100361000D03*
X-228616400Y-99861000D03*
X-228616400Y-99361000D03*
X-228616400Y-98861000D03*
X-228616400Y-98361000D03*
X-224316400Y-98361000D03*
X-224316400Y-98861000D03*
X-224316400Y-99361000D03*
X-224316400Y-99861000D03*
X-224316400Y-100361000D03*
%TD*%
D35*
%TO.C,U32*%
X-204200000Y-42600000D03*
D36*
X-202295000Y-45162500D03*
X-203565000Y-45162500D03*
X-204835000Y-45162500D03*
X-206105000Y-45162500D03*
X-206105000Y-40037500D03*
X-204835000Y-40037500D03*
X-203565000Y-40037500D03*
X-202295000Y-40037500D03*
%TD*%
D33*
%TO.C,U7*%
X-391641500Y-85077900D03*
X-390991500Y-85077900D03*
X-390341500Y-85077900D03*
X-390341500Y-86852900D03*
X-391641500Y-86852900D03*
%TD*%
D29*
%TO.C,R148*%
X-196035300Y-92227400D03*
X-194210300Y-92227400D03*
%TD*%
D21*
%TO.C,R153*%
X-328629100Y-82324600D03*
X-330454100Y-82324600D03*
%TD*%
D29*
%TO.C,R91*%
X-171422500Y-47290000D03*
X-169597500Y-47290000D03*
%TD*%
D21*
%TO.C,R94*%
X-173897500Y-47300000D03*
X-175722500Y-47300000D03*
%TD*%
D22*
%TO.C,R133*%
X-207500000Y-35537500D03*
X-207500000Y-37362500D03*
%TD*%
D32*
%TO.C,U59*%
X-300675401Y-104775000D03*
X-301325399Y-104775000D03*
X-301975401Y-104775000D03*
X-302625399Y-104775000D03*
X-302625399Y-102387400D03*
X-301975401Y-102387400D03*
X-301325399Y-102387400D03*
X-300675401Y-102387400D03*
%TD*%
D20*
%TO.C,C57*%
X-319444000Y-103580799D03*
X-319444000Y-105480799D03*
%TD*%
D27*
%TO.C,C51*%
X-318950000Y-78324600D03*
X-320850000Y-78324600D03*
%TD*%
D20*
%TO.C,C31*%
X-371601100Y-103139200D03*
X-371601100Y-105039200D03*
%TD*%
%TO.C,C60*%
X-293674800Y-102758200D03*
X-293674800Y-104658200D03*
%TD*%
D32*
%TO.C,U42*%
X-339502202Y-104648000D03*
X-340152200Y-104648000D03*
X-340802202Y-104648000D03*
X-341452200Y-104648000D03*
X-341452200Y-102260400D03*
X-340802202Y-102260400D03*
X-340152200Y-102260400D03*
X-339502202Y-102260400D03*
%TD*%
D20*
%TO.C,C66*%
X-391340000Y-98490000D03*
X-391340000Y-100390000D03*
%TD*%
D22*
%TO.C,R4*%
X-389050800Y-105572400D03*
X-389050800Y-107397400D03*
%TD*%
D25*
%TO.C,U40*%
X-237780000Y-102448400D03*
X-237780000Y-101498400D03*
X-237780000Y-100548400D03*
X-235270000Y-100548400D03*
X-235270000Y-102448400D03*
%TD*%
D22*
%TO.C,R70*%
X-260817600Y-93895500D03*
X-260817600Y-95720500D03*
%TD*%
D21*
%TO.C,R132*%
X-235256900Y-98577400D03*
X-237081900Y-98577400D03*
%TD*%
D30*
%TO.C,R29*%
X-383130000Y-103882500D03*
X-383130000Y-102057500D03*
%TD*%
D22*
%TO.C,R58*%
X-250098800Y-92650900D03*
X-250098800Y-94475900D03*
%TD*%
D37*
%TO.C,D34*%
X-201000000Y-36950000D03*
X-201000000Y-32950000D03*
%TD*%
D27*
%TO.C,C29*%
X-169510000Y-35340000D03*
X-171410000Y-35340000D03*
%TD*%
D26*
%TO.C,U36*%
X-244669400Y-100212400D03*
X-244669400Y-99712400D03*
X-244669400Y-99212400D03*
X-244669400Y-98712400D03*
X-244669400Y-98212400D03*
X-240369400Y-98212400D03*
X-240369400Y-98712400D03*
X-240369400Y-99212400D03*
X-240369400Y-99712400D03*
X-240369400Y-100212400D03*
%TD*%
D27*
%TO.C,C32*%
X-169510000Y-37400000D03*
X-171410000Y-37400000D03*
%TD*%
D22*
%TO.C,R179*%
X-201345800Y-98325300D03*
X-201345800Y-100150300D03*
%TD*%
D23*
%TO.C,C42*%
X-200220000Y-56180000D03*
X-198320000Y-56180000D03*
%TD*%
D37*
%TO.C,D22*%
X-166640000Y-36830000D03*
X-166640000Y-32830000D03*
%TD*%
D22*
%TO.C,R28*%
X-394390000Y-105547500D03*
X-394390000Y-107372500D03*
%TD*%
D20*
%TO.C,C52*%
X-331749400Y-96052600D03*
X-331749400Y-97952600D03*
%TD*%
%TO.C,C64*%
X-394350000Y-98500000D03*
X-394350000Y-100400000D03*
%TD*%
D21*
%TO.C,R87*%
X-268799100Y-97829800D03*
X-270624100Y-97829800D03*
%TD*%
D29*
%TO.C,R92*%
X-171372500Y-31290000D03*
X-169547500Y-31290000D03*
%TD*%
D22*
%TO.C,R107*%
X-227888800Y-94003500D03*
X-227888800Y-95828500D03*
%TD*%
D32*
%TO.C,U33*%
X-355177999Y-97622300D03*
X-354528001Y-97622300D03*
X-353877999Y-97622300D03*
X-353228001Y-97622300D03*
X-353228001Y-100009900D03*
X-353877999Y-100009900D03*
X-354528001Y-100009900D03*
X-355177999Y-100009900D03*
%TD*%
D38*
%TO.C,C46*%
X-204500000Y-55450000D03*
X-211700000Y-55450000D03*
%TD*%
D24*
%TO.C,U30*%
X-224119400Y-96602800D03*
X-225069400Y-96602800D03*
X-226019400Y-96602800D03*
X-226019400Y-94092800D03*
X-224119400Y-94092800D03*
%TD*%
D29*
%TO.C,R62*%
X-261069700Y-92014000D03*
X-259244700Y-92014000D03*
%TD*%
D27*
%TO.C,C20*%
X-161150000Y-46250000D03*
X-163050000Y-46250000D03*
%TD*%
D25*
%TO.C,U21*%
X-261564600Y-103962200D03*
X-261564600Y-103012200D03*
X-261564600Y-102062200D03*
X-259054600Y-102062200D03*
X-259054600Y-103962200D03*
%TD*%
D21*
%TO.C,R184*%
X-300712500Y-95199200D03*
X-302537500Y-95199200D03*
%TD*%
%TO.C,R131*%
X-219102300Y-98522800D03*
X-220927300Y-98522800D03*
%TD*%
D27*
%TO.C,C22*%
X-161150000Y-42080000D03*
X-163050000Y-42080000D03*
%TD*%
D32*
%TO.C,U58*%
X-302625399Y-97387400D03*
X-301975401Y-97387400D03*
X-301325399Y-97387400D03*
X-300675401Y-97387400D03*
X-300675401Y-99775000D03*
X-301325399Y-99775000D03*
X-301975401Y-99775000D03*
X-302625399Y-99775000D03*
%TD*%
D23*
%TO.C,C26*%
X-166110000Y-51770000D03*
X-164210000Y-51770000D03*
%TD*%
D32*
%TO.C,U52*%
X-316225199Y-97362000D03*
X-315575201Y-97362000D03*
X-314925199Y-97362000D03*
X-314275201Y-97362000D03*
X-314275201Y-99749600D03*
X-314925199Y-99749600D03*
X-315575201Y-99749600D03*
X-316225199Y-99749600D03*
%TD*%
D39*
%TO.C,D21*%
X-171550000Y-63900000D03*
X-178350000Y-63900000D03*
%TD*%
D23*
%TO.C,C24*%
X-166130000Y-55900000D03*
X-164230000Y-55900000D03*
%TD*%
D20*
%TO.C,C65*%
X-383110000Y-98520000D03*
X-383110000Y-100420000D03*
%TD*%
%TO.C,C59*%
X-305956600Y-103606199D03*
X-305956600Y-105506199D03*
%TD*%
D25*
%TO.C,U15*%
X-271398400Y-95985800D03*
X-271398400Y-95035800D03*
X-271398400Y-94085800D03*
X-268888400Y-94085800D03*
X-268888400Y-95985800D03*
%TD*%
D22*
%TO.C,R165*%
X-344758501Y-100016699D03*
X-344758501Y-101841699D03*
%TD*%
D40*
%TO.C,U13*%
X-406298400Y-86171000D03*
X-405028400Y-86171000D03*
X-403758400Y-86171000D03*
X-402488400Y-86171000D03*
X-402488400Y-91121000D03*
X-403758400Y-91121000D03*
X-405028400Y-91121000D03*
X-406298400Y-91121000D03*
%TD*%
D25*
%TO.C,U56*%
X-189951600Y-102397600D03*
X-189951600Y-101447600D03*
X-189951600Y-100497600D03*
X-187441600Y-100497600D03*
X-187441600Y-102397600D03*
%TD*%
D20*
%TO.C,C68*%
X-389040000Y-98520000D03*
X-389040000Y-100420000D03*
%TD*%
D21*
%TO.C,R176*%
X-314250700Y-95224600D03*
X-316075700Y-95224600D03*
%TD*%
D26*
%TO.C,U51*%
X-212817600Y-100300000D03*
X-212817600Y-99800000D03*
X-212817600Y-99300000D03*
X-212817600Y-98800000D03*
X-212817600Y-98300000D03*
X-208517600Y-98300000D03*
X-208517600Y-98800000D03*
X-208517600Y-99300000D03*
X-208517600Y-99800000D03*
X-208517600Y-100300000D03*
%TD*%
D22*
%TO.C,R81*%
X-266917600Y-97730100D03*
X-266917600Y-99555100D03*
%TD*%
D21*
%TO.C,R83*%
X-260669000Y-105780800D03*
X-262494000Y-105780800D03*
%TD*%
D22*
%TO.C,R154*%
X-371602000Y-99671500D03*
X-371602000Y-101496500D03*
%TD*%
D20*
%TO.C,C40*%
X-358942401Y-103522699D03*
X-358942401Y-105422699D03*
%TD*%
D23*
%TO.C,C25*%
X-166110000Y-53830000D03*
X-164210000Y-53830000D03*
%TD*%
D21*
%TO.C,R157*%
X-366244500Y-95199200D03*
X-368069500Y-95199200D03*
%TD*%
D29*
%TO.C,R123*%
X-209912500Y-44950000D03*
X-208087500Y-44950000D03*
%TD*%
D32*
%TO.C,U41*%
X-341339800Y-97260400D03*
X-340689802Y-97260400D03*
X-340039800Y-97260400D03*
X-339389802Y-97260400D03*
X-339389802Y-99648000D03*
X-340039800Y-99648000D03*
X-340689802Y-99648000D03*
X-341339800Y-99648000D03*
%TD*%
D29*
%TO.C,R115*%
X-205432500Y-31450000D03*
X-203607500Y-31450000D03*
%TD*%
D22*
%TO.C,R146*%
X-185385700Y-93194500D03*
X-185385700Y-95019500D03*
%TD*%
D30*
%TO.C,R177*%
X-208508600Y-103782500D03*
X-208508600Y-101957500D03*
%TD*%
%TO.C,R19*%
X-380720000Y-103932500D03*
X-380720000Y-102107500D03*
%TD*%
D29*
%TO.C,R149*%
X-212189700Y-92049600D03*
X-210364700Y-92049600D03*
%TD*%
D22*
%TO.C,R38*%
X-397330000Y-105577500D03*
X-397330000Y-107402500D03*
%TD*%
D32*
%TO.C,U26*%
X-368137198Y-97434400D03*
X-367487200Y-97434400D03*
X-366837198Y-97434400D03*
X-366187200Y-97434400D03*
X-366187200Y-99822000D03*
X-366837198Y-99822000D03*
X-367487200Y-99822000D03*
X-368137198Y-99822000D03*
%TD*%
D21*
%TO.C,R181*%
X-195150100Y-105816400D03*
X-196975100Y-105816400D03*
%TD*%
D20*
%TO.C,C62*%
X-386080000Y-98520000D03*
X-386080000Y-100420000D03*
%TD*%
D25*
%TO.C,U28*%
X-221718100Y-96653400D03*
X-221718100Y-95703400D03*
X-221718100Y-94753400D03*
X-219208100Y-94753400D03*
X-219208100Y-96653400D03*
%TD*%
D23*
%TO.C,C23*%
X-166130000Y-57980000D03*
X-164230000Y-57980000D03*
%TD*%
%TO.C,C35*%
X-201950000Y-47450000D03*
X-200050000Y-47450000D03*
%TD*%
D22*
%TO.C,R126*%
X-217246200Y-98448500D03*
X-217246200Y-100273500D03*
%TD*%
%TO.C,R27*%
X-383120000Y-105537500D03*
X-383120000Y-107362500D03*
%TD*%
D32*
%TO.C,U60*%
X-289854398Y-97282000D03*
X-289204400Y-97282000D03*
X-288554398Y-97282000D03*
X-287904400Y-97282000D03*
X-287904400Y-99669600D03*
X-288554398Y-99669600D03*
X-289204400Y-99669600D03*
X-289854398Y-99669600D03*
%TD*%
D29*
%TO.C,R104*%
X-244168500Y-92024200D03*
X-242343500Y-92024200D03*
%TD*%
D22*
%TO.C,R145*%
X-317150000Y-78187500D03*
X-317150000Y-80012500D03*
%TD*%
D27*
%TO.C,C36*%
X-195050000Y-46050000D03*
X-196950000Y-46050000D03*
%TD*%
D20*
%TO.C,C61*%
X-293663000Y-95630801D03*
X-293663000Y-97530801D03*
%TD*%
%TO.C,C49*%
X-344769801Y-96290999D03*
X-344769801Y-98190999D03*
%TD*%
D25*
%TO.C,U23*%
X-254528800Y-102133400D03*
X-254528800Y-101183400D03*
X-254528800Y-100233400D03*
X-252018800Y-100233400D03*
X-252018800Y-102133400D03*
%TD*%
%TO.C,U22*%
X-278374500Y-103453400D03*
X-278374500Y-102503400D03*
X-278374500Y-101553400D03*
X-275864500Y-101553400D03*
X-275864500Y-103453400D03*
%TD*%
D20*
%TO.C,C67*%
X-380720000Y-98530000D03*
X-380720000Y-100430000D03*
%TD*%
D21*
%TO.C,R182*%
X-211177500Y-105664000D03*
X-213002500Y-105664000D03*
%TD*%
%TO.C,R164*%
X-353336101Y-95158500D03*
X-355161101Y-95158500D03*
%TD*%
D22*
%TO.C,R186*%
X-293674800Y-99163500D03*
X-293674800Y-100988500D03*
%TD*%
D41*
%TO.C,U6*%
X-383790000Y-95400000D03*
X-385060000Y-95400000D03*
X-386330000Y-95400000D03*
X-387600000Y-95400000D03*
X-388870000Y-95400000D03*
X-390140000Y-95400000D03*
X-391410000Y-95400000D03*
X-392680000Y-95400000D03*
X-392680000Y-90450000D03*
X-391410000Y-90450000D03*
X-390140000Y-90450000D03*
X-388870000Y-90450000D03*
X-387600000Y-90450000D03*
X-386330000Y-90450000D03*
X-385060000Y-90450000D03*
X-383790000Y-90450000D03*
%TD*%
D22*
%TO.C,R178*%
X-185420000Y-98528500D03*
X-185420000Y-100353500D03*
%TD*%
D20*
%TO.C,C55*%
X-215200000Y-101300000D03*
X-215200000Y-103200000D03*
%TD*%
D25*
%TO.C,U14*%
X-254554200Y-96545400D03*
X-254554200Y-95595400D03*
X-254554200Y-94645400D03*
X-252044200Y-94645400D03*
X-252044200Y-96545400D03*
%TD*%
D42*
%TO.C,P1*%
X-447405000Y-90185000D03*
X-447405000Y-32185000D03*
D13*
X-425675000Y-37055000D03*
D43*
X-423135000Y-37055000D03*
X-425675000Y-39595000D03*
X-423135000Y-39595000D03*
X-425675000Y-42135000D03*
X-423135000Y-42135000D03*
X-425675000Y-44675000D03*
X-423135000Y-44675000D03*
X-425675000Y-47215000D03*
X-423135000Y-47215000D03*
X-425675000Y-49755000D03*
X-423135000Y-49755000D03*
X-425675000Y-52295000D03*
X-423135000Y-52295000D03*
X-425675000Y-54835000D03*
X-423135000Y-54835000D03*
X-425675000Y-57375000D03*
X-423135000Y-57375000D03*
X-425675000Y-59915000D03*
X-423135000Y-59915000D03*
X-425675000Y-62455000D03*
X-423135000Y-62455000D03*
X-425675000Y-64995000D03*
X-423135000Y-64995000D03*
X-425675000Y-67535000D03*
X-423135000Y-67535000D03*
X-425675000Y-70075000D03*
X-423135000Y-70075000D03*
X-425675000Y-72615000D03*
X-423135000Y-72615000D03*
X-425675000Y-75155000D03*
X-423135000Y-75155000D03*
X-425675000Y-77695000D03*
X-423135000Y-77695000D03*
X-425675000Y-80235000D03*
X-423135000Y-80235000D03*
X-425675000Y-82775000D03*
X-423135000Y-82775000D03*
X-425675000Y-85315000D03*
X-423135000Y-85315000D03*
%TD*%
D21*
%TO.C,R130*%
X-243892900Y-105765600D03*
X-245717900Y-105765600D03*
%TD*%
D30*
%TO.C,R17*%
X-380720000Y-107382500D03*
X-380720000Y-105557500D03*
%TD*%
D20*
%TO.C,C16*%
X-264050000Y-101050000D03*
X-264050000Y-102950000D03*
%TD*%
D32*
%TO.C,U61*%
X-287959800Y-104724200D03*
X-288609798Y-104724200D03*
X-289259800Y-104724200D03*
X-289909798Y-104724200D03*
X-289909798Y-102336600D03*
X-289259800Y-102336600D03*
X-288609798Y-102336600D03*
X-287959800Y-102336600D03*
%TD*%
%TO.C,U27*%
X-366206501Y-104800400D03*
X-366856499Y-104800400D03*
X-367506501Y-104800400D03*
X-368156499Y-104800400D03*
X-368156499Y-102412800D03*
X-367506501Y-102412800D03*
X-366856499Y-102412800D03*
X-366206501Y-102412800D03*
%TD*%
D27*
%TO.C,C47*%
X-203580000Y-35520000D03*
X-205480000Y-35520000D03*
%TD*%
D23*
%TO.C,C27*%
X-166100000Y-49690000D03*
X-164200000Y-49690000D03*
%TD*%
%TO.C,C43*%
X-200220000Y-54120000D03*
X-198320000Y-54120000D03*
%TD*%
D21*
%TO.C,R77*%
X-281103700Y-96850200D03*
X-282928700Y-96850200D03*
%TD*%
D38*
%TO.C,C28*%
X-171100000Y-55100000D03*
X-178300000Y-55100000D03*
%TD*%
D21*
%TO.C,R150*%
X-187267200Y-93040200D03*
X-189092200Y-93040200D03*
%TD*%
D33*
%TO.C,U2*%
X-385034600Y-85118500D03*
X-384384600Y-85118500D03*
X-383734600Y-85118500D03*
X-383734600Y-86893500D03*
X-385034600Y-86893500D03*
%TD*%
D22*
%TO.C,R80*%
X-250098800Y-98162700D03*
X-250098800Y-99987700D03*
%TD*%
D26*
%TO.C,U19*%
X-261469200Y-100303800D03*
X-261469200Y-99803800D03*
X-261469200Y-99303800D03*
X-261469200Y-98803800D03*
X-261469200Y-98303800D03*
X-257169200Y-98303800D03*
X-257169200Y-98803800D03*
X-257169200Y-99303800D03*
X-257169200Y-99803800D03*
X-257169200Y-100303800D03*
%TD*%
D24*
%TO.C,U17*%
X-273689200Y-96036800D03*
X-274639200Y-96036800D03*
X-275589200Y-96036800D03*
X-275589200Y-93526800D03*
X-273689200Y-93526800D03*
%TD*%
D22*
%TO.C,R5*%
X-378274600Y-102084200D03*
X-378274600Y-103909200D03*
%TD*%
D21*
%TO.C,R166*%
X-339463101Y-94954999D03*
X-341288101Y-94954999D03*
%TD*%
D20*
%TO.C,C34*%
X-247400000Y-100750000D03*
X-247400000Y-102650000D03*
%TD*%
D21*
%TO.C,R173*%
X-326620500Y-94869000D03*
X-328445500Y-94869000D03*
%TD*%
D22*
%TO.C,R180*%
X-305968400Y-100001700D03*
X-305968400Y-101826700D03*
%TD*%
%TO.C,R170*%
X-331763000Y-99773100D03*
X-331763000Y-101598100D03*
%TD*%
D21*
%TO.C,R187*%
X-287987100Y-94843600D03*
X-289812100Y-94843600D03*
%TD*%
%TO.C,R151*%
X-203201900Y-92887800D03*
X-205026900Y-92887800D03*
%TD*%
D20*
%TO.C,C56*%
X-319444000Y-96080799D03*
X-319444000Y-97980799D03*
%TD*%
%TO.C,C63*%
X-397331200Y-98547800D03*
X-397331200Y-100447800D03*
%TD*%
D22*
%TO.C,R20*%
X-391337800Y-102059100D03*
X-391337800Y-103884100D03*
%TD*%
%TO.C,R147*%
X-201345800Y-92965900D03*
X-201345800Y-94790900D03*
%TD*%
D21*
%TO.C,R65*%
X-251980300Y-92826800D03*
X-253805300Y-92826800D03*
%TD*%
D22*
%TO.C,R18*%
X-391340000Y-105557500D03*
X-391340000Y-107382500D03*
%TD*%
%TO.C,R44*%
X-397331200Y-102075300D03*
X-397331200Y-103900300D03*
%TD*%
D23*
%TO.C,C19*%
X-167910000Y-47310000D03*
X-166010000Y-47310000D03*
%TD*%
D22*
%TO.C,R102*%
X-233400800Y-92838900D03*
X-233400800Y-94663900D03*
%TD*%
D25*
%TO.C,U38*%
X-244815800Y-103870800D03*
X-244815800Y-102920800D03*
X-244815800Y-101970800D03*
X-242305800Y-101970800D03*
X-242305800Y-103870800D03*
%TD*%
D29*
%TO.C,R64*%
X-277736100Y-91581400D03*
X-275911100Y-91581400D03*
%TD*%
D44*
%TO.C,C11*%
X-408279600Y-89519800D03*
X-408279600Y-87619800D03*
%TD*%
D35*
%TO.C,U25*%
X-170110000Y-42240000D03*
D36*
X-168205000Y-44802500D03*
X-169475000Y-44802500D03*
X-170745000Y-44802500D03*
X-172015000Y-44802500D03*
X-172015000Y-39677500D03*
X-170745000Y-39677500D03*
X-169475000Y-39677500D03*
X-168205000Y-39677500D03*
%TD*%
D22*
%TO.C,R37*%
X-386070000Y-105527500D03*
X-386070000Y-107352500D03*
%TD*%
D24*
%TO.C,U48*%
X-208219000Y-96479600D03*
X-209169000Y-96479600D03*
X-210119000Y-96479600D03*
X-210119000Y-93969600D03*
X-208219000Y-93969600D03*
%TD*%
D25*
%TO.C,U54*%
X-196911200Y-104023200D03*
X-196911200Y-103073200D03*
X-196911200Y-102123200D03*
X-194401200Y-102123200D03*
X-194401200Y-104023200D03*
%TD*%
D20*
%TO.C,C33*%
X-231150000Y-100750000D03*
X-231150000Y-102650000D03*
%TD*%
D25*
%TO.C,U37*%
X-228753900Y-103994000D03*
X-228753900Y-103044000D03*
X-228753900Y-102094000D03*
X-226243900Y-102094000D03*
X-226243900Y-103994000D03*
%TD*%
D29*
%TO.C,R96*%
X-171372500Y-33310000D03*
X-169547500Y-33310000D03*
%TD*%
D20*
%TO.C,C2*%
X-381939600Y-91430000D03*
X-381939600Y-93330000D03*
%TD*%
D30*
%TO.C,R79*%
X-273801000Y-103390500D03*
X-273801000Y-101565500D03*
%TD*%
D45*
%TO.C,U5*%
X-387089100Y-86852900D03*
X-387739100Y-86852900D03*
X-388389100Y-86852900D03*
X-388389100Y-85077900D03*
X-387089100Y-85077900D03*
%TD*%
M02*
