M48
; DRILL file {KiCad 9.0.7} date 2026-02-11T10:07:45-0600
; FORMAT={-:-/ absolute / metric / decimal}
; #@! TF.CreationDate,2026-02-11T10:07:45-06:00
; #@! TF.GenerationSoftware,Kicad,Pcbnew,9.0.7
; #@! TF.FileFunction,Plated,1,4,PTH
FMAT,2
METRIC
; #@! TA.AperFunction,Plated,PTH,ComponentDrill
T1C0.200
; #@! TA.AperFunction,Plated,PTH,ViaDrill
T2C0.600
; #@! TA.AperFunction,Plated,PTH,ComponentDrill
T3C0.760
; #@! TA.AperFunction,Plated,PTH,ComponentDrill
T4C1.000
; #@! TA.AperFunction,Plated,PTH,ComponentDrill
T5C1.020
; #@! TA.AperFunction,Plated,PTH,ComponentDrill
T6C1.100
%
G90
G05
T1
X-205.5Y-41.95
X-205.5Y-43.25
X-204.2Y-41.95
X-204.2Y-43.25
X-202.9Y-41.95
X-202.9Y-43.25
X-171.41Y-41.59
X-171.41Y-42.89
X-170.11Y-41.59
X-170.11Y-42.89
X-168.81Y-41.59
X-168.81Y-42.89
T2
X-431.47Y-68.09
X-408.25Y-89.55
X-406.01Y-63.38
X-400.25Y-83.0
X-397.331Y-102.075
X-396.69Y-86.93
X-395.3Y-73.85
X-394.39Y-102.097
X-392.69Y-83.63
X-392.64Y-87.88
X-391.33Y-102.06
X-389.69Y-83.58
X-389.051Y-102.069
X-387.49Y-88.53
X-386.33Y-90.45
X-386.05Y-102.05
X-385.99Y-84.08
X-383.14Y-102.09
X-380.7Y-102.1
X-378.24Y-102.07
X-371.65Y-105.05
X-371.602Y-99.671
X-371.577Y-98.054
X-371.5Y-96.15
X-369.22Y-101.67
X-368.1Y-106.95
X-367.055Y-93.574
X-366.244Y-95.199
X-364.642Y-100.736
X-364.617Y-99.136
X-358.95Y-105.45
X-358.948Y-98.217
X-358.948Y-100.037
X-356.36Y-102.17
X-355.425Y-107.026
X-354.279Y-93.37
X-353.336Y-95.158
X-351.709Y-101.051
X-350.896Y-99.934
X-344.77Y-98.191
X-344.77Y-105.405
X-344.759Y-100.017
X-342.63Y-106.85
X-342.34Y-101.38
X-340.614Y-93.116
X-339.42Y-94.945
X-338.176Y-100.355
X-336.829Y-99.466
X-331.763Y-99.773
X-331.749Y-96.053
X-331.749Y-97.953
X-331.7Y-105.25
X-330.454Y-82.3
X-329.4Y-101.48
X-328.629Y-80.325
X-328.45Y-107.0
X-328.35Y-91.75
X-325.552Y-100.228
X-324.485Y-99.111
X-322.684Y-93.04
X-320.85Y-78.3
X-320.02Y-89.26
X-319.45Y-105.5
X-319.444Y-96.081
X-319.444Y-97.981
X-319.43Y-100.127
X-318.63Y-86.58
X-317.049Y-101.62
X-316.765Y-87.24
X-315.9Y-106.75
X-315.5Y-92.75
X-314.61Y-86.18
X-314.23Y-83.83
X-313.16Y-91.39
X-313.03Y-100.406
X-312.9Y-74.9
X-312.36Y-86.26
X-311.836Y-99.289
X-310.79Y-85.18
X-306.0Y-98.0
X-305.968Y-100.002
X-305.9Y-105.55
X-303.51Y-101.9
X-302.85Y-106.95
X-301.95Y-92.65
X-299.314Y-100.508
X-298.145Y-99.644
X-293.675Y-99.163
X-293.675Y-104.658
X-293.663Y-97.531
X-291.17Y-101.8
X-290.5Y-79.95
X-290.05Y-106.95
X-289.812Y-94.844
X-289.8Y-91.9
X-286.436Y-100.406
X-285.191Y-99.517
X-283.464Y-89.865
X-282.929Y-96.85
X-281.559Y-90.26
X-280.4Y-103.05
X-279.7Y-96.7
X-277.56Y-95.214
X-274.64Y-96.07
X-273.79Y-103.38
X-273.65Y-93.5
X-271.39Y-95.04
X-271.373Y-100.624
X-270.677Y-97.728
X-270.612Y-92.177
X-265.201Y-89.51
X-264.287Y-90.449
X-264.05Y-102.95
X-263.537Y-96.55
X-260.818Y-95.721
X-257.9Y-96.5
X-256.95Y-93.9
X-254.55Y-95.6
X-254.55Y-101.188
X-253.85Y-106.25
X-253.805Y-92.827
X-253.805Y-98.389
X-250.1Y-96.05
X-248.837Y-89.49
X-247.85Y-104.35
X-247.764Y-90.475
X-246.8Y-96.9
X-243.955Y-95.668
X-241.122Y-96.471
X-240.35Y-103.85
X-240.15Y-93.9
X-237.867Y-95.758
X-237.75Y-101.5
X-237.107Y-92.964
X-237.082Y-98.577
X-233.25Y-98.55
X-231.877Y-89.49
X-231.35Y-104.4
X-230.861Y-90.475
X-230.6Y-95.45
X-227.889Y-95.828
X-225.069Y-96.603
X-224.25Y-104.0
X-224.1Y-94.0
X-221.718Y-95.703
X-221.66Y-101.37
X-220.966Y-92.947
X-220.927Y-98.523
X-215.494Y-89.49
X-215.2Y-104.45
X-214.649Y-97.05
X-214.63Y-90.449
X-211.988Y-95.731
X-209.17Y-96.47
X-208.45Y-103.8
X-208.219Y-93.97
X-207.11Y-101.24
X-205.776Y-95.682
X-205.027Y-92.888
X-205.001Y-98.476
X-204.5Y-55.45
X-201.28Y-96.67
X-201.0Y-36.95
X-200.05Y-47.45
X-199.771Y-89.484
X-199.26Y-102.89
X-198.526Y-90.526
X-196.012Y-95.934
X-193.24Y-96.65
X-192.47Y-104.0
X-192.293Y-94.147
X-189.94Y-101.45
X-189.89Y-95.86
X-189.4Y-46.15
X-189.23Y-98.654
X-189.092Y-93.04
X-177.575Y-94.703
X-171.1Y-55.1
X-166.73Y-36.88
X-166.01Y-47.31
X-161.642Y-94.672
X-159.597Y-94.672
X-157.45Y-35.8
T3
X-410.774Y-94.666
X-409.504Y-97.206
X-408.234Y-94.666
X-406.964Y-97.206
X-405.694Y-94.666
X-404.424Y-97.206
T4
X-425.675Y-37.055
X-425.675Y-39.595
X-425.675Y-42.135
X-425.675Y-44.675
X-425.675Y-47.215
X-425.675Y-49.755
X-425.675Y-52.295
X-425.675Y-54.835
X-425.675Y-57.375
X-425.675Y-59.915
X-425.675Y-62.455
X-425.675Y-64.995
X-425.675Y-67.535
X-425.675Y-70.075
X-425.675Y-72.615
X-425.675Y-75.155
X-425.675Y-77.695
X-425.675Y-80.235
X-425.675Y-82.775
X-425.675Y-85.315
X-423.135Y-37.055
X-423.135Y-39.595
X-423.135Y-42.135
X-423.135Y-44.675
X-423.135Y-47.215
X-423.135Y-49.755
X-423.135Y-52.295
X-423.135Y-54.835
X-423.135Y-57.375
X-423.135Y-59.915
X-423.135Y-62.455
X-423.135Y-64.995
X-423.135Y-67.535
X-423.135Y-70.075
X-423.135Y-72.615
X-423.135Y-75.155
X-423.135Y-77.695
X-423.135Y-80.235
X-423.135Y-82.775
X-423.135Y-85.315
X-170.967Y-110.515
X-168.427Y-110.515
X-164.262Y-110.465
X-161.722Y-110.465
X-156.395Y-110.46
X-153.855Y-110.46
X-147.523Y-110.16
X-144.983Y-110.16
T5
X-412.53Y-50.87
X-412.53Y-53.41
X-412.53Y-55.95
X-412.53Y-58.49
X-412.53Y-61.03
X-412.53Y-63.57
X-412.53Y-66.11
X-409.99Y-50.87
X-409.99Y-53.41
X-409.99Y-55.95
X-409.99Y-58.49
X-409.99Y-61.03
X-409.99Y-63.57
X-409.99Y-66.11
T6
X-439.88Y-109.82
X-437.34Y-109.82
X-434.8Y-109.82
X-432.26Y-109.82
X-429.72Y-109.82
X-427.18Y-109.82
X-424.64Y-109.82
X-422.1Y-109.82
X-396.037Y-110.058
X-393.497Y-110.058
X-390.957Y-110.058
X-388.417Y-110.058
X-385.877Y-110.058
X-383.337Y-110.058
X-380.797Y-110.058
X-378.257Y-110.058
X-372.173Y-110.109
X-369.633Y-110.109
X-365.673Y-110.109
X-363.133Y-110.109
X-359.406Y-110.109
X-356.866Y-110.109
X-352.906Y-110.109
X-350.366Y-110.109
X-346.406Y-110.109
X-343.866Y-110.109
X-339.906Y-110.109
X-337.366Y-110.109
X-333.406Y-110.109
X-330.866Y-110.109
X-326.906Y-110.109
X-324.366Y-110.109
X-320.406Y-110.109
X-317.866Y-110.109
X-313.753Y-110.109
X-311.213Y-110.109
X-307.406Y-110.109
X-304.866Y-110.109
X-300.906Y-110.109
X-298.366Y-110.109
X-294.406Y-110.109
X-291.866Y-110.109
X-287.906Y-110.109
X-285.366Y-110.109
X-277.586Y-110.073
X-275.046Y-110.073
X-272.506Y-110.073
X-269.966Y-110.073
X-262.435Y-110.175
X-259.895Y-110.175
X-257.355Y-110.175
X-254.815Y-110.175
X-245.237Y-110.363
X-242.697Y-110.363
X-240.157Y-110.363
X-237.617Y-110.363
X-229.311Y-110.359
X-226.771Y-110.359
X-224.231Y-110.359
X-221.691Y-110.359
X-212.979Y-110.414
X-210.439Y-110.414
X-207.899Y-110.414
X-205.359Y-110.414
X-196.952Y-110.541
X-194.412Y-110.541
X-191.872Y-110.541
X-189.332Y-110.541
X-182.905Y-110.515
X-180.365Y-110.515
X-177.825Y-110.515
X-175.285Y-110.515
M30
